<?xml version="1.0" encoding="utf-8"?>
<!-- Generator: Adobe Illustrator 23.0.6, SVG Export Plug-In . SVG Version: 6.00 Build 0)  -->
<svg version="1.1" id="Layer_1" xmlns="http://www.w3.org/2000/svg" xmlns:xlink="http://www.w3.org/1999/xlink" x="0px" y="0px"
	 viewBox="0 0 462 353" style="enable-background:new 0 0 462 353;" xml:space="preserve">
<style type="text/css">
	.st0{fill:#2B4255;}
	.st1{fill-rule:evenodd;clip-rule:evenodd;fill:#F05542;}
	.st2{fill-rule:evenodd;clip-rule:evenodd;fill:#2B4255;}
	.st3{fill:#F05542;}
</style>
<path class="st0" d="M391.8,291.3c1,0,2.1,0.4,2.8,1.2c0.7,0.8,1.2,1.8,1.2,2.8c0,1.1-0.4,2.1-1.2,2.8c-0.7,0.8-1.7,1.2-2.8,1.2
	h-344c-1,0-2.1-0.4-2.8-1.2c-0.7-0.8-1.2-1.8-1.2-2.8c0-1.1,0.4-2.1,1.2-2.8c0.7-0.8,1.7-1.2,2.8-1.2H391.8L391.8,291.3z
	 M23.9,291.3c1,0,2,0.4,2.8,1.2c0.7,0.8,1.1,1.8,1.1,2.8c0,1.1-0.4,2.1-1.1,2.8c-0.7,0.8-1.7,1.2-2.8,1.2H7.8c-1,0-2-0.4-2.8-1.2
	c-0.7-0.8-1.1-1.8-1.1-2.8c0-1.1,0.4-2.1,1.1-2.8c0.7-0.8,1.7-1.2,2.8-1.2H23.9z M454.7,291.3c0.9,0,1.8,0.4,2.4,1.2
	c0.6,0.8,1,1.8,1,2.8c0,1.1-0.4,2.1-1,2.8c-0.6,0.8-1.5,1.2-2.4,1.2h-39.4c-0.9,0-1.8-0.4-2.4-1.2c-0.6-0.8-1-1.8-1-2.8
	c0-1.1,0.4-2.1,1-2.8c0.6-0.8,1.5-1.2,2.4-1.2H454.7z"/>
<path class="st1" d="M295.7,307.3c1.1,0,2.1,0.4,2.9,1.2c0.8,0.8,1.2,1.8,1.2,2.8c0,1.1-0.4,2.1-1.2,2.8c-0.8,0.8-1.8,1.2-2.9,1.2
	H135.9c-1.1,0-2.1-0.4-2.9-1.2c-0.8-0.8-1.2-1.8-1.2-2.8c0-1.1,0.4-2.1,1.2-2.8c0.8-0.8,1.8-1.2,2.9-1.2H295.7z M279.3,323.3
	c1.2,0,2.3,0.4,3.2,1.2c0.8,0.8,1.3,1.8,1.3,2.8c0,1.1-0.5,2.1-1.3,2.8c-0.8,0.8-2,1.2-3.2,1.2h-46.9c-1.2,0-2.3-0.4-3.2-1.2
	c-0.8-0.8-1.3-1.8-1.3-2.8c0-1.1,0.5-2.1,1.3-2.8c0.8-0.8,2-1.2,3.2-1.2H279.3z M207.8,323.3c1.1,0,2.1,0.4,2.8,1.2
	c0.7,0.8,1.2,1.8,1.2,2.8c0,1.1-0.4,2.1-1.2,2.8c-0.7,0.8-1.8,1.2-2.8,1.2h-56c-1.1,0-2.1-0.4-2.8-1.2c-0.7-0.8-1.2-1.8-1.2-2.8
	c0-1.1,0.4-2.1,1.2-2.8c0.7-0.8,1.8-1.2,2.8-1.2H207.8z M247.2,339.3c1.2,0,2.4,0.4,3.2,1.2c0.9,0.8,1.3,1.8,1.3,2.8
	c0,1.1-0.5,2.1-1.3,2.8c-0.9,0.8-2,1.2-3.2,1.2h-46.7c-1.2,0-2.4-0.4-3.2-1.2c-0.9-0.8-1.3-1.8-1.3-2.8c0-1.1,0.5-2.1,1.3-2.8
	c0.9-0.8,2-1.2,3.2-1.2H247.2z"/>
<path class="st1" d="M95.7,31c0.3,0,0.7,0.1,1,0.2c0.3,0.1,0.6,0.3,0.8,0.6c0.2,0.2,0.4,0.5,0.5,0.8c0.1,0.3,0.2,0.6,0.2,1
	c0,1.7,0.7,2.5,2.5,2.5c3.4-0.1,3.4,5,0,5c-1.7,0-2.5,0.5-2.5,2.4c0.1,3.4-5.1,3.4-5,0c0-1.8-0.8-2.4-2.5-2.4c-3.4,0.1-3.4-5,0-5
	c2.2,0,2.5-1.3,2.5-2.5c0-0.3,0.1-0.7,0.2-1c0.1-0.3,0.3-0.6,0.6-0.8s0.5-0.4,0.8-0.5S95.4,31,95.7,31z"/>
<path class="st2" d="M365.5,205.2c0.5,0,0.9,0.1,1.3,0.3c0.4,0.2,0.8,0.4,1.1,0.8c0.3,0.3,0.6,0.7,0.7,1.1c0.2,0.4,0.2,0.9,0.2,1.3
	c0,2.4,1,3.5,3.4,3.5c4.6-0.1,4.6,6.9,0,6.9c-2.3,0-3.4,0.6-3.4,3.3c0.1,4.6-6.9,4.6-6.9,0c0-2.4-1.1-3.3-3.4-3.3
	c-4.6,0.1-4.6-6.9,0-6.9c3.1,0,3.4-1.8,3.4-3.5c0-0.5,0.1-0.9,0.3-1.3c0.2-0.4,0.4-0.8,0.8-1.1c0.3-0.3,0.7-0.6,1.1-0.8
	C364.6,205.3,365.1,205.2,365.5,205.2z M331.3,120.8c0.2,0,0.5,0.1,0.7,0.1s0.4,0.2,0.6,0.4c0.2,0.2,0.3,0.4,0.4,0.6
	c0.1,0.2,0.1,0.5,0.1,0.7c0,1.3,0.6,1.9,1.9,1.9c2.5-0.1,2.5,3.8,0,3.8c-1.3,0-1.9,0.4-1.9,1.8c0.1,2.5-3.8,2.5-3.8,0
	c0-1.3-0.6-1.8-1.9-1.8c-2.6,0-2.6-3.8,0-3.8c1.7,0,1.9-1,1.9-1.9c0-0.3,0-0.5,0.1-0.7c0.1-0.2,0.2-0.4,0.4-0.6
	c0.2-0.2,0.4-0.3,0.6-0.4C330.8,120.8,331,120.8,331.3,120.8L331.3,120.8z"/>
<path class="st1" d="M316.7,5.4c0.3,0,0.7,0.1,1,0.2c0.3,0.1,0.6,0.3,0.8,0.6c0.2,0.2,0.4,0.5,0.5,0.8c0.1,0.3,0.2,0.6,0.2,1
	c0,1.7,0.7,2.5,2.5,2.5c3.4-0.1,3.4,5,0,5c-1.7,0-2.5,0.5-2.5,2.4c0.1,3.4-5,3.4-5,0c0-1.8-0.8-2.4-2.5-2.4c-3.4,0.1-3.4-5,0-5
	c2.2,0,2.5-1.3,2.5-2.5c0-0.3,0.1-0.7,0.2-1c0.1-0.3,0.3-0.6,0.5-0.8c0.2-0.2,0.5-0.4,0.8-0.5C316,5.5,316.4,5.4,316.7,5.4z"/>
<path class="st2" d="M168,13.3c1,0,1.9,0.9,1.9,1.9c0,1.3,0.6,1.9,1.9,1.9c2.5,0,2.5,3.8,0,3.8c-1.2,0-1.9,0.4-1.9,1.8
	c0.1,2.6-3.8,2.6-3.8,0c0-1.3-0.6-1.8-1.9-1.8c-2.5,0.1-2.5-3.8,0-3.8c1.7,0,1.9-1,1.9-1.9c0-0.3,0-0.5,0.1-0.7
	c0.1-0.2,0.2-0.4,0.4-0.6s0.4-0.3,0.6-0.4C167.5,13.3,167.8,13.3,168,13.3z M82,79c0.3,0,0.7,0.1,1,0.2c0.3,0.1,0.6,0.3,0.8,0.6
	c0.2,0.2,0.4,0.5,0.5,0.8c0.1,0.3,0.2,0.6,0.2,1c0,1.7,0.7,2.5,2.5,2.5c3.4-0.1,3.4,5,0,5c-1.7,0-2.5,0.5-2.5,2.4c0.1,3.4-5,3.4-5,0
	c0-1.8-0.8-2.4-2.5-2.4c-3.4,0.1-3.4-5,0-5c2.2,0,2.5-1.3,2.5-2.5C79.5,80.1,80.6,79,82,79z M70.5,162.5c1,0,1.9,0.9,1.8,1.9
	c0,1.3,0.6,1.9,1.9,1.9c2.6-0.1,2.6,3.8,0,3.8c-1.2,0-1.9,0.3-1.9,1.8c0.1,2.6-3.8,2.6-3.8,0c0-1.3-0.6-1.8-1.9-1.8
	c-2.6,0-2.6-3.8,0-3.8c1.7,0,1.9-1,1.9-1.9c0-0.3,0-0.5,0.1-0.7c0.1-0.2,0.2-0.4,0.4-0.6s0.4-0.3,0.6-0.4
	C70,162.6,70.3,162.5,70.5,162.5z M76.2,213.3c0.5,0,0.9,0.1,1.3,0.3c0.4,0.2,0.8,0.4,1.1,0.8c0.3,0.3,0.6,0.7,0.7,1.1
	c0.2,0.4,0.2,0.9,0.2,1.3c0,2.4,1,3.5,3.4,3.5c4.6-0.1,4.6,6.9,0,6.9c-2.3,0-3.4,0.6-3.4,3.3c0.1,4.6-6.9,4.6-6.9,0
	c0-2.4-1.1-3.3-3.4-3.3c-4.6,0.1-4.6-6.9,0-6.9c3.1,0,3.4-1.7,3.4-3.5c0-0.5,0.1-0.9,0.3-1.3c0.2-0.4,0.4-0.8,0.8-1.1
	c0.3-0.3,0.7-0.6,1.1-0.8C75.3,213.4,75.7,213.3,76.2,213.3z M337.5,58.4c0.3,0,0.7,0.1,1,0.2c0.3,0.1,0.6,0.3,0.8,0.6
	c0.2,0.2,0.4,0.5,0.5,0.8c0.1,0.3,0.2,0.6,0.2,1c0,1.7,0.7,2.5,2.5,2.5c3.4-0.1,3.4,5,0,5c-1.7,0-2.5,0.5-2.5,2.4c0.1,3.4-5,3.4-5,0
	c0-1.8-0.8-2.4-2.5-2.4c-3.4,0.1-3.4-5,0-5c2.2,0,2.5-1.3,2.5-2.5c0-0.3,0.1-0.7,0.2-1c0.1-0.3,0.3-0.6,0.5-0.8s0.5-0.4,0.8-0.6
	C336.8,58.5,337.2,58.4,337.5,58.4z M264.1,19.8c0.3,0,0.5,0.1,0.7,0.2c0.2,0.1,0.4,0.2,0.6,0.4c0.2,0.2,0.3,0.4,0.4,0.6
	c0.1,0.2,0.1,0.5,0.1,0.7c0,1.3,0.6,2,1.9,2c2.6,0,2.6,3.9,0,3.9c-1.3,0-1.9,0.4-1.9,1.9c0,2.6-3.9,2.6-3.9,0c0-1.4-0.6-1.9-1.9-1.9
	c-2.6,0-2.6-3.9,0-3.9c1.7,0,1.9-1,1.9-2c0-0.3,0-0.5,0.1-0.8c0.1-0.2,0.2-0.5,0.4-0.6c0.2-0.2,0.4-0.3,0.6-0.4
	C263.6,19.9,263.8,19.8,264.1,19.8z"/>
<path class="st3" d="M193.2,46.2l6.4-0.1l0,8h-6.2l-1.4,0.1l-0.9-7.9l1.6-0.2h0.2L193.2,46.2z M184.1,55.2l-1,0.1l-6.4,1.4l-1.6-7.8
	l6.5-1.4l0.2-0.1h0.2l1.3-0.1L184.1,55.2z M215.1,47.2h0.2l0.2,0.1l0.8,0.2l-1.6,7.8l-0.7-0.1l-6.8-0.7l0.8-8L215.1,47.2z
	 M225.8,49.3l0.2,0.1l0.2,0.1l6.1,1.9l-2.3,7.6l-5.8-1.8l-1.5-0.3l1.6-7.8L225.8,49.3z M246,56.5l0.2,0.1l0.2,0.1l1.4,0.8l-3.8,7
	l-1.3-0.7l-5.7-2.4l3.1-7.4L246,56.5z M255.4,61.6l0.2,0.1l0.2,0.1l6.1,4.1l-4.4,6.7l-6.1-4.1h0l-0.2-0.1l3.8-7L255.4,61.6z
	 M272.5,74.2l0.1,0.1l0.1,0.1l2.1,2l-5.6,5.7l-1.9-1.9l-3.8-3.1l5.1-6.2L272.5,74.2z M285.9,88.5l-6.1,5.1l-5.1-6.1l6.1-5.1
	L285.9,88.5z M292.9,98.6l0.1,0.2l0.1,0.2l2,3.6l-7,3.8l-1.9-3.4l-2.1-3.1l6.6-4.5L292.9,98.6z M302.1,117.3l-7.4,3.2l-3.2-7.4
	l7.4-3.1L302.1,117.3z M305.7,128.4l0.1,0.2l0,0.2l1,4.6L299,135l-0.9-4.4l-1-3l7.6-2.4L305.7,128.4z M309.2,149.6l-8,0.9l-0.9-7.9
	l8-0.9L309.2,149.6z M309.3,158l0,4v0.2l0,0.2l-0.4,4l-8-0.8l0.4-3.7l0-3.8L309.3,158z M308,174.7c-0.9,11.2-10,9.4-7.9-1.5
	L308,174.7z M103.4,193L103.4,193l3,7l-7.4,3.2l-3-7.1l-0.1-0.2l-0.1-0.2l-0.1-0.3l6.5-2.1L103.4,193L103.4,193z M112.2,211.1
	l1.5,2.2l-6.6,4.5l-1.6-2.4l-0.1-0.2l-0.1-0.2l-2.5-4.5l7-3.8L112.2,211.1z M123.1,225.8l-6.1,5.1l-5.1-6.1l6.1-5.1L123.1,225.8z
	 M131.1,233.9l3,2.4l-5.1,6.2l-3.2-2.6l-0.1-0.1l-0.1-0.1l-2.8-2.8l5.6-5.7L131.1,233.9z M146.8,245.4l-4.4,6.6l-6.7-4.4l4.4-6.7
	L146.8,245.4z M267.2,244.4l-1.1,0.9l-0.1,0.1l-0.2,0.1l-5.4,3.7l-4.5-6.6l5.1-3.5h0l1.1-0.9L267.2,244.4z M155.7,250.2l4.7,2
	l-3.1,7.4l-4.9-2.1l-0.2-0.1l-0.2-0.1l-2.4-1.3l3.8-7L155.7,250.2z M253.3,253.7l-5.3,2.9l-0.2,0.1l-0.2,0.1l-1.8,0.8l-3.2-7.3
	l1.6-0.7l5.1-2.9L253.3,253.7z M174.3,257l0.4,0.1l-1.6,7.8l-0.6-0.1l-0.2-0.1l-0.2-0.1l-7.1-2.2l2.3-7.6L174.3,257z M238.5,260.8
	l-0.4,0.2l-0.2,0.1l-0.2,0.1l-7.2,2.3l-2.4-7.6l7.1-2.3l0.2-0.1L238.5,260.8z M184.3,259l5.8,0.6l-0.8,8l-6.1-0.6h-0.2l-0.2-0.1
	l-1.9-0.4l1.6-7.8L184.3,259z M222.4,265.5l-5.5,1.2l-0.2,0.1h-0.2l-2.3,0.3l-0.9-8l2-0.2l5.4-1.2L222.4,265.5z M205,259.9h0.3
	l0.9,8l-0.5,0.1h-0.2l-0.2,0l-7.5,0.1l0-8L205,259.9z M202.3,86.3h0.4l3.7,0.4l-0.8,8l-3.4-0.3H198l0-8L202.3,86.3z M190.5,94.9
	l-1.2,0.1l-6.2,1.3l-1.6-7.8l6.5-1.4l0.2-0.1h0.2l1.4-0.2L190.5,94.9z M216.2,88.3h0.2l0.2,0.1l6.1,1.9l-2.3,7.6l-5.9-1.8l-1.5-0.3
	l1.6-7.8L216.2,88.3z M235.2,96.1l0.2,0.1l0.2,0.1L238,98l-4.4,6.7l-2.4-1.6l-4.2-2.3l3.8-7.1L235.2,96.1z M246.2,104.1l0.2,0.1
	l0.1,0.1l4.4,4.3l-5.6,5.7l-4.2-4.2l-1.3-1l5-6.2L246.2,104.1z M259.3,119.7l0.1,0.2l0.1,0.2l1.4,2.5l-7,3.9l-1.3-2.3l-2.8-4.1
	l6.6-4.5L259.3,119.7z M265.4,132l0.1,0.2l0.1,0.2l1.8,5.6l-7.6,2.4L258,135l-0.8-1.7l7.4-3.2L265.4,132z M269.8,152.9l0,0.2l0,0.2
	v1.7l-8,0.1l0-1.5l-0.6-6.1l8-0.8L269.8,152.9z M145.8,190l3.4,5l0.1,0.2l-6.1,5.1l-0.3-0.3l-0.1-0.1l-0.1-0.2l-3.6-5.3l-0.1-0.2
	l-0.1-0.2l-0.6-1l7-3.9L145.8,190z M157.5,203.9L157.5,203.9l2.6,2.1l-5,6.2l-2.8-2.3l-0.2-0.1l-0.1-0.1l-3.2-3.1l5.6-5.7
	L157.5,203.9z M167.2,211l5.2,2.8l0.2,0.1h0l0.1,0.1l-0.4,0.7l-2.7,6.6l-0.3-0.1l-0.2-0.1l-0.2-0.1l-5.7-3l-0.2-0.1l-0.2-0.1l-1-0.7
	l4.4-6.7L167.2,211z M234.5,218.3l-3.9,2.2l-0.2,0.1l-0.2,0.1l-3.2,1.4l-3.2-7.3l3.1-1.4l3.7-2L234.5,218.3z M183.9,217.9l3.1,0.6
	l-1.5,7.8l-3.2-0.6H182l-0.2-0.1l-4.5-1.4l2.3-7.6L183.9,217.9z M219.1,224.9l-1.5,0.5l-0.2,0.1l-0.2,0.1l-6.3,1.3l-1.6-7.8l6-1.3
	l1.4-0.4L219.1,224.9z M196.3,219.7h5.8l0.1,8h-6.4l-2-0.2l0.8-8L196.3,219.7z"/>
<path class="st0" d="M323.9,193c5.8,3.4,7.4,11,4,16.8l-17.7,30.6c-3.4,5.8-10.8,8.2-16.6,4.8l-11.9-6.9c-0.5-0.3-0.9-0.6-1.2-1
	c-0.3-0.4-0.6-0.9-0.7-1.4c-0.1-0.5-0.2-1.1-0.1-1.6c0.1-0.5,0.2-1,0.5-1.5c0.3-0.5,0.6-0.9,1.1-1.2s0.9-0.6,1.4-0.7
	c0.5-0.1,1.1-0.2,1.6-0.1c0.5,0.1,1,0.3,1.5,0.5l11.9,6.9c1.8,1,4.3,0.4,5.6-1.9l17.7-30.6c1.4-2.4,0.7-4.8-1.1-5.9l-11.5-6.7
	c-0.5-0.3-0.9-0.6-1.2-1c-0.3-0.4-0.6-0.9-0.7-1.4c-0.1-0.5-0.2-1-0.1-1.6c0.1-0.5,0.2-1,0.5-1.5c0.3-0.5,0.6-0.9,1-1.2
	c0.4-0.3,0.9-0.6,1.4-0.7c0.5-0.1,1-0.2,1.6-0.1c0.5,0.1,1,0.2,1.5,0.5L323.9,193z"/>
<path class="st0" d="M285.5,230.6c0.7,0,1.4,0.2,2,0.6c0.6,0.4,1.1,0.9,1.4,1.5c0.3,0.6,0.5,1.3,0.5,2c0,0.7-0.2,1.4-0.6,2
	l-32.1,54.5h8.7l29.7-51c0.5-0.9,1.4-1.6,2.4-1.9c1-0.3,2.1-0.1,3,0.4c0.9,0.5,1.6,1.4,1.9,2.4c0.3,1,0.1,2.1-0.4,3L271,297.2
	c-0.4,0.6-0.9,1.1-1.5,1.5c-0.6,0.3-1.3,0.5-2,0.5h-18c-0.7,0-1.4-0.2-2-0.5c-0.6-0.4-1.1-0.9-1.5-1.5c-0.3-0.6-0.5-1.3-0.5-2
	c0-0.7,0.2-1.4,0.6-2l35.7-60.6c0.4-0.6,0.9-1.2,1.6-1.5C284,230.8,284.8,230.6,285.5,230.6z"/>
<path class="st3" d="M165.7,51.4c1,0,1.9,0.3,2.7,0.9c0.7,0.6,1.2,1.5,1.4,2.4c0.2,1,0,1.9-0.5,2.8c-0.5,0.8-1.3,1.4-2.2,1.7
	c-50.4,16.6-79.9,68.6-68.3,120.4c0.1,0.5,0.2,1.1,0.1,1.6c-0.1,0.5-0.3,1-0.5,1.5c-0.3,0.5-0.6,0.9-1.1,1.2
	c-0.4,0.3-0.9,0.5-1.5,0.7c-0.5,0.1-1.1,0.1-1.6,0c-0.5-0.1-1-0.3-1.5-0.6c-0.4-0.3-0.8-0.7-1.1-1.1c-0.3-0.4-0.5-0.9-0.6-1.5
	c-12.5-55.7,19.4-111.9,73.6-129.8C164.9,51.4,165.3,51.4,165.7,51.4z"/>
<path class="st3" d="M168.7,93.6c0.9,0,1.8,0.3,2.5,0.9c0.7,0.6,1.2,1.3,1.4,2.2c0.2,0.9,0.1,1.8-0.3,2.6c-0.4,0.8-1,1.5-1.8,1.9
	c-13.3,6.8-23.7,18.2-29.4,32c-5.7,13.8-6.2,29.2-1.5,43.4c0.2,0.5,0.3,1,0.2,1.6c0,0.5-0.2,1.1-0.4,1.5c-0.2,0.5-0.6,0.9-1,1.3
	c-0.4,0.4-0.9,0.6-1.4,0.8c-0.5,0.2-1,0.2-1.6,0.2c-0.5,0-1.1-0.2-1.5-0.4c-0.5-0.2-0.9-0.6-1.2-1c-0.3-0.4-0.6-0.9-0.7-1.4
	c-5.3-16-4.6-33.3,1.7-48.9c6.4-15.6,18.1-28.4,33.1-36.1C167.4,93.8,168,93.6,168.7,93.6z M203.7,123.5h0.4l0.4,0.1l5.7,1.4
	l0.4,0.1l0.4,0.2l0.6,0.3l-3,6.5l-0.2,0.8h-0.1l0,0.1l-0.2-0.1l-4.9-1.2l-1.1-0.1l0.4-8L203.7,123.5z M178.6,172.7l3.4,3.6l0.2,0.1
	h0l0.1,0.1l-0.7,0.6l-4.1,5.6l-0.5-0.4l-0.3-0.2l-0.2-0.3l-3.9-4.2l-0.2-0.3l-0.2-0.3l-0.9-1.4l6.8-4.2L178.6,172.7z M189.8,124.7
	c1,0,1.9,0.3,2.6,0.9c0.7,0.6,1.2,1.5,1.4,2.4c0.2,0.9,0,1.9-0.5,2.7c-0.5,0.8-1.3,1.4-2.2,1.7c-3.2,1.1-6.2,2.7-8.8,5
	c-2.6,2.2-4.7,4.9-6.2,8c-1.5,3-2.4,6.3-2.7,9.7c-0.2,3.4,0.2,6.8,1.2,10c0.2,0.5,0.2,1,0.2,1.6c0,0.5-0.2,1-0.4,1.5
	c-0.5,0.9-1.3,1.7-2.3,2c-1,0.3-2.1,0.3-3.1-0.2c-0.9-0.5-1.7-1.3-2-2.3c-2.8-8.5-2.1-17.8,2-25.8c4-8,11.1-14.1,19.6-16.9
	C189,124.7,189.4,124.7,189.8,124.7z"/>
<path class="st0" d="M327.9,206c3.3,1.9,6.1,4.7,8,8c1.9,3.3,2.9,7.1,2.9,11c0,3.8-1,7.6-2.9,11c-1.9,3.3-4.7,6.1-8,8
	c-3.3,1.9-7.1,2.9-11,2.9c-3.8,0-7.6-1-10.9-3c-0.5-0.3-0.9-0.6-1.2-1c-0.3-0.4-0.6-0.9-0.7-1.4c-0.1-0.5-0.2-1-0.1-1.6
	s0.2-1,0.5-1.5c0.3-0.5,0.6-0.9,1-1.2c0.4-0.3,0.9-0.6,1.4-0.7c0.5-0.1,1-0.2,1.6-0.1s1,0.2,1.5,0.5c2.1,1.2,4.5,1.9,7,1.9
	c2.4,0,4.8-0.6,7-1.9c2.1-1.2,3.9-3,5.1-5.1c1.2-2.1,1.9-4.5,1.9-7c0-2.4-0.6-4.8-1.9-7c-1.2-2.1-3-3.9-5.1-5.1
	c-0.9-0.5-1.6-1.4-1.9-2.4c-0.3-1-0.1-2.1,0.4-3c0.5-0.9,1.4-1.6,2.4-1.9C325.9,205.3,327,205.4,327.9,206L327.9,206z M238.6,120.6
	c0.8,0,1.6,0.2,2.2,0.6c0.7,0.4,1.2,1,1.5,1.8c3.2,6.9,7.1,13.5,11.6,19.7c0.6,0.9,0.9,1.9,0.7,3c-0.2,1-0.7,2-1.6,2.6
	c-0.9,0.6-1.9,0.9-3,0.7c-1-0.2-2-0.7-2.6-1.6c-5-6.9-9.2-14-12.4-21c-0.3-0.6-0.4-1.3-0.4-1.9c0-0.7,0.2-1.3,0.6-1.9
	c0.4-0.6,0.8-1,1.4-1.4C237.3,120.8,237.9,120.6,238.6,120.6z M261.3,154c0.6,0,1.2,0.1,1.7,0.3c0.5,0.2,1,0.6,1.4,1
	c0.8,0.8,1.6,1.6,2.4,2.5c0.4,0.4,0.7,0.8,0.9,1.3c0.2,0.5,0.3,1,0.3,1.6c0,0.5-0.1,1.1-0.3,1.6s-0.5,0.9-0.9,1.3
	c-0.4,0.4-0.8,0.7-1.3,0.9c-0.5,0.2-1,0.3-1.6,0.3c-0.5,0-1.1-0.1-1.6-0.4c-0.5-0.2-0.9-0.5-1.3-0.9c-0.8-0.9-1.7-1.7-2.5-2.6
	c-0.5-0.6-0.9-1.3-1-2c-0.1-0.8-0.1-1.5,0.2-2.3c0.3-0.7,0.8-1.3,1.4-1.8C259.8,154.3,260.5,154.1,261.3,154z M273,164.9
	c0.9,0,1.8,0.4,2.4,1c6.2,5.3,13,10.1,20,14.2c0.5,0.3,0.9,0.6,1.2,1c0.3,0.4,0.6,0.9,0.7,1.4c0.1,0.5,0.2,1,0.1,1.6
	c-0.1,0.5-0.2,1-0.5,1.5c-0.3,0.5-0.6,0.9-1,1.2c-0.4,0.3-0.9,0.6-1.4,0.7c-0.5,0.1-1,0.2-1.6,0.1s-1-0.2-1.5-0.5
	c-7.6-4.4-14.7-9.5-21.2-15.1c-0.6-0.5-1.1-1.3-1.3-2.1c-0.2-0.8-0.2-1.7,0.1-2.4c0.3-0.8,0.8-1.4,1.5-1.9
	C271.3,165,272.1,164.8,273,164.9z M189.8,203c23.5-1.9,55.6,3.7,81.6,18.7c0.9,0.5,1.6,1.4,1.9,2.4c0.3,1,0.1,2.1-0.4,3
	c-0.5,0.9-1.4,1.6-2.4,1.9c-1,0.3-2.1,0.1-3-0.4c-24.1-14-55.3-19.4-76.9-17.7c-1.1,0.1-2.1-0.3-2.9-0.9s-1.3-1.7-1.4-2.7
	c-0.1-1.1,0.3-2.1,0.9-2.9C187.7,203.6,188.7,203.1,189.8,203z"/>
<path class="st0" d="M228.4,100.3c1.7-0.5,3.5-0.6,5.3-0.4s3.5,0.8,5,1.7c3.1,1.8,5.4,4.8,6.3,8.3c0.9,3.5,0.4,7.2-1.4,10.3
	l-28.9,49.9c-0.3,0.5-0.6,0.9-1,1.2c-0.4,0.3-0.9,0.6-1.4,0.7c-0.5,0.2-1.1,0.2-1.6,0.1c-0.5-0.1-1.1-0.2-1.5-0.5
	c-0.5-0.3-0.9-0.6-1.2-1.1c-0.3-0.4-0.6-0.9-0.7-1.4c-0.1-0.5-0.2-1.1-0.1-1.6c0.1-0.5,0.3-1,0.6-1.5l28.9-49.9
	c0.4-0.6,0.6-1.3,0.7-2.1c0.1-0.7,0.1-1.5-0.1-2.2c-0.2-0.7-0.5-1.4-1-2c-0.5-0.6-1-1.1-1.7-1.4c-0.6-0.4-1.3-0.6-2.1-0.7
	c-0.7-0.1-1.5-0.1-2.2,0.1c-0.7,0.2-1.4,0.5-2,1c-0.6,0.5-1.1,1-1.4,1.7l-53.9,93.1c-0.4,0.6-0.6,1.3-0.7,2.1s-0.1,1.5,0.1,2.2
	c0.2,0.7,0.5,1.4,1,2c0.5,0.6,1,1.1,1.7,1.4c0.6,0.4,1.3,0.6,2.1,0.7c0.7,0.1,1.5,0.1,2.2-0.1c0.7-0.2,1.4-0.5,2-1
	c0.6-0.5,1.1-1,1.4-1.7l10.1-17.4c0.3-0.5,0.6-0.9,1-1.2c0.4-0.3,0.9-0.6,1.4-0.7c0.5-0.1,1.1-0.2,1.6-0.1c0.5,0.1,1.1,0.2,1.5,0.5
	c0.5,0.3,0.9,0.6,1.2,1.1c0.3,0.4,0.6,0.9,0.7,1.4c0.1,0.5,0.1,1.1,0.1,1.6c-0.1,0.5-0.3,1-0.6,1.5l-10.1,17.4
	c-1.8,3.1-4.8,5.4-8.3,6.3c-3.5,0.9-7.2,0.4-10.3-1.4c-3.1-1.8-5.4-4.8-6.3-8.3c-0.9-3.5-0.4-7.2,1.3-10.3l53.9-93.1
	c0.9-1.5,2.1-2.9,3.5-4C225,101.5,226.7,100.8,228.4,100.3z M205.9,173.8c0.7,0,1.4,0.2,2.1,0.5c0.6,0.4,1.1,0.9,1.5,1.5
	c0.4,0.6,0.5,1.4,0.5,2.1c0,0.7-0.3,1.4-0.7,2l-2.6,4c-0.6,0.9-1.5,1.5-2.5,1.8c-1,0.2-2.1,0-3-0.5s-1.5-1.5-1.8-2.5
	c-0.2-1,0-2.1,0.5-3l2.6-4c0.4-0.6,0.8-1,1.4-1.4C204.6,174,205.2,173.8,205.9,173.8z M307.8,178.8c2.9,1.8,4.9,4.6,5.7,7.8
	c0.8,3.3,0.3,6.7-1.5,9.6l-21.8,36c-3.6,6-11.5,7.9-17.4,4.3c-2.9-1.8-4.9-4.6-5.7-7.8s-0.3-6.7,1.5-9.6l21.8-36
	c1.8-2.9,4.6-4.9,7.8-5.7C301.5,176.5,304.9,177.1,307.8,178.8z M303.6,185.6c-0.5-0.3-1.1-0.6-1.7-0.7c-0.6-0.1-1.2-0.1-1.8,0.1
	c-0.6,0.1-1.2,0.4-1.7,0.8c-0.5,0.4-0.9,0.8-1.2,1.4l-21.8,36c-0.3,0.5-0.6,1.1-0.7,1.7c-0.1,0.6-0.1,1.2,0.1,1.8
	c0.1,0.6,0.4,1.2,0.8,1.7c0.4,0.5,0.8,0.9,1.4,1.2c0.5,0.3,1.1,0.6,1.7,0.7c0.6,0.1,1.2,0.1,1.8-0.1c0.6-0.1,1.2-0.4,1.7-0.8
	c0.5-0.4,0.9-0.8,1.2-1.4l21.8-36c0.3-0.5,0.6-1.1,0.7-1.7c0.1-0.6,0.1-1.2-0.1-1.8c-0.1-0.6-0.4-1.2-0.8-1.7
	S304.2,185.9,303.6,185.6z"/>
</svg>
