<svg width="12" height="12" viewBox="0 0 12 12" fill="none" xmlns="http://www.w3.org/2000/svg">
<path d="M0 12.0004H1.71429V10.2861H0V12.0004Z" fill="#9F9F9F"/>
<path d="M1.71094 10.2851H3.42522V8.5708H1.71094V10.2851Z" fill="#9F9F9F"/>
<path d="M5.14453 6.85735H6.85882V5.14307H5.14453V6.85735Z" fill="#9F9F9F"/>
<path d="M3.43359 8.57122H5.14788V6.85693H3.43359V8.57122Z" fill="#9F9F9F"/>
<path d="M6.85547 5.14349H8.56975V3.4292H6.85547V5.14349Z" fill="#9F9F9F"/>
<path d="M10.2857 0C6.85714 0 3.42857 0 0 0V1.71429C2.85714 1.71429 5.71429 1.71429 8.57143 1.71429V3.42857H10.2857C10.2857 6.28571 10.2857 9.14286 10.2857 12H12C12 8 12 4 12 0H10.2857Z" fill="#9F9F9F"/>
</svg>
