<svg width="208" height="208" viewBox="0 0 208 208" fill="none" xmlns="http://www.w3.org/2000/svg">
<path d="M26 182.001H173.333L132.34 127.834L89.336 109.504L65 78.0008H26V182.001ZM34.6667 173.334V154.961L52 160.594L127.218 135.6L156 173.334H34.6667ZM52 151.408L34.6667 145.714V121.967L52 127.6L84.396 116.836L115.371 130.322L52 151.408ZM155.003 114.661L184.002 101.661V79.6735L155.835 73.3468L140.669 85.5062V103.178L155.003 114.661ZM52 114.16L34.6667 112.728L84.396 116.836L60.6667 86.6675L78.5807 109.652L52 114.16ZM156.26 104.53L149.327 99.1128V89.5795L157.993 82.6462L175.327 86.5462V96.0795L156.26 104.53ZM104.997 66.3442L138.667 52.8328V22.4995L105.837 15.8262L86.6667 28.6788V53.9942L104.997 66.3442ZM105.95 56.5075L95.3333 49.3488V33.3155L107.683 25.0822L130 29.6408V46.9742L105.95 56.5075Z" fill="black"/>
</svg>
