<svg xmlns="http://www.w3.org/2000/svg" data-name="Layer 1" viewBox="0 0 512 512" id="farmer"><path fill="#f1b0a2" d="m72.63 348.952 31.366 55.515v7.966h64.084v44.917l-23.602 38.31a27 27 0 0 1-47.405-2.638L34.3 360Z"></path><path fill="#fdc857" d="M449.39 505V361.71a66 66 0 0 0-42.95-61.843l-67.69-25.23a33 33 0 0 1-21.475-30.922V220.74H236.11v22.975a33 33 0 0 1-21.474 30.922l-67.691 25.23a66 66 0 0 0-42.95 61.844v50.722h64.11V512H442.39a7 7 0 0 0 7-7Z"></path><path fill="#ffbc5b" d="M449.39 505V361.71a66 66 0 0 0-42.95-61.843l-67.69-25.23a33 33 0 0 1-21.475-30.922V220.74H236.11v22.975a33 33 0 0 1-21.474 30.922l-67.691 25.23a66 66 0 0 0-42.95 61.844v50.722h64.11V505a7 7 0 0 0 7 7H442.39a7 7 0 0 0 7-7Z"></path><path fill="#e88f37" d="M236.111 222.98v20.735a32.963 32.963 0 0 1-7.628 21.083l30.773-20.292-15.735-23.766h-4.014Z"></path><path fill="#f1b0a2" d="M338.75 274.637a33 33 0 0 1-21.475-30.922V220.74H236.11v22.975a33 33 0 0 1-21.474 30.922l62.056 21zM442.39 512h-53.074v-85.567h60.074V505a7 7 0 0 1-7 7z"></path><path fill="#ff7b4f" d="M354.486 512V287.782a10 10 0 0 1 12.31-9.73l38.98 9.253a10 10 0 0 1 7.69 9.73V512zm-77.793-219.495v8.418a359.412 359.412 0 0 1-37.877-13.426 359.281 359.281 0 0 1-25.29-11.764 7.013 7.013 0 0 1-3.81-6.457c.066-2.22.194-5.01.194-7.946a5.998 5.998 0 0 1 8.191-5.584c11.485 4.511 32.477 12.823 45.967 18.17a19.99 19.99 0 0 1 12.625 18.59z"></path><path fill="#dc8768" d="M13.267 366.506a15.357 15.357 0 0 1 5.64-18.918L455.514 59.69c4.189-2.762 9.32-2.37 11.46.877l9.154 13.884c2.14 3.246.48 8.118-3.708 10.88L35.813 373.229a15.355 15.355 0 0 1-22.546-6.723Z"></path><path fill="#dc8768" d="M407.14 105.558 427 127.646l40.71 90.445a5.348 5.348 0 0 0 7.821 2.27 5.348 5.348 0 0 0 2.339-5.299l-17.293-109.557-14.322-25.739Z"></path><path fill="#dc8768" d="m411.7 112.474-12.476-26.956-67.088-73.053a5.348 5.348 0 0 1 .995-8.082 5.347 5.347 0 0 1 5.79-.062l93.88 59.056 18.014 23.305Z"></path><rect width="51.106" height="60.452" x="403.247" y="65.624" fill="#ab5249" rx="12.642" transform="rotate(56.602 428.8 95.85)"></rect><path fill="#dc8768" d="M252.256 230.506 35.813 373.23a15.355 15.355 0 0 1-22.546-6.723 15.357 15.357 0 0 1 5.64-18.918l216.394-142.69Z"></path><path fill="#ff7b4f" d="M276.693 292.498v8.425a237.511 237.511 0 0 0 63.482-25.142 6.977 6.977 0 0 0 3.503-6.25c-.064-2.26-.202-5.153-.202-8.201a5.998 5.998 0 0 0-8.191-5.584c-11.486 4.511-32.478 12.823-45.97 18.17a19.986 19.986 0 0 0-12.622 18.582Z"></path><path fill="#ab5249" d="M66.728 340.604a30.048 30.048 0 0 0 12.467-32.77l-60.287 39.754a15.349 15.349 0 0 0-6.012 17.94 30.173 30.173 0 0 0 6.093.632h.001a29.89 29.89 0 0 0 16.5-4.957Z"></path><path fill="#f1b0a2" d="M5.616 344.966 4.49 343.26a6 6 0 0 1 1.706-8.312l47.935-31.609a6 6 0 0 1 8.312 1.706l1.125 1.707a16 16 0 0 1-4.55 22.165l-31.238 20.599a16 16 0 0 1-22.165-4.55Z"></path><path fill="#ab5249" d="M373.976 132.504q-4.073-6.964-7.92-13.826l-47.421 31.27q6.03 10.673 12.63 21.57c1.002 1.652 2.008 3.274 3.013 4.903l47.3-31.19a902.119 902.119 0 0 1-7.602-12.727Z"></path><path fill="#ff7b4f" d="m404.167 219.454-28.819 16.639a11.406 11.406 0 0 1-14.936-3.202 796.828 796.828 0 0 1-36.147-54.372 797.644 797.644 0 0 1-50.784-98.47l48.507-28.005a907.112 907.112 0 0 0 44.988 87.46 907.029 907.029 0 0 0 40.82 63.545 11.382 11.382 0 0 1-3.629 16.405Z"></path><path fill="#dd9287" d="M206.792 185.093h12.905l-7-40.013h-9.893a9.282 9.282 0 0 0-9.125 10.978l3.988 21.45a9.282 9.282 0 0 0 9.125 7.585zm140.446 0h-12.905l7-40.013h9.893a9.282 9.282 0 0 1 9.126 10.978l-3.989 21.45a9.282 9.282 0 0 1-9.125 7.585zM282.976 272.2h2.078a41.945 41.945 0 0 0 26.261-9.238 99.062 99.062 0 0 0 8.188-7.361 32.929 32.929 0 0 1-2.228-11.886V220.74H236.11v19.618a98.939 98.939 0 0 0 20.604 22.604 41.945 41.945 0 0 0 26.261 9.238z"></path><path fill="#f1b0a2" d="M304.316 250.352a41.945 41.945 0 0 1-26.262 9.239h-2.078a41.945 41.945 0 0 1-26.261-9.239 99 99 0 0 1-37.018-77.195v-53.949a28.421 28.421 0 0 1 28.421-28.421h71.794a28.421 28.421 0 0 1 28.422 28.421v53.949a99 99 0 0 1-37.018 77.195Z"></path><path fill="#dd9287" d="m338.552 106.985.02-.006c-.098-.208-.214-.406-.318-.61a26.824 26.824 0 0 0-.417-.802 28.255 28.255 0 0 0-.653-1.116c-.143-.235-.28-.472-.43-.702a28.372 28.372 0 0 0-.862-1.238c-.118-.162-.227-.329-.348-.488q-.646-.85-1.353-1.65c-.028-.033-.06-.062-.087-.094q-.666-.745-1.383-1.441c-.136-.131-.278-.254-.416-.383-.382-.357-.77-.708-1.171-1.044-.17-.141-.344-.276-.516-.414-.388-.31-.782-.611-1.186-.9-.171-.123-.344-.242-.518-.36q-.661-.45-1.346-.865c-.17-.103-.34-.205-.51-.304-.46-.265-.93-.514-1.407-.753-.164-.083-.326-.169-.492-.248-.554-.266-1.119-.51-1.692-.74-.095-.038-.187-.081-.282-.118a28.33 28.33 0 0 0-10.273-1.922h-71.794a28.421 28.421 0 0 0-28.421 28.421v19.74a17.963 17.963 0 0 0 17.876 3.836l70.22-23.28a8.648 8.648 0 0 1 8.496 1.771l18.645 16.726a11.281 11.281 0 0 0 13.4 1.325v-20.118a28.26 28.26 0 0 0-2.782-12.223Z"></path><path fill="#343c4a" d="M248.433 197.44a3.58 3.58 0 0 1 3.016-3.543 163.719 163.719 0 0 1 51.438 0 3.58 3.58 0 0 1 3.014 3.543v10.709a3.59 3.59 0 0 1-4.11 3.546 175.066 175.066 0 0 0-49.252 0 3.588 3.588 0 0 1-4.106-3.545Z"></path><path fill="#eb9c8d" d="M287.628 182.521v5.519a10.613 10.613 0 0 1-10.613 10.613 10.613 10.613 0 0 1-10.613-10.613v-5.519a3 3 0 0 1 3-3h15.226a3 3 0 0 1 3 3Z"></path><path fill="#f24f2a" d="m327.934 124.001-25.448-22.829 6.645-23.187h37.802v37.536a11.392 11.392 0 0 1-18.999 8.48Z"></path><path fill="#ff7b4f" d="m347.17 90.128-116.597 38.656a18.038 18.038 0 0 1-23.713-17.121V70.69a39.173 39.173 0 0 1 48.2-38.118l79.55 18.838a16.322 16.322 0 0 1 12.56 15.883Z"></path><path fill="#f24f2a" d="M302.502 43.807a247.892 247.892 0 0 1-54.795 28.9 247.151 247.151 0 0 1-40.847 11.466V106.5a237.174 237.174 0 0 0 57.449-15.769 237.837 237.837 0 0 0 65.15-40.54l-26.957-6.384Z"></path><path fill="#eb9c8d" d="M103.996 404.467v7.966a7.976 7.976 0 0 1-7.944-8.684l1.028-11.523Z"></path><path fill="#24242b" d="m481.327 214.515-17.176-108.836a16.242 16.242 0 0 0 2.208-12.159l7.987-5.267c5.793-3.816 7.904-10.871 4.705-15.73l-9.157-13.878a9.86 9.86 0 0 0-7.619-4.259 14.038 14.038 0 0 0-8.692 2.382l-8.064 5.318a16.205 16.205 0 0 0-12.247-2.542L340.79 1.361a9 9 0 0 0-9.59.1 8.856 8.856 0 0 0-1.637 13.376l64.527 70.274a16.238 16.238 0 0 0-2.9 12.797l-31.88 21.02q-4.445-8.038-8.757-16.201l.119-12.566-.002-.015.002-.018V67.293a19.752 19.752 0 0 0-15.255-19.289l-79.55-18.838A42.673 42.673 0 0 0 203.36 70.69v40.973a21.275 21.275 0 0 0 5.841 14.756v15.161h-6.396a12.782 12.782 0 0 0-12.567 15.118l3.989 21.45a12.785 12.785 0 0 0 12.566 10.445h3.599a103.44 103.44 0 0 0 6.756 24.088L69 310.368a19.413 19.413 0 0 0-2.508-5.543l-1.125-1.707a9.5 9.5 0 0 0-13.161-2.701L4.271 332.025a9.51 9.51 0 0 0-2.702 13.161v.001l1.126 1.706a19.387 19.387 0 0 0 7.165 6.503 18.851 18.851 0 0 0 27.876 22.756l.241-.159 55.928 118.52a30.081 30.081 0 0 0 25.882 17.436q.902.05 1.795.05a30.052 30.052 0 0 0 25.878-14.503l17.12-27.792v38.346a3.5 3.5 0 0 0 7 0V396.368a3.5 3.5 0 0 0-7 0v12.565H107.5V361.71a62.265 62.265 0 0 1 16.827-42.657l24.47-16.135 63.768-23.77a364.058 364.058 0 0 0 24.9 11.578 364.329 364.329 0 0 0 35.728 12.8V508.5a3.5 3.5 0 0 0 7 0V303.66a240.122 240.122 0 0 0 60.938-24.398l10.642 3.966a13.528 13.528 0 0 0-.787 4.554V508.5a3.5 3.5 0 0 0 7 0V287.782a6.5 6.5 0 0 1 8.001-6.324l38.98 9.253a6.478 6.478 0 0 1 5 6.324V508.5a3.5 3.5 0 0 0 7 0v-78.57h28.923v78.57a3.5 3.5 0 0 0 7 0V361.71a69.18 69.18 0 0 0-35.923-60.85v-3.825a13.453 13.453 0 0 0-10.382-13.135l-38.98-9.253a13.43 13.43 0 0 0-11.49 2.544c-.051.041-.095.089-.146.13l-8.924-3.326a37.039 37.039 0 0 0 .067-6.537c-.064-1.856-.136-3.96-.136-6.128a9.499 9.499 0 0 0-12.971-8.842c-2.732 1.073-6.177 2.43-10.279 4.049a29.365 29.365 0 0 1-2.956-12.827v-4.56a101.765 101.765 0 0 0 18.026-31.27 798.247 798.247 0 0 0 18.783 27.069 14.875 14.875 0 0 0 19.52 4.172l28.82-16.64a14.885 14.885 0 0 0 4.744-21.444 904.295 904.295 0 0 1-32.376-49.445l33.574-22.142a16.08 16.08 0 0 0 6.12 2.672 16.291 16.291 0 0 0 3.279.335 15.945 15.945 0 0 0 3.85-.48l39.409 87.549a8.852 8.852 0 0 0 16.921-3.626 9.639 9.639 0 0 0-.113-1.385Zm-64.36 94.48a62.192 62.192 0 0 1 28.923 52.715v61.22h-28.923Zm40.468-246.382a7.097 7.097 0 0 1 4.307-1.247 3.013 3.013 0 0 1 2.307 1.132l9.157 13.877c.923 1.4.036 4.223-2.713 6.033l-7.08 4.67-13.054-19.799ZM334.719 10.104a1.854 1.854 0 0 1 .344-2.807 1.878 1.878 0 0 1 1.993-.015l88.678 55.79-26.396 17.405ZM344.83 173.16v-24.58h6.397a5.78 5.78 0 0 1 5.683 6.839l-3.988 21.45a5.782 5.782 0 0 1-5.684 4.724h-2.753q.34-4.185.345-8.433ZM210.36 70.69a35.7 35.7 0 0 1 35.6-35.686 35.97 35.97 0 0 1 8.293.974l39.672 9.394a244.37 244.37 0 0 1-47.451 24.058 244.314 244.314 0 0 1-36.115 10.468Zm0 16.348a251.367 251.367 0 0 0 38.578-11.056 251.595 251.595 0 0 0 54.268-28.412l18.696 4.428A233.575 233.575 0 0 1 262.965 87.5a233.77 233.77 0 0 1-52.606 14.926Zm-3.568 94.555a5.782 5.782 0 0 1-5.684-4.724l-3.988-21.45a5.78 5.78 0 0 1 5.684-6.839h6.396v24.58q0 4.218.355 8.433Zm3.567-69.93v-2.152a240.795 240.795 0 0 0 55.293-15.548 240.751 240.751 0 0 0 64.73-39.957l3.42.81a12.777 12.777 0 0 1 9.869 12.477v20.308l-114.2 37.86a14.538 14.538 0 0 1-19.112-13.798Zm133.266-16.672-.167 17.532a54.975 54.975 0 0 1-13.247-13.085ZM8.539 343.038l-1.126-1.706a2.502 2.502 0 0 1 .711-3.463l47.936-31.608a2.501 2.501 0 0 1 3.463.71l1.125 1.707a12.515 12.515 0 0 1-3.554 17.317l-31.239 20.599a12.499 12.499 0 0 1-17.316-3.556Zm156.041 72.895v40.426l-23.079 37.465a23.505 23.505 0 0 1-41.266-2.298L43.88 372.101l27.546-18.165 29.074 51.457v7.001c0 .014-.004.026-.004.04s.004.025.004.038V425a3.5 3.5 0 0 0 7 0v-9.067ZM100.5 361.71v29.455l-23.217-41.09 31.085-20.498a69.279 69.279 0 0 0-7.868 32.133Zm105.84-87.713-31.48 11.734 31.493-20.766c-.024.864-.052 1.705-.08 2.493a36.994 36.994 0 0 0 .068 6.539Zm4.22-20.517a9.487 9.487 0 0 0-1.581 1.369L33.884 370.307a11.837 11.837 0 0 1-17.29-14.811 19.604 19.604 0 0 0 2.42.168 19.365 19.365 0 0 0 10.695-3.226l31.238-20.6a19.433 19.433 0 0 0 8.52-13.393l150.627-99.322a102.962 102.962 0 0 0 12.516 19.202v.94l-19.906 13.127a9.486 9.486 0 0 0-2.144 1.088Zm21.758-5.636a29.38 29.38 0 0 1-2.66 8.692c-2.335-.922-4.553-1.796-6.585-2.596Zm40.875 48.375a357.356 357.356 0 0 1-33.025-11.95 357.28 357.28 0 0 1-26.991-12.658c-.005-1.07.048-2.597.093-3.911.065-1.913.14-4.081.14-6.37a2.417 2.417 0 0 1 .327-1.234l1.9-1.253a2.44 2.44 0 0 1 1.185.16c11.787 4.63 33.853 13.37 45.957 18.166a16.408 16.408 0 0 1 10.414 15.336Zm3.5-16.074a23.412 23.412 0 0 0-11.336-9.484 34044.48 34044.48 0 0 0-29.175-11.548 36.396 36.396 0 0 0 3.352-13.182 101.25 101.25 0 0 0 7.986 7.149 45.625 45.625 0 0 0 28.46 10.01h2.07a45.628 45.628 0 0 0 28.462-10.01c2.58-2.073 5.035-4.26 7.376-6.539a36.317 36.317 0 0 0 3.315 12.572c-8.009 3.165-17.807 7.044-29.175 11.548a23.407 23.407 0 0 0-11.335 9.484Zm59.87-21.142a2.485 2.485 0 0 1 .915-.178 2.54 2.54 0 0 1 1.406.44 2.477 2.477 0 0 1 1.092 2.065c0 2.289.075 4.457.14 6.37.047 1.358.102 2.943.093 4.016a233.96 233.96 0 0 1-60.016 24.735v-3.946a16.408 16.408 0 0 1 10.413-15.336c21.38-8.472 37.271-14.753 45.957-18.166Zm1.267-85.843a95.993 95.993 0 0 1-3.386 25.303 3.498 3.498 0 0 0-.217.8 94.735 94.735 0 0 1-19.404 36.079c-.055.054-.1.115-.152.173a96.297 96.297 0 0 1-12.541 12.106 38.605 38.605 0 0 1-24.08 8.469h-2.07a38.605 38.605 0 0 1-24.08-8.47 95.503 95.503 0 0 1-35.7-74.46v-41.795a21.124 21.124 0 0 0 8.628 1.858 21.74 21.74 0 0 0 6.847-1.117l73.061-24.222 20.858 18.722a14.4 14.4 0 0 0 12.236 3.627Zm.928-50.432a7.708 7.708 0 0 1-8.49-1.332l-17.88-16.049 10.89-3.61a62.4 62.4 0 0 0 18.79 18.26 7.865 7.865 0 0 1-3.31 2.73Zm66.178 82.333a7.886 7.886 0 0 1-2.516 11.358l-28.822 16.64a7.897 7.897 0 0 1-10.355-2.225 791.24 791.24 0 0 1-21.775-31.614 102.416 102.416 0 0 0 2.202-10.627h3.568a12.785 12.785 0 0 0 12.567-10.445l3.988-21.45a12.782 12.782 0 0 0-12.566-15.118h-6.397V127.17a14.575 14.575 0 0 0 5.027-7.496c.01-.03.015-.062.024-.093a14.942 14.942 0 0 0 .458-2.45q2.379 4.365 4.796 8.682c.009.015.014.03.023.045l.005.005c2.903 5.2 5.836 10.35 8.796 15.405q3.254 5.566 6.614 11.103c.017.028.027.059.045.087.007.01.017.017.024.028a911.537 911.537 0 0 0 34.294 52.576ZM374.658 145.6q-2.351-3.928-4.657-7.869a873.49 873.49 0 0 1-7.265-12.678l31.31-20.644 13.053 19.796Zm44.73-20.335a9.07 9.07 0 0 1-4.776-2.652l-.01-.012a9.22 9.22 0 0 1-1.007-1.26L399.38 99.784a9.157 9.157 0 0 1-.84-1.599l-.045-.121a9.155 9.155 0 0 1 3.484-10.944l29.36-19.36a9.08 9.08 0 0 1 5.014-1.513 9.231 9.231 0 0 1 1.858.19 9.077 9.077 0 0 1 4.604 2.47 9.223 9.223 0 0 1 1.19 1.453l14.214 21.557a9.151 9.151 0 0 1 .756 1.418c.006.017.015.032.022.048a9.151 9.151 0 0 1-3.379 11.199l-29.36 19.36a9.077 9.077 0 0 1-6.87 1.323Zm54.218 92.171a1.853 1.853 0 0 1-2.705-.783l-39.488-87.725 26.557-17.512 16.435 104.14a2.426 2.426 0 0 1 .036.344 1.855 1.855 0 0 1-.835 1.537ZM303.44 190.443a167.619 167.619 0 0 0-12.357-1.499c.02-.3.046-.6.046-.904v-8.519a3.5 3.5 0 1 0-7 0v8.519a7.113 7.113 0 1 1-14.226 0v-8.519a3.5 3.5 0 1 0-7 0v8.519c0 .315.027.624.048.934-4.068.347-8.104.838-12.037 1.467a7.04 7.04 0 0 0-5.983 6.999v10.71a7.089 7.089 0 0 0 7.111 7.083 7.244 7.244 0 0 0 .993-.068 172.857 172.857 0 0 1 24.299-1.715h.19a172.387 172.387 0 0 1 23.772 1.705 7.084 7.084 0 0 0 8.105-7.005v-10.71a7.032 7.032 0 0 0-5.96-6.997ZM302.4 208.15l-.118.075a178.124 178.124 0 0 0-50.221.008c-.02.003-.064.011-.131-.083v-10.71l.073-.084a158.86 158.86 0 0 1 13.251-1.532 14.09 14.09 0 0 0 23.537-.025c4.49.325 9.035.84 13.549 1.557.004 0 .056.083.06.084Zm-48.07-57.706a3.5 3.5 0 0 0 2.656-6.476 32.122 32.122 0 0 0-12.893-2.378 31.717 31.717 0 0 0-11.281 2.378 3.5 3.5 0 1 0 2.658 6.476 24.784 24.784 0 0 1 18.86 0Zm66.888-6.476a31.78 31.78 0 0 0-24.175 0 3.5 3.5 0 1 0 2.658 6.476 24.73 24.73 0 0 1 8.801-1.856 25.034 25.034 0 0 1 10.06 1.856 3.5 3.5 0 0 0 2.656-6.476Zm-72.819 19.55v-6.848a3.5 3.5 0 0 0-7 0v6.847a3.5 3.5 0 0 0 7 0Zm38.047 57.684a25.063 25.063 0 0 1-10.06 1.857 24.726 24.726 0 0 1-8.801-1.856 3.5 3.5 0 0 0-2.658 6.475 31.713 31.713 0 0 0 11.282 2.379q.41.01.818.01a31.668 31.668 0 0 0 12.076-2.388 3.5 3.5 0 0 0-2.657-6.477Zm22.685-68.032a3.5 3.5 0 0 0-3.5 3.5v6.847a3.5 3.5 0 0 0 7 0v-6.847a3.5 3.5 0 0 0-3.5-3.5Z"></path></svg>