<?xml version="1.0" encoding="UTF-8"?>
<svg id="Livello_1" xmlns="http://www.w3.org/2000/svg" viewBox="0 0 141.73 141.73">
  <defs>
    <style>.cls-1{fill:#f8c300;}.cls-2{fill:#ec6321;}.cls-3{fill:#f59d10;}.cls-4{fill:#e7b818;}.cls-5{fill:#e5351c;}.cls-6{fill:#ae5d57;}.cls-7{fill:#c21724;}.cls-8{fill:#ca9817;}.cls-9{fill:#e01932;}.cls-10{fill:#d70560;}.cls-11{fill:#e0bf78;}.cls-12{fill:#d7af19;}.cls-13{fill:#0f659a;}.cls-14{fill:#417f3d;}.cls-15{fill:#1b4467;}.cls-16{fill:#3dbae2;}.cls-17{fill:#a4183d;}.cls-18{fill:#94c356;}.cls-19{fill:#2993d1;}.cls-20{fill:#63b232;}.cls-21{fill:#3d3d3c;}.cls-22{fill:#2c9942;}.cls-23{fill:#5f8d44;}.cls-24{fill:#774542;}</style>
  </defs>
  <g>
    <rect class="cls-21" x="19.2" y="77.93" width=".89" height="7.11" />
    <polygon class="cls-21" points="22.66 79.56 25.51 85.04 26.41 85.04 26.41 77.93 25.52 77.93 25.52 83.43 22.66 77.93 21.76 77.93 21.76 85.04 22.66 85.04 22.66 79.56" />
    <polygon class="cls-21" points="27.44 78.7 29.3 78.7 29.3 85.04 30.2 85.04 30.2 78.7 32.07 78.7 32.07 77.93 27.44 77.93 27.44 78.7" />
    <polygon class="cls-21" points="37.04 84.27 34.11 84.27 34.11 81.75 36.63 81.75 36.63 80.99 34.11 80.99 34.11 78.7 36.99 78.7 36.99 77.93 33.22 77.93 33.22 85.04 37.04 85.04 37.04 84.27" />
    <path class="cls-21" d="M42.11,81.22c.19-.33,.29-.71,.29-1.15,0-.7-.18-1.23-.54-1.59-.36-.36-.89-.54-1.58-.54h-1.99v7.11h.9v-2.88h1.25l1.26,2.88h.96v-.06l-1.38-3.02c.35-.17,.63-.41,.82-.74Zm-1.84,.18h-1.08v-2.7h1.07c.83,0,1.24,.46,1.24,1.37,0,.4-.11,.73-.33,.97-.22,.24-.52,.36-.9,.36Z" />
    <polygon class="cls-21" points="48.34 85.04 48.34 77.93 47.45 77.93 47.45 83.43 44.59 77.93 43.7 77.93 43.7 85.04 44.59 85.04 44.59 79.56 47.44 85.04 48.34 85.04" />
    <path class="cls-21" d="M50.99,83.18h2.4l.56,1.86h.92l-2.29-7.11h-.77l-2.29,7.11h.92l.55-1.86Zm1.2-4l.97,3.23h-1.94l.97-3.23Z" />
    <polygon class="cls-21" points="54.84 78.7 56.7 78.7 56.7 85.04 57.6 85.04 57.6 78.7 59.47 78.7 59.47 77.93 54.84 77.93 54.84 78.7" />
    <rect class="cls-21" x="60.66" y="77.93" width=".89" height="7.11" />
    <path class="cls-21" d="M65.46,85.14c.76,0,1.35-.26,1.76-.79,.41-.52,.62-1.27,.62-2.24v-1.29c0-.96-.22-1.69-.64-2.21-.42-.52-1-.77-1.75-.77s-1.34,.27-1.76,.81c-.42,.54-.63,1.28-.63,2.23v1.34c.02,.93,.24,1.65,.66,2.16,.42,.51,1,.76,1.74,.76Zm-1.51-4.3c0-.72,.13-1.27,.38-1.64,.25-.37,.62-.56,1.12-.56s.88,.18,1.13,.55c.25,.37,.37,.92,.37,1.68v1.33c0,.73-.14,1.26-.38,1.62-.24,.35-.61,.53-1.11,.53s-.88-.19-1.13-.57c-.25-.38-.38-.93-.38-1.66v-1.27Z" />
    <polygon class="cls-21" points="70.22 79.56 73.07 85.04 73.97 85.04 73.97 77.93 73.08 77.93 73.08 83.43 70.22 77.93 69.33 77.93 69.33 85.04 70.22 85.04 70.22 79.56" />
    <path class="cls-21" d="M79.58,85.04h.92l-2.29-7.11h-.77l-2.29,7.11h.92l.55-1.86h2.4l.56,1.86Zm-2.73-2.63l.97-3.23,.97,3.23h-1.94Z" />
    <polygon class="cls-21" points="85.26 84.27 82.47 84.27 82.47 77.93 81.57 77.93 81.57 85.04 85.26 85.04 85.26 84.27" />
    <polygon class="cls-21" points="90.31 81.5 88.86 77.93 87.84 77.93 89.86 82.39 89.86 85.04 90.76 85.04 90.76 82.39 92.78 77.93 91.77 77.93 90.31 81.5" />
    <polygon class="cls-21" points="97.63 84.27 94.7 84.27 94.7 81.75 97.22 81.75 97.22 80.99 94.7 80.99 94.7 78.7 97.58 78.7 97.58 77.93 93.81 77.93 93.81 85.04 97.63 85.04 97.63 84.27" />
    <path class="cls-21" d="M99.79,83.18h2.4l.56,1.86h.92l-2.29-7.11h-.77l-2.29,7.11h.92l.55-1.86Zm1.2-4l.97,3.23h-1.94l.97-3.23Z" />
    <path class="cls-21" d="M105.64,82.16h1.25l1.26,2.88h.96v-.06l-1.38-3.02c.35-.17,.63-.41,.82-.74,.19-.33,.29-.71,.29-1.15,0-.7-.18-1.23-.54-1.59-.36-.36-.89-.54-1.58-.54h-1.99v7.11h.9v-2.88Zm0-3.47h1.07c.83,0,1.24,.46,1.24,1.37,0,.4-.11,.73-.33,.97-.22,.24-.52,.36-.9,.36h-1.08v-2.7Z" />
    <path class="cls-21" d="M114.43,85.14c.76,0,1.35-.26,1.76-.79,.41-.52,.62-1.27,.62-2.24v-1.29c0-.96-.22-1.69-.64-2.21-.42-.52-1-.77-1.75-.77s-1.34,.27-1.76,.81c-.42,.54-.63,1.28-.63,2.23v1.34c.02,.93,.24,1.65,.66,2.16,.42,.51,1,.76,1.74,.76Zm-1.51-4.3c0-.72,.13-1.27,.38-1.64,.25-.37,.62-.56,1.12-.56s.88,.18,1.13,.55c.25,.37,.37,.92,.37,1.68v1.33c0,.73-.14,1.26-.38,1.62-.24,.35-.61,.53-1.11,.53s-.88-.19-1.13-.57c-.25-.38-.38-.93-.38-1.66v-1.27Z" />
    <polygon class="cls-21" points="119.19 81.9 121.59 81.9 121.59 81.13 119.19 81.13 119.19 78.7 122 78.7 122 77.93 118.3 77.93 118.3 85.04 119.19 85.04 119.19 81.9" />
    <g>
      <path class="cls-21" d="M31.02,89.4h-2.72c-.29,0-.5,.07-.62,.2s-.22,.24-.27,.32l-4.48,7.58-4.48-7.58c-.03-.08-.12-.19-.27-.32s-.35-.2-.62-.2h-2.75c-.17,0-.32,.06-.45,.17-.13,.11-.19,.26-.19,.43v15.6c0,.18,.06,.32,.19,.43,.13,.11,.28,.17,.45,.17h3.05c.19,0,.34-.06,.46-.17,.12-.11,.18-.26,.18-.43v-9l2.88,5.02c.08,.14,.19,.27,.33,.38,.14,.11,.32,.17,.56,.17h1.32c.24,0,.42-.06,.56-.17,.14-.11,.24-.24,.31-.38l2.87-5.02v9c0,.18,.06,.32,.19,.43,.13,.11,.28,.17,.47,.17h3.03c.19,0,.34-.06,.47-.17,.13-.11,.19-.26,.19-.43v-15.6c0-.18-.06-.32-.19-.43-.13-.11-.28-.17-.47-.17Z" />
      <path class="cls-21" d="M40.09,89.4h-3.41c-.19,0-.34,.06-.46,.17-.12,.11-.18,.26-.18,.43v15.6c0,.18,.06,.32,.18,.43,.12,.11,.27,.17,.46,.17h3.41c.19,0,.34-.06,.46-.17,.12-.11,.18-.26,.18-.43v-15.6c0-.18-.06-.32-.18-.43-.12-.11-.27-.17-.46-.17Z" />
      <path class="cls-21" d="M57.42,102.58h-7.68v-12.58c0-.18-.06-.32-.19-.43-.13-.11-.28-.17-.45-.17h-3.36c-.19,0-.34,.06-.46,.17-.12,.11-.18,.26-.18,.43v15.6c0,.18,.06,.32,.18,.43,.12,.11,.27,.17,.46,.17h11.68c.19,0,.34-.06,.47-.17,.13-.11,.19-.26,.19-.43v-2.4c0-.18-.06-.32-.19-.44-.13-.12-.28-.18-.47-.18Z" />
      <path class="cls-21" d="M73.94,102.58h-7.68v-12.58c0-.18-.06-.32-.19-.43-.13-.11-.28-.17-.45-.17h-3.36c-.19,0-.34,.06-.46,.17-.12,.11-.18,.26-.18,.43v15.6c0,.18,.06,.32,.18,.43,.12,.11,.27,.17,.46,.17h11.68c.19,0,.34-.06,.47-.17,.13-.11,.19-.26,.19-.43v-2.4c0-.18-.06-.32-.19-.44-.13-.12-.28-.18-.47-.18Z" />
      <path class="cls-21" d="M90.87,102.74h-8.32v-3.34h7.56c.19,0,.34-.06,.46-.18,.12-.12,.18-.26,.18-.42v-2.09c0-.18-.06-.32-.18-.44-.12-.12-.27-.18-.46-.18h-7.56v-3.24h8.12c.19,0,.34-.06,.46-.17,.12-.11,.18-.26,.18-.43v-2.26c0-.18-.06-.32-.18-.43-.12-.11-.27-.17-.46-.17h-11.88c-.19,0-.34,.06-.46,.17-.12,.11-.18,.26-.18,.43v15.6c0,.18,.06,.32,.18,.43,.12,.11,.27,.17,.46,.17h12.09c.19,0,.34-.06,.46-.17,.12-.11,.18-.26,.18-.43v-2.26c0-.18-.06-.32-.18-.43-.12-.11-.27-.17-.46-.17Z" />
      <path class="cls-21" d="M109.16,89.4h-13.69c-.19,0-.34,.06-.46,.17-.12,.11-.18,.26-.18,.43v2.57c0,.16,.06,.3,.18,.42,.12,.12,.27,.18,.46,.18h4.53v12.43c0,.18,.06,.32,.18,.43,.12,.11,.27,.17,.46,.17h3.36c.19,0,.34-.06,.46-.17,.12-.11,.18-.26,.18-.43v-12.43h4.53c.19,0,.34-.06,.46-.18,.12-.12,.18-.26,.18-.42v-2.57c0-.18-.06-.32-.18-.43-.12-.11-.27-.17-.46-.17Z" />
      <path class="cls-21" d="M126.9,98.75c-.44-.65-1.14-1.18-2.09-1.58-.95-.41-2.2-.75-3.74-1.02-.93-.19-1.67-.38-2.2-.55s-.92-.38-1.14-.62c-.23-.24-.34-.52-.34-.84,0-.51,.21-.89,.62-1.14s1-.37,1.74-.37c.7,0,1.26,.13,1.69,.4,.43,.26,.7,.57,.8,.92,.1,.14,.22,.25,.36,.31,.14,.06,.3,.1,.48,.1h3.36c.15,0,.28-.05,.38-.16,.1-.1,.15-.22,.15-.35-.02-.51-.18-1.04-.5-1.57-.31-.54-.78-1.04-1.39-1.52-.61-.48-1.36-.86-2.25-1.15s-1.92-.43-3.09-.43c-1.44,0-2.69,.22-3.74,.65-1.05,.43-1.87,1.03-2.46,1.8-.59,.77-.88,1.64-.88,2.62s.24,1.82,.71,2.48c.47,.67,1.17,1.2,2.07,1.61s2.01,.74,3.3,1c1,.19,1.8,.38,2.4,.56,.6,.18,1.04,.39,1.31,.62,.27,.23,.41,.52,.41,.88,0,.5-.25,.89-.75,1.18s-1.24,.43-2.23,.43c-.59,0-1.09-.07-1.49-.2-.4-.14-.72-.32-.97-.54-.25-.22-.44-.46-.57-.7-.1-.13-.22-.23-.34-.31-.13-.08-.31-.12-.55-.12h-3.21c-.15,0-.28,.05-.39,.16-.11,.1-.17,.22-.17,.35,.03,.83,.34,1.62,.92,2.35,.58,.74,1.42,1.33,2.54,1.79,1.12,.46,2.53,.68,4.22,.68,1.49,0,2.82-.21,3.97-.62s2.06-1.02,2.71-1.81,.98-1.73,.98-2.82c0-.98-.22-1.79-.66-2.44Z" />
    </g>
  </g>
  <g>
    <path class="cls-21" d="M46.06,126.82c0-4.84,7.42-5.39,7.42-9.61,0-1.67-1.23-2.99-3.24-2.99-2.23,0-3.38,1.99-3.38,1.99l-.64-.44s1.25-2.39,4.04-2.39,4.12,1.83,4.12,3.82c0,4.76-7.41,5.35-7.41,9.55h7.62v.8h-8.48c-.04-.26-.06-.5-.06-.74Z" />
    <path class="cls-21" d="M74.41,126.82c0-4.84,7.42-5.39,7.42-9.61,0-1.67-1.23-2.99-3.24-2.99-2.23,0-3.38,1.99-3.38,1.99l-.64-.44s1.25-2.39,4.04-2.39,4.12,1.83,4.12,3.82c0,4.76-7.41,5.35-7.41,9.55h7.62v.8h-8.48c-.04-.26-.06-.5-.06-.74Z" />
    <path class="cls-21" d="M87.55,124.99s1.45,1.73,3.74,1.73c1.77,0,3.48-1.37,3.48-3.42,0-2.17-1.83-3.32-3.72-3.32h-.96l-.24-.6,3.9-4.56c.3-.36,.62-.64,.62-.64v-.04s-.38,.04-1.08,.04h-5.71v-.8h7.98v.6l-4.5,5.2c1.67,0,4.6,.84,4.6,4.12,0,2.39-2.01,4.26-4.42,4.26-2.65,0-4.34-1.93-4.34-1.93l.64-.64Z" />
    <g>
      <path class="cls-20" d="M61.06,118.45c.18-.3,.39-.57,.63-.82l-2.08-2.28c-.52,.5-.97,1.08-1.32,1.72l2.77,1.38Z" />
      <path class="cls-4" d="M66.16,116.84c.32,.14,.61,.33,.87,.55l2.09-2.28c-.55-.47-1.17-.87-1.85-1.15l-1.11,2.89Z" />
      <path class="cls-7" d="M70.94,117.53l-2.77,1.38c.13,.31,.23,.64,.28,.98l3.08-.29c-.09-.73-.29-1.42-.59-2.07" />
      <path class="cls-22" d="M67.98,118.51l2.77-1.38c-.34-.64-.78-1.21-1.29-1.72l-2.09,2.28c.24,.24,.44,.52,.61,.82" />
      <path class="cls-14" d="M60.51,120.47c0-.06,0-.12,0-.19l-3.08-.28c0,.15-.02,.31-.02,.46,0,.59,.07,1.16,.21,1.71l2.97-.85c-.06-.28-.09-.56-.09-.86" />
      <path class="cls-1" d="M67.59,123c-.22,.27-.47,.5-.75,.71l1.63,2.63c.6-.41,1.14-.91,1.59-1.48l-2.47-1.86Z" />
      <path class="cls-5" d="M68.5,120.47c0,.29-.03,.58-.09,.85l2.97,.85c.14-.55,.21-1.12,.21-1.7,0-.15,0-.29-.01-.43l-3.08,.29s0,.1,0,.14" />
      <path class="cls-3" d="M61.47,123.06l-2.46,1.87c.46,.56,1,1.05,1.61,1.46l1.62-2.63c-.29-.2-.55-.43-.77-.7" />
      <path class="cls-19" d="M60.56,119.84c.06-.35,.16-.68,.29-.99l-2.77-1.38c-.31,.65-.51,1.35-.61,2.09l3.08,.28Z" />
      <path class="cls-17" d="M68.09,126.58l-1.62-2.63c-.29,.17-.61,.3-.95,.39l.57,3.04c.71-.16,1.38-.44,2-.8" />
      <path class="cls-16" d="M68.29,121.75c-.11,.32-.25,.61-.43,.89l2.47,1.86c.4-.58,.72-1.21,.93-1.9l-2.97-.85Z" />
      <path class="cls-2" d="M65.08,124.42c-.19,.03-.38,.04-.58,.04-.16,0-.31,0-.46-.03l-.57,3.04c.34,.05,.68,.08,1.04,.08,.39,0,.77-.03,1.15-.09l-.57-3.04Z" />
      <path class="cls-9" d="M64.76,116.49c.34,.02,.67,.09,.99,.19l1.11-2.88c-.66-.23-1.37-.37-2.1-.4v3.09Z" />
      <path class="cls-10" d="M63.6,124.36c-.35-.08-.68-.21-.98-.37l-1.63,2.63c.63,.36,1.31,.62,2.03,.78l.57-3.04Z" />
      <path class="cls-15" d="M63.31,116.66c.32-.1,.66-.16,1.01-.18v-3.09c-.74,.02-1.46,.16-2.13,.39l1.12,2.88Z" />
      <path class="cls-8" d="M61.2,122.7c-.2-.29-.36-.61-.47-.94l-2.97,.85c.22,.71,.56,1.37,.98,1.96l2.46-1.87Z" />
      <path class="cls-13" d="M62.03,117.34c.26-.21,.55-.38,.86-.52l-1.12-2.88c-.67,.28-1.28,.66-1.82,1.12l2.08,2.28Z" />
    </g>
  </g>
  <g>
    <path class="cls-18" d="M70.89,37.77c-.55,0-1,.45-1,1v31.1c0,.55,.45,1,1,1s1-.45,1-1v-31.1c0-.55-.44-1-1-1Z" />
    <path class="cls-18" d="M85.42,37.45c-.98,8.45-2.79,12.48-4.4,16.03-1.76,3.91-3.29,7.32-3.45,15.81,0,.46-.32,.86-.77,.96h-.02c-.64,.14-1.23-.35-1.22-1,.18-8.92,1.85-12.65,3.63-16.59,1.62-3.59,3.29-7.3,4.23-15.44,.06-.55,.55-.95,1.11-.88,.55,.06,.94,.56,.88,1.11Z" />
    <path class="cls-18" d="M58.99,68.26h-.02c-.28-.14-.47-.41-.54-.71-.78-3.37-2.84-5.12-5.47-7.34-1.73-1.47-3.7-3.13-5.52-5.53-.33-.44-.25-1.07,.19-1.4,.44-.34,1.07-.25,1.4,.19,1.69,2.22,3.49,3.75,5.22,5.22,2.75,2.33,5.21,4.4,6.12,8.43,.18,.81-.63,1.49-1.38,1.14Z" />
    <path class="cls-18" d="M64.89,70.23h-.02c-.43-.1-.74-.48-.77-.92-.84-13.55-2.08-15.28-6.74-21.81-.8-1.12-1.7-2.38-2.71-3.85-.31-.45-.19-1.07,.26-1.39,.46-.31,1.08-.19,1.39,.26,1.01,1.46,1.9,2.71,2.69,3.82,4.81,6.74,6.24,8.72,7.11,22.86,.04,.66-.57,1.17-1.21,1.03Z" />
    <path class="cls-18" d="M97.36,43.11c-.14,6.82-3.62,10.18-7,13.43-3,2.89-5.86,5.65-6.74,10.84-.05,.32-.25,.6-.54,.74h-.02c-.72,.36-1.55-.26-1.41-1.04,1.01-5.89,4.33-9.09,7.32-11.97,3.23-3.1,6.27-6.04,6.39-12.03,0-.55,.46-.98,1-.98h.02c.55,.01,.99,.47,.98,1.02Z" />
    <path class="cls-12" d="M83.32,17.57c-.87-1.62-3.32-1.02-3.36,.82-.05,2.92,1.02,9.65,.96,14.47-.12,9.1-2.5,13.24,1.55,14.28,4.75,1.22,5.75-4.81,5.14-13.9-.35-5.21-2.57-12.48-4.28-15.67Z" />
    <path class="cls-24" d="M44.63,37.69c2.08-.42,.72,5.91,3.26,9.78,1.12,1.7,2.44-1.55,3.29,2.17,.99,4.33,6.61,7.96,3.29,10.6-3.54,2.82-11.95-4.42-11.95-17.72,0-2.62,.78-4.56,2.11-4.83Z" />
    <path class="cls-23" d="M93.12,43.83c-.58-1.89-2.73-8-1.24-8.75,1.72-.87-2.61-9.23-.17-10.31,2.61-1.16,4.02,7.29,5.91,8.32,1.92,1.04,1.98,6.98,.84,10.57-.26,.81,.82,.22,.54,2.32-.45,3.32-4.59,9.09-7.72,8.95-2.55-.12,1.18-5.22,.59-8.01-.72-3.4,1.46-2.36,1.24-3.09Z" />
    <path class="cls-6" d="M73.66,16.25c-.54-1.39-1.66-2.08-2.79-2.08s-2.24,.69-2.78,2.08c-1.29,3.34-2.89,28.38-2.89,31.94,0,3.13,2.54,5.67,5.67,5.67s5.67-2.54,5.67-5.67c0-3.56-1.59-28.6-2.88-31.94Z" />
    <path class="cls-11" d="M59.55,37.63c.6-.9,.95-1.98,.95-3.14,0-1.45-.55-2.77-1.44-3.77,1.18-.91,1.95-2.32,1.95-3.92,0-.99-.3-1.92-.8-2.69,1.06-.6,1.79-1.72,1.81-3.03,.02-1.96-1.55-3.56-3.5-3.58s-3.56,1.55-3.58,3.5c0,.33,.05,.64,.13,.94-2.26,.46-3.97,2.46-3.97,4.86,0,1.04,.32,2.01,.87,2.8-1.67,.99-2.8,2.8-2.8,4.88s1.13,3.91,2.82,4.89c-.6,.9-.95,1.98-.95,3.14,0,3.13,2.54,5.67,5.67,5.67s5.67-2.54,5.67-5.67c0-2.09-1.13-3.91-2.82-4.89Z" />
  </g>
</svg>