<svg width="17" height="17" viewBox="0 0 17 17" fill="none" xmlns="http://www.w3.org/2000/svg">
<path d="M0.578636 11.2108L0 16.0518L2.09992 16.2632L2.67856 11.4222L0.578636 11.2108Z" fill="#521E1B"/>
<path d="M11.0233 8.83233L11.3497 8.84448V10.4135H11.9113V8.84448L12.2187 8.8324C14.2723 8.76886 15.9761 7.20104 16.0232 5.33675L16.0423 4.86981C16.0437 4.83412 16.037 4.79856 16.0227 4.76535C16.0084 4.73214 15.9868 4.702 15.9592 4.67682C15.9316 4.65164 15.8986 4.63196 15.8624 4.61902C15.8261 4.60608 15.7873 4.60015 15.7484 4.6016L15.2473 4.62108C13.8219 4.66566 12.5532 5.45084 11.9113 6.55842V5.63511L12.1681 5.37047C13.5713 3.99292 13.5669 1.77597 12.1637 0.427171L11.8168 0.0832351C11.7904 0.0569863 11.7583 0.0360421 11.7226 0.0217181C11.6869 0.00739419 11.6483 0 11.6094 0C11.5704 0 11.5319 0.00739419 11.4962 0.0217181C11.4605 0.0360421 11.4284 0.0569863 11.4019 0.0832351L11.0565 0.427503C9.66896 1.79077 9.67726 4.0082 11.0633 5.36896L11.3497 5.64634V6.55882C10.6677 5.45066 9.4232 4.6657 7.99933 4.62115L7.48375 4.6016C7.44463 4.6002 7.40561 4.60616 7.36909 4.6191C7.33257 4.63204 7.29931 4.65169 7.27137 4.67686C7.24376 4.70202 7.22214 4.73215 7.20784 4.76536C7.19355 4.79857 7.18691 4.83413 7.18833 4.86981L7.2132 5.33675C7.26026 7.20104 8.97193 8.76886 11.0233 8.83233ZM15.7431 13.5217L15.7363 13.5242L12.8911 14.5058C12.9094 14.649 12.91 14.7935 12.893 14.9368C12.889 14.9705 12.8778 15.003 12.8601 15.0327C12.8423 15.0624 12.8184 15.0885 12.7896 15.1097C12.7608 15.1309 12.7278 15.1467 12.6924 15.1561C12.657 15.1656 12.6199 15.1685 12.5832 15.1649L8.59856 14.7636C8.56168 14.7601 8.5259 14.75 8.49329 14.7338C8.46068 14.7176 8.43189 14.6957 8.40858 14.6692C8.38526 14.6428 8.36788 14.6124 8.35744 14.5797C8.347 14.5471 8.34371 14.5129 8.34775 14.479C8.3518 14.4452 8.3631 14.4125 8.381 14.3827C8.3989 14.3529 8.42306 14.3267 8.45207 14.3055C8.48108 14.2843 8.51438 14.2686 8.55003 14.2593C8.58569 14.25 8.623 14.2472 8.65982 14.2512L12.3397 14.6218C12.3124 14.2946 12.1615 13.9864 11.913 13.7505C11.6645 13.5145 11.3341 13.3655 10.9787 13.3293L8.55459 13.0852C8.09872 13.0386 7.65909 12.9026 7.26551 12.6865C7.26178 12.6844 7.25801 12.6824 7.25432 12.6802C7.2406 12.6726 7.22668 12.6651 7.21304 12.6572L6.97635 12.521C6.4026 12.1894 5.74182 12.0062 5.06394 11.991C4.38606 11.9757 3.7163 12.1289 3.12553 12.4344L2.73511 15.6994L3.19324 15.5168C3.62312 15.3445 4.10914 15.3324 4.54859 15.4829L8.57738 16.8554C9.3621 17.0656 10.1992 17.0428 10.9689 16.7904L17 13.8211C16.8537 13.6536 16.6522 13.5339 16.4257 13.48C16.1993 13.426 15.9598 13.4407 15.7431 13.5217Z" fill="#521E1B"/>
<path d="M14.0315 11.5737C13.6914 11.5075 13.3366 11.3539 12.961 11.1911C12.4675 10.9774 11.9082 10.7351 11.3065 10.6675C10.6004 10.5882 9.92598 10.774 9.27339 10.9536C8.97252 11.0364 8.66181 11.122 8.35444 11.1793C7.9799 11.2493 7.77438 11.8995 7.70679 12.3228C7.98996 12.4558 8.29706 12.5406 8.61319 12.5731L11.0373 12.8173C11.4125 12.8553 11.7695 12.9857 12.0707 13.1945C12.3718 13.4033 12.606 13.683 12.7483 14.0038L15.5141 13.0496C15.5014 12.9128 15.4275 12.7387 15.3003 12.5513C14.9852 12.0871 14.4159 11.6486 14.0315 11.5737Z" fill="#521E1B"/>
</svg>
