<?xml version="1.0" encoding="utf-8"?>
<!-- Generator: Adobe Illustrator 23.0.6, SVG Export Plug-In . SVG Version: 6.00 Build 0)  -->
<svg version="1.1" xmlns="http://www.w3.org/2000/svg" xmlns:xlink="http://www.w3.org/1999/xlink" x="0px" y="0px"
	 viewBox="0 0 512 512" style="enable-background:new 0 0 512 512;" xml:space="preserve">
<style type="text/css">
	.st0{display:none;}
	.st1{display:inline;}
	.st2{fill:#65483D;}
	.st3{fill:#175CA5;}
	.st4{fill:#C48852;}
	.st5{fill:#B47744;}
	.st6{fill:#855F58;}
	.st7{fill:#3F3A39;}
	.st8{fill:#E0BD9A;}
	.st9{fill:#479E4A;}
	.st10{fill:#A88973;}
	.st11{fill:#2970B1;}
	.st12{fill:#668C51;}
	.st13{fill:#EAF3EA;}
	.st14{fill:#F0F8F1;}
</style>
<g id="Layer_1" class="st0">
	<path class="st1" d="M50.3,505c-9.6-2.8-18.1-7.2-22.4-16.8c-2-4.5-3.6-9.5-3.6-14.4c-0.3-40.5-0.2-81.1-0.2-121.6
		c0-0.6,0.1-1.2,0.2-2.1c20.5,0,40.7,0,61.6,0c0,30.7,0,61.4,0,92.5c114,0,227.4,0,341.4,0c0-30.7,0-61.5,0-92.5
		c20.8,0,41.1,0,62.2,0c0,1.8,0,3.6,0,5.5c0,37.1,0,74.3,0,111.4c0,22.4-5.4,30.1-26.2,37.9C325.6,505,188,505,50.3,505z"/>
	<path class="st1" d="M303.3,163.7c0,2.7,0,4.6,0,6.6c0,63.8,0,127.6,0,191.4c0,13.6-5.6,19.2-19,19.2c-18.7,0-37.5,0-56.2,0
		c-11.9,0-17.8-6-17.9-17.9c0-64.3,0-128.6,0-192.8c0-1.9,0-3.8,0-6.4c-2,0-3.7,0-5.4,0c-18.6,0-37.1,0.1-55.7-0.1
		c-11.8-0.1-19.2-10.2-15.3-20.7c0.9-2.4,2.4-4.6,4.1-6.5c35.3-40.4,70.5-80.8,105.9-121.1c8.1-9.2,17.9-9.2,26.1,0.1
		c35.2,40.2,70.4,80.5,105.6,120.7c4.7,5.4,7,11.3,3.9,18.2c-3.2,7-9.2,9.4-16.6,9.3c-17.9-0.1-35.9,0-53.8,0
		C307.3,163.7,305.6,163.7,303.3,163.7z"/>
</g>
<g id="Layer_2" class="st0">
	<path class="st1" d="M15.7,507c-0.8-0.5-1.6-1-2.4-1.5c-6.3-3.4-9.6-9.9-8.1-16.3c1.6-6.8,7.2-11.4,14.5-11.6c1.4-0.1,2.9,0,4.8,0
		c0-67.8,0-135.1,0-202.7c153.8,0,307.1,0,460.8,0c0,67.6,0,135,0,202.7c1.8,0,3,0,4.3,0c7.7,0.2,13.3,4.6,15,11.7
		c1.5,6.5-1.9,13.1-8.5,16.5c-0.7,0.4-1.3,0.8-1.9,1.2C334.6,507,175.1,507,15.7,507z M426.5,383.9c0-21.2,0-42.5,0-63.7
		c0-10.2-6-16.1-16.2-16.1c-20.7,0-41.5,0-62.2,0c-10.4,0-16.4,5.9-16.4,16.5c-0.1,42-0.1,84,0,126c0,10.5,6,16.4,16.5,16.4
		c20.6,0,41.2,0,61.8,0c10.8,0,16.6-5.9,16.6-16.7C426.5,425.4,426.5,404.7,426.5,383.9z M83.3,383.5c0,21.1,0,42.1,0,63.2
		c0,10.1,6,16.1,16.2,16.1c20.7,0,41.5,0,62.2,0c10.4,0,16.4-6,16.4-16.5c0.1-42,0.1-84,0-126c0-10.5-6-16.4-16.5-16.4
		c-20.6,0-41.2,0-61.8,0c-10.8,0-16.6,5.9-16.6,16.7C83.3,341.7,83.3,362.6,83.3,383.5z M302.2,383.4c0-20.9,0-41.8,0-62.7
		c0-11-5.7-16.7-16.6-16.7c-20.4,0-40.8,0-61.3,0c-11.2,0-16.8,5.6-16.8,16.9c0,41.7,0,83.3,0,125c0,11.3,5.6,16.9,16.8,16.9
		c20.3,0,40.5,0,60.8,0c11.5,0,17-5.6,17-17.2C302.2,424.9,302.2,404.2,302.2,383.4z"/>
	<path class="st1" d="M4.9,201.3c166.9,0,333.2,0,499.8,0c0,10.7,0.5,21.3-0.2,31.8c-0.4,6.9-6.8,11.8-13.9,12.1
		c-1.5,0.1-2.9,0-4.4,0c-154.2,0-308.4,0-462.6,0c-13.5,0-18.7-5.1-18.7-18.6C4.9,218.3,4.9,210,4.9,201.3z"/>
	<path class="st1" d="M151.8,171.5c-49,0-97.6,0-146.5,0c-2.1-22.3,1.4-43.1,16.2-60.9c3.1-3.7,6.9-6.9,10.3-10.4
		c2.2-2.3,4-2.2,6.7-0.3c24.6,17.5,55.2,17.4,80-0.1c2.5-1.7,4-1.8,6.3,0.1c16.2,13.6,25.3,30.9,26.9,52
		C152.2,158.2,151.8,164.5,151.8,171.5z"/>
	<path class="st1" d="M328.4,171.5c-49.2,0-97.8,0-146.7,0c-2.7-28.5,4.4-53,27-71.9c2.2-1.8,3.7-1.6,5.9,0
		c25.3,17.7,55.1,17.7,80.4,0c2.6-1.8,4.1-1.5,6.3,0.4c17.2,14.7,26.4,33.3,27,55.9C328.5,160.9,328.4,166,328.4,171.5z"/>
	<path class="st1" d="M504.9,171.5c-49.3,0-97.9,0-146.6,0c-2.7-28.3,4.3-52.8,26.7-71.6c2.2-1.8,3.8-2.1,6.3-0.3
		c25,17.7,54.9,17.6,80.4-0.1c2.3-1.6,3.8-1.7,5.9,0.1c16.9,14.2,26.1,32.3,27.2,54.3C505.1,159.7,504.9,165.4,504.9,171.5z"/>
	<path class="st1" d="M117.6,44c0.1,21.7-17.4,39.4-39.1,39.5c-21.6,0.1-39.3-17.6-39.3-39.2C39.2,22.8,56.6,5.2,78,5
		C99.7,4.8,117.5,22.3,117.6,44z"/>
	<path class="st1" d="M254.9,5c21.7,0,39.2,17.7,39.2,39.4c-0.1,21.6-17.8,39.2-39.5,39c-21.4-0.1-38.9-17.7-38.9-39.1
		C215.7,22.6,233.3,5,254.9,5z"/>
	<path class="st1" d="M431.5,5c21.7,0,39.2,17.7,39.1,39.4c-0.1,21.6-17.9,39.1-39.5,39c-21.4-0.1-38.9-17.7-38.9-39.2
		C392.2,22.6,409.8,5,431.5,5z"/>
	<path class="st1" d="M361.3,433.1c0-33.2,0-66.1,0-99.3c11.8,0,23.5,0,35.5,0c0,33,0,66,0,99.3
		C385.1,433.1,373.5,433.1,361.3,433.1z"/>
	<path class="st1" d="M112.9,433.2c0-33.3,0-66.2,0-99.4c11.8,0,23.5,0,35.5,0c0,33.1,0,66.1,0,99.4
		C136.6,433.2,125,433.2,112.9,433.2z"/>
	<path class="st1" d="M272.6,333.7c0,33.2,0,66.1,0,99.4c-11.7,0-23.3,0-35.3,0c0-33.1,0-66.1,0-99.4
		C249,333.7,260.5,333.7,272.6,333.7z"/>
</g>
<g id="Layer_3" class="st0">
	<path class="st1" d="M510.6,289.9c-14.5,26.7-32.3,50.8-54.1,71.9c-38.7,37.6-84.3,62.6-136.7,75.3c-62.4,15.1-122.7,8-180.9-18.2
		c-52-23.4-93.3-59.4-124.7-107c-4.7-7.1-8.8-14.7-13.1-22.1c0-2.7,0-5.3,0-8c11.2-20.4,24.2-39.5,39.7-56.9
		c36.4-40.6,80.5-69,132.5-85.3c25.6-8,51.9-12.1,78.7-13c1.1,0,2.2,0,3.6,0c0,10.6,0,20.8,0,31.5c-44.6,1.6-80.5,20-105.7,57.1
		c-18,26.4-24.7,56-20.2,87.6c9.4,65.2,64.8,111.9,129.1,110.3c63.9-1.6,123.1-52.5,124.6-127c10.3,0,20.7,0,31.5,0
		c0.3,15.5-1.7,30.8-6.8,45.3c-5,14.3-11.6,28-17.4,41.5c2.9-2,6.9-4.5,10.6-7.2c28.9-20.9,53.2-46.4,72.5-76.4
		c1.7-2.6,1.9-4.5-0.1-7c-11.7-14.6-23.2-29.3-34.8-44c-1.3-1.7-2.9-3.1-4.2-4.6c7.6-7.4,14.9-14.6,22.6-22.1
		c20.7,20.5,38.4,44.1,53.1,70.2C510.6,284.6,510.6,287.2,510.6,289.9z M121.5,373.8c-33.6-59-33.6-117.1,1-175.8
		c-1.3,0.6-1.8,0.9-2.4,1.2c-33.7,22-61.2,50.1-82.9,83.8c-1.6,2.5-1,4,0.4,6.2c16.5,25.8,36.7,48.3,60.5,67.4
		C105.7,362.7,113.7,368.1,121.5,373.8z"/>
	<path class="st1" d="M334.4,285.8c0.1,43.9-35.7,79.7-79.6,79.8c-43.9,0-79.7-35.8-79.6-79.7c0.1-43.7,35.6-79.3,79.4-79.5
		C298.5,206.1,334.4,241.8,334.4,285.8z M299.2,270c-4.9-19.5-27.9-34.2-49.1-31.8c-24.1,2.7-42.2,22.4-43.1,45.7
		c-0.9,23.4,16.9,43.2,31.9,46c0-13.4,0-26.9,0-40.3c0-13.9,5.7-19.6,19.6-19.6C272,270,285.5,270,299.2,270z"/>
	<path class="st1" d="M382.2,79.1c0,15.8,0,31.3,0,47.4c16,0,31.7,0,47.6,0c0,10.8,0,21,0,31.8c-15.6,0-31.2,0-47.4,0
		c0,16.2,0,31.8,0,47.7c-10.8,0-21,0-31.7,0c0-15.6,0-31.2,0-47.4c-16.2,0-31.8,0-47.7,0c0-10.8,0-21,0-31.7c15.5,0,31.2,0,47.4,0
		c0-16.2,0-31.8,0-47.7C361,79.1,371.2,79.1,382.2,79.1z"/>
</g>
<g id="Layer_4">
	<path class="st2" d="M355.2,12c4.6,7.7,0.7,16.3,2.5,24.3c0,4.1,0,8.2,0.1,12.3c0,5.4,0,10.9,0.1,16.3c0,1.4,0.1,2.8,0.1,4.2
		c0,17.2,0.1,34.5,0.1,51.7c0.1,4.6,0.2,9.2,0.3,13.8c-12.9,4.5-12.9,4.5-10.6,21.9c-2.7,15.1-6.2,30.3,9,41.5
		c0.3,0.2,0.1,1.3,0.1,1.9c-7.4,0.9-9.1,7.1-11.6,12.5c-1.3,0.3-2.6,0.7-3.9,1c-0.1-53.3-0.2-106.5-0.4-159.8c0-3.2,1.5-7.6-2.4-9.2
		c-3.1-1.3-5.5,2-7.9,3.7c-2.2,1.4-4.3,2.8-6.5,4.2c-1.3,0.3-2.8,0.3-3.9,1c-64.6,37.4-129.1,75-193.9,112.1
		c-7.9,4.5-10.9,9.7-10.8,18.6c0.4,48,0.3,96.1,0.3,144.1c0.1,28.7,0.2,57.4,0.3,86c-0.2,1.7-0.5,3.4-0.5,5.1
		c-0.3,10.2,0.4,10.6,9.2,6c0.9-0.5,1.8-1,2.7-1.5c68-39.2,136-78.5,203.9-117.7c3.5-2,7.4-3.7,8.8-8c0.2-5.3,0.4-10.6,0.6-16
		c1.5-0.6,2.9-1.1,4.4-1.7c0,12.1-0.1,24.3-0.1,36.4c-13.7,8.2-27.5,16.4-41.2,24.6c-16.9,8.6-33.2,18.4-49.3,28.5
		c-0.7,0.4-1.4,0.8-2.1,1.3c-40.3,23.1-80.5,46.1-120.8,69.2c-8,4.6-15.8,9.5-24,13.7c-3.2,1.7-6.4,5.7-10.9,2.5
		c6.2-8.4,2.7-17.7,2.6-26.7c-0.1-89.4-0.1-178.7-0.1-268.1c0.9-0.4,1.9-0.8,2.8-1.3c82.2-47.4,164.4-94.9,246.6-142.3
		C351.5,16.8,354.6,15.6,355.2,12z"/>
	<path class="st3" d="M345.3,317c0-12.1,0.1-24.3,0.1-36.4c9.4-5,11.5-13.9,12.8-23.3c2.6-8.8,5.5-17.5,5.2-26.8
		c-0.4-14.4-3.9-17.8-18.1-17.9c2.5-5.5,4.2-11.6,11.6-12.5c13.7,9.6,22.4,7,29.4-8.5c14,0.2,19.5,10.3,24.5,21
		c0.4,8.5,1.7,17,3.7,25.2c0.2,10,0.3,20.1,0.5,30.1c0,3.6,0,7.2,0.1,10.9c0,7.8,0.1,15.6,0.1,23.4c-0.1,7.2-0.2,14.5-0.3,21.7
		c-8.9,4-17.8,7.9-26.7,11.9c-15.7,1.7-28.7-5.6-41.5-13C346.9,320.6,346.9,318.6,345.3,317z"/>
	<path class="st4" d="M346.7,322.6c12.9,7.4,25.8,14.7,41.5,13c0.3,24.1-6.6,47.6-5.2,71.9c0.5,8.5,1.4,16.3,5.2,23.9
		c-2.3,8.1,1,16.2-0.2,24.4c-2.2,9.1-1.3,18.3-1.5,27.5c-0.9,3.3-1.7,6.7-2.6,10c-10.1,1-19.9,1.4-24.8-10.2
		c0.2-16.7-0.5-33.3-3.3-49.7c-0.2-1.2-0.3-2.4-0.5-3.6c0.2-3.1,0.4-6.1-1.7-8.7c0.2-4.1-0.4-8.1-2.4-11.7c-0.4-3-0.8-6-1.2-9
		C345.8,374.5,340.1,348.8,346.7,322.6z"/>
	<path class="st5" d="M388.1,431.4c-3.7-7.5-4.7-15.3-5.2-23.9c-1.4-24.3,5.5-47.8,5.2-71.9c8.9-4,17.8-7.9,26.7-11.9
		c1.3,3.6,2.5,7.2,3.8,10.8c-1.4,13.8-2.8,27.6-4.3,41.4c-2.2,20.9,5.9,40.8,5.6,61.6c-0.2,13.2,0.6,26.4,1,39.6
		c-9.5,0.6-18.8,0.9-22.7-10.6C394.1,455.1,393.4,442.6,388.1,431.4z"/>
	<path class="st6" d="M99.5,161.9c0,89.4,0,178.7,0.1,268.1c0,9,3.6,18.3-2.6,26.7c-11.6-3.2-7.6-13.2-9.2-20.8
		c-0.1-1.7-0.1-3.5-0.2-5.2c1.1-8.5,0.9-17,0.1-25.5c0-2,0-4,0-6c1-6.9,0.8-13.8-0.1-20.6c0-2,0-4,0-6c1-8.6,0.8-17.2-0.2-25.8
		c0-0.7,0-1.4,0-2.1c1-18,0.7-36.1-0.1-54.1c0-2,0-4.1,0-6.1c0-7.5,0-15-0.1-22.6c0-2,0-4.1,0-6.1c-0.1-27.3-0.1-54.6-0.2-82
		c0-1.4,0-2.7,0-4.1c1.4-4.7-1.3-10,2.1-14.4C92.5,157.4,96,159.6,99.5,161.9z"/>
	<path class="st7" d="M347.7,156.6c-2.3-17.5-2.3-17.5,10.6-21.9c7.2,2,14.4,3.9,21.6,5.9c5.3,2.4,8.6,6.9,11.7,11.6
		c0.8,12.6,0.4,24.9-5.9,36.3c-1.7,1.2-3.3,2.4-5,3.5c-3.6,2.2-7.7,3.6-11.4,0.9c-3.5-2.6-2.4-6.7-1.8-10.3c0.4-2.3,0.9-4.7,1.2-7
		c0.5-4,0.1-7.8-4.9-8.3c-4.1-0.4-5.8,2.5-6.5,6.3c-0.4,2.3,1.3,5.5-2.9,6.9c-2.1-3.1-0.7-6.7-1.7-9.7
		C351.3,165.9,354.1,159.5,347.7,156.6z"/>
	<path class="st8" d="M347.7,156.6c6.4,3,3.6,9.4,5.1,14.1c1,3-0.5,6.5,1.7,9.7c4.1-1.5,2.5-4.7,2.9-6.9c0.6-3.8,2.3-6.6,6.5-6.3
		c5,0.4,5.5,4.2,4.9,8.3c-0.3,2.3-0.8,4.7-1.2,7c-0.6,3.7-1.7,7.8,1.8,10.3c3.7,2.7,7.8,1.3,11.4-0.9c1.7-1,3.3-2.3,5-3.5
		c0.2,1,0.3,2.1,0.5,3.1c-7,15.6-15.8,18.1-29.4,8.5c0-0.7,0.2-1.7-0.1-1.9C341.5,186.9,345.1,171.6,347.7,156.6z"/>
	<path class="st7" d="M338.4,492.8c-1-3.2-2.1-6.4-3.1-9.6c7.9-5,15.8-0.9,23.7-0.1c4.9,11.6,14.7,11.3,24.8,10.2
		c1.8,4.5,4,9.3-1.3,12.6c-5,3.1-10.5,4-16.3,0.9C357.1,501.9,347.7,497.4,338.4,492.8z"/>
	<path class="st7" d="M398.2,466.6c3.9,11.4,13.2,11.2,22.7,10.6c1.8,4.6,3.4,9.5-1.6,12.9c-5.1,3.5-11,4.6-16.4,1.1
		c-5.2-3.4-10.7-5.9-16.5-7.9c0.2-9.2-0.7-18.4,1.5-27.5C388.1,462.5,389.3,468.2,398.2,466.6z"/>
	<path class="st9" d="M116.2,414.4c-0.1-28.7-0.3-57.4-0.3-86c-0.1-48,0.1-96.1-0.3-144.1c-0.1-9,2.9-14.1,10.8-18.6
		c64.8-37.1,129.3-74.7,193.9-112.1c1.1-0.7,2.6-0.7,3.9-1c5.9,3.1,4.5,8.7,4.5,13.6c0.1,61.4,0,122.8,0.3,184.1
		c0,8-1.2,14.6-8.2,19.1c-10.5,6.2-20.1,4.2-29.1-3.1c-0.1-16.3-0.3-32.7-0.2-49c0-6.4-0.3-10.4-8-5.3c-7.3,4.9-15.3,8.9-22.9,13.4
		c-2.8,1.7-6.5,3-5.3,7.6c0,5.5,0,10.9,0,16.4c0,4.8,0,9.6,0.1,14.4c0,6.1,0,12.3,0,18.4c-1.5,7.8,1,9,7.5,4.8
		c6.9-4.4,14.1-8.2,21.1-12.3c0.8,9,7.9,8,13.6,7.9c10.7-0.2,21.5-1,32.2,0c-0.1,3.9-0.2,7.7-0.2,11.6c-2,1.3-3.9,2.7-6,3.9
		c-56.4,32.7-112.6,65.6-169.3,97.7C142,402.8,131.4,413.4,116.2,414.4z M280.2,184.5c8-4.5,16-9.1,24-13.6
		c4.1-2.6,10.4-3.1,10.4-9.6c0.1-17.6,0-35.3-0.1-52.9c0-2.6-0.8-5.5-4-3.3c-10.5,7.1-23.5,10.3-32.1,20.4
		c-0.1,18.8-0.3,37.6-0.3,56.5C278,183.2,278.1,184.8,280.2,184.5z M213.9,161.2c-3.3,1-3.6,3.6-3.6,6.4c0.2,10.1,0.3,20.2,0.4,30.3
		c0,1.5,0,3,0,4.5c-0.1,6-0.3,11.9-0.3,17.9c0,1.8,0.1,4.4,3.3,2.4c10-4.3,18.8-10.6,28.2-15.9c4-2.2,5.1-4.6,5-8.7
		c-0.3-11.6-0.4-23.1-0.6-34.7c0.1-5.1,0.1-10.2,0.4-15.3c0.3-5.6-2.2-5.5-6-3.1C231.9,150.4,222.9,155.8,213.9,161.2z M177.4,243.9
		c4.6-19.4,1.3-39,1.6-58.6c0.1-5.2-3.9-2.3-5.8-1.2c-6.4,3.7-12.7,7.8-19,11.7c-3.9,1-7.3,2.9-10,6c-2.5,19.5-0.7,39-0.6,58.5
		c0,1.2,1,2.5,2.8,1.4C157.2,256.7,167.3,250.4,177.4,243.9z M187.2,330.4c12.2-7,22.2-12.7,32.2-18.5c2.5-1.4,4.3-3.1,4.2-6.4
		c-0.2-17.4-0.2-34.7-0.3-52.1c0-4.5-1.8-5.4-5.6-3.2c-8.8,5.1-17.6,10.2-26.5,15.2c-2.7,1.5-3.9,3.6-3.9,6.6
		C187.2,290.8,187.2,309.4,187.2,330.4z"/>
	<path class="st10" d="M116.2,414.4c15.2-0.9,25.8-11.6,38-18.5c56.7-32,112.9-65,169.3-97.7c2.1-1.2,4-2.6,6-3.9
		c3.6,1.3,7.2,2.6,10.9,3.9c-1.4,4.4-5.3,6-8.8,8.1c-68,39.3-136,78.5-203.9,117.7c-0.9,0.5-1.8,1-2.7,1.5c-8.8,4.6-9.5,4.2-9.2-6
		C115.7,417.7,116,416.1,116.2,414.4z"/>
	<path class="st6" d="M330.7,48.3c2.5-1.7,4.8-5,7.9-3.7c3.8,1.7,2.4,6,2.4,9.2c0.2,53.3,0.3,106.5,0.4,159.8
		c-2.1,13.2-7.3,26.2-3.1,39.9c-1.3,3.6-2.4,7.3-5.2,10.1c-0.1-66.4-0.2-132.9-0.4-199.3C332.8,58.9,333.7,53.3,330.7,48.3z"/>
	<path class="st8" d="M333.2,263.6c2.8-2.8,3.9-6.5,5.2-10.1c6.6,1.3,13.2,2.5,19.9,3.8c-1.3,9.4-3.4,18.4-12.8,23.3
		c-1.5,0.6-2.9,1.1-4.4,1.7c-3.8,0.1-7.5,0.3-11.3,0.4c-10.7-1-21.5-0.3-32.2,0c-5.7,0.1-12.8,1.2-13.6-7.9c3.5-2,7.9-3.1,7.7-8.4
		c9,7.3,18.6,9.3,29.1,3.1C326.8,271.6,330.2,268.2,333.2,263.6z"/>
	<path class="st11" d="M358.2,257.3c-6.6-1.3-13.3-2.5-19.9-3.8c-4.2-13.7,0.9-26.7,3.1-39.9c1.3-0.3,2.6-0.7,3.9-1
		c14.2,0.1,17.7,3.5,18.1,17.9C363.7,239.8,360.8,248.5,358.2,257.3z"/>
	<path class="st12" d="M333.2,263.6c-3,4.5-6.4,8-12.5,5.8c7-4.6,8.3-11.1,8.2-19.1c-0.3-61.4-0.2-122.8-0.3-184.1
		c0-4.9,1.4-10.5-4.5-13.6c2.2-1.4,4.3-2.8,6.5-4.2c3,5,2.1,10.6,2.1,16C333,130.7,333.1,197.2,333.2,263.6z"/>
	<path class="st6" d="M329.7,282.7c3.8-0.1,7.5-0.3,11.3-0.4c-0.2,5.3-0.4,10.6-0.6,16c-3.6-1.3-7.2-2.6-10.9-3.9
		C329.6,290.4,329.7,286.6,329.7,282.7z"/>
	<path class="st13" d="M187.2,330.4c0-21,0-39.6,0-58.3c0-3,1.3-5.1,3.9-6.6c8.9-5,17.7-10.1,26.5-15.2c3.8-2.2,5.6-1.3,5.6,3.2
		c0.1,17.4,0.1,34.7,0.3,52.1c0,3.2-1.8,4.9-4.2,6.4C209.4,317.7,199.4,323.4,187.2,330.4z M199.6,294.4c-2.6,4.6-9.9,1.3-9.7,8.1
		c0.1,4.4,2.7,8.3,7,8.8c5.3,0.6,9-3.9,9.7-8.4C206.8,300.7,202.5,297.8,199.6,294.4z M214.7,259c-7.5,1.8-14.3,4.6-18.6,11.3
		C203.6,268.6,210.1,265.3,214.7,259z"/>
	<path class="st13" d="M291.6,266.3c0.1,5.3-4.2,6.5-7.7,8.4c-7.1,4.1-14.3,7.9-21.1,12.3c-6.6,4.2-9,3-7.5-4.8
		c9.9-5.6,16.3-14.7,25.7-23.3c-10.5,0.1-18.5,0.6-25.7,4.9c0-4.8,0-9.6-0.1-14.4c2.6,0.3,5.3,0.6,7.8,1.1c1.2,0.3,2.7,1.6,3.3,0
		c0.5-1.3,0.2-4.4-0.2-4.5c-7-1.6-6.2-9.6-10.9-12.9c-1.2-4.6,2.5-5.9,5.3-7.6c7.6-4.5,15.5-8.5,22.9-13.4c7.7-5.1,8.1-1.1,8,5.3
		C291.3,233.6,291.5,250,291.6,266.3z M273.5,253.6c0.4-0.2,0.8-0.5,1.1-0.7c-0.4,0.2-0.9,0.4-1.3,0.6L273.5,253.6z M263.9,231.7
		c6.7-3.2,14.6-4.4,18.3-12.2C275.1,222.2,267.8,224.4,263.9,231.7z"/>
	<path class="st13" d="M278.3,125.5c8.6-10.1,21.6-13.4,32.1-20.4c3.2-2.2,4,0.7,4,3.3c0.1,17.6,0.2,35.3,0.1,52.9
		c0,6.5-6.4,7-10.4,9.6c0.2-3.7-0.4-7.5,4.7-8.9c4.4-1.2,3.4-5.3,3.4-8.6c0-1.6-0.3-3.9-2.5-3.6c-3,0.4-3.6,4-5.6,5.5
		c-8.5,6.3-13.8,16.6-24.4,20.4C277.9,159.1,280.8,142.2,278.3,125.5z M284.8,127.2c9.7-2.7,16.3-5.9,20.6-12.8
		C298.3,116.8,291.2,119.2,284.8,127.2z M311.9,121.3c-3.1,2.6-5.5,4.6-8,6.8c2.9,1.6,5.4,3,8,4.5
		C311.9,128.8,311.9,125.5,311.9,121.3z"/>
	<path class="st14" d="M144.1,201.9c2.7-3,6.1-5,10-6c0.8,0.7,1.7,1.4,2.5,2c-1.7,2.3-6.2,2.9-4.8,8c4.7-2.3,8.9-4.3,13-6.3
		c0.5,1.6,0.6,4.2,1.6,4.6c10.9,4.1,11,13.1,10.8,22.4c-0.1,5.7,0.1,11.5,0.2,17.2c-10,6.5-20.2,12.8-31.1,17.7
		c-3.7-11-1.2-22.4-1.7-33.5C144.2,219.4,147.9,210.6,144.1,201.9z M172.9,224.6c-2.5,0.7-6.1,0.1-6.1,4.9c3.9,0.7,4.9-2.4,6.4-4.6
		l0.1-0.5L172.9,224.6z M159.1,217.9c1.4,0.5,2.3,1.1,3,0.9c0.6-0.1,1-1.2,1.4-1.8c-0.8-0.4-1.6-1-2.4-1
		C160.6,216.1,160,217,159.1,217.9z"/>
	<path class="st14" d="M246.5,163.4c0.2,11.6,0.3,23.1,0.6,34.7c0.1,4.1-1.1,6.5-5,8.7c-9.4,5.3-18.2,11.6-28.2,15.9
		c-3.3-6.4-0.3-13.7-3-20.2c0-1.5,0-3,0-4.5c0.6-3.9,1.3-7.8,2-12.6c4.6,10.5,9,5,13.4,0.6l0-0.1c2.8-0.2,5-1.2,6.1-4.1l0,0
		c4.4-1.8,2.4-5.2,2.1-8.1c0,0-0.1-0.1-0.1-0.1c-4.2,0-4.7-2.5-3.9-5.9c2.7-0.1,5.3-0.1,8-0.2c0.7,0.6,0.2,2.7,2.1,1.5
		c-0.7-0.5-1.4-1.1-2.1-1.6C240.5,164.6,243.2,163.5,246.5,163.4z"/>
	<path class="st13" d="M177.4,243.9c-0.1-5.7-0.4-11.5-0.2-17.2c0.2-9.4,0.2-18.4-10.8-22.4c-1-0.4-1.1-3-1.6-4.6
		c1.5-2.6,6.6-2.5,5.2-8.2c-4.7,2.2-9,4.3-13.4,6.4c-0.8-0.7-1.7-1.4-2.5-2c6.3-3.9,12.6-8,19-11.7c1.9-1.1,5.9-4,5.8,1.2
		C178.7,204.9,181.9,224.5,177.4,243.9z"/>
	<path class="st13" d="M230.6,167.7c-0.8,3.3-0.3,5.8,3.9,5.9l0.1,0.1c0.3,3,2.3,6.4-2.1,8.1c-0.6-0.6-0.2-2.7-2.1-1.5
		c0.7,0.5,1.4,1.1,2.1,1.6c-1.1,2.8-3.3,3.9-6.1,4.1c-2.6-4.7-5-2.7-8-0.1c3,2.7,5.5,0,7.9,0.2c-4.4,4.5-8.8,9.9-13.4-0.6
		c-0.8,4.8-1.4,8.7-2,12.6c-0.1-10.1-0.3-20.2-0.4-30.3c0-2.8,0.2-5.5,3.6-6.4c0,0,0.6,0.8,0.6,0.8c-0.2,3.8-0.4,7.7-0.6,11.6
		c0,0,0.1,0.1,0.1,0.1c6.6,0.9,10.7-4.6,16.2-6.4L230.6,167.7z"/>
	<path class="st14" d="M279.8,175.7c10.6-3.8,15.8-14,24.4-20.4c2-1.5,2.6-5.1,5.6-5.5c2.2-0.3,2.5,1.9,2.5,3.6
		c-0.1,3.3,1,7.4-3.4,8.6c-5.1,1.4-4.5,5.2-4.7,8.9c-8,4.5-16,9.1-23.9,13.6C280.1,181.6,279.9,178.7,279.8,175.7z"/>
	<path class="st13" d="M238.6,167.5c-2.7,0.1-5.3,0.1-8,0.2c0,0-0.4-0.4-0.4-0.4c-0.1-1.8-0.2-3.7-0.3-5.5c2.2-3.3,9.3-2.7,8-10.3
		c-7.2,4.3-13.5,8.1-19.8,11.9c-1.2-0.5-2.4-0.9-3.6-1.4c0,0-0.6-0.8-0.6-0.8c9-5.4,18-10.8,26.9-16.3c3.8-2.3,6.3-2.5,6,3.1
		c-0.3,5.1-0.3,10.2-0.4,15.3C243.2,163.5,240.5,164.6,238.6,167.5L238.6,167.5z"/>
	<path class="st14" d="M255.3,263.8c7.2-4.3,15.2-4.8,25.7-4.9c-9.3,8.6-15.8,17.7-25.7,23.3C255.3,276,255.3,269.9,255.3,263.8z"/>
	<path class="st13" d="M144.1,201.9c3.8,8.7,0.1,17.5,0.4,26.3c0.5,11.2-1.9,22.5,1.7,33.5c-1.7,1.2-2.8-0.1-2.8-1.4
		C143.5,240.8,141.6,221.3,144.1,201.9z"/>
	<path class="st8" d="M279.8,175.7c0.1,2.9,0.3,5.9,0.4,8.8c-2.1,0.3-2.2-1.3-2.2-2.6c0.1-18.8,0.2-37.6,0.3-56.4
		C280.8,142.2,277.9,159.1,279.8,175.7z"/>
	<path class="st14" d="M255.2,233c4.7,3.3,3.9,11.3,10.9,12.9c0.4,0.1,0.8,3.2,0.2,4.5c-0.7,1.6-2.1,0.3-3.3,0
		c-2.6-0.5-5.2-0.8-7.8-1.1C255.2,243.9,255.2,238.5,255.2,233z"/>
	<path class="st13" d="M210.8,202.5c2.6,6.5-0.3,13.8,3,20.2c-3.1,2.1-3.2-0.6-3.3-2.4C210.5,214.4,210.7,208.4,210.8,202.5z"/>
	<path class="st14" d="M199.6,294.4c2.9,3.4,7.3,6.3,6.9,8.5c-0.7,4.5-4.3,8.9-9.7,8.4c-4.3-0.4-6.9-4.4-7-8.8
		C189.7,295.7,196.9,299,199.6,294.4z"/>
	<path class="st10" d="M214.7,259c-4.6,6.3-11.1,9.6-18.6,11.3C200.4,263.6,207.2,260.8,214.7,259z"/>
	<path class="st10" d="M263.9,231.7c4-7.3,11.3-9.5,18.3-12.2C278.4,227.3,270.5,228.5,263.9,231.7z"/>
	<path class="st14" d="M273.3,253.5c0.4-0.2,0.9-0.4,1.3-0.6c-0.4,0.2-0.8,0.5-1.1,0.7L273.3,253.5z"/>
	<path class="st14" d="M273.5,253.6c0,0-0.2-0.2-0.2-0.2C273.3,253.5,273.5,253.6,273.5,253.6z"/>
	<path class="st10" d="M284.8,127.2c6.4-8,13.5-10.4,20.6-12.8C301.1,121.3,294.5,124.5,284.8,127.2z"/>
	<path class="st14" d="M311.9,121.3c0,4.2,0,7.4,0,11.3c-2.6-1.5-5.1-2.9-8-4.5C306.5,126,308.8,124,311.9,121.3z"/>
	<path class="st10" d="M156.6,197.9c4.4-2.1,8.7-4.2,13.4-6.4c1.4,5.7-3.7,5.6-5.2,8.2c-4.1,2-8.3,4-13,6.3
		C150.4,200.8,154.9,200.2,156.6,197.9z"/>
	<path class="st13" d="M173.2,224.9c-1.5,2.2-2.5,5.3-6.4,4.6c0-4.8,3.5-4.2,6.1-4.9L173.2,224.9z"/>
	<path class="st13" d="M159.1,217.9c0.9-0.9,1.5-1.8,2.1-1.9c0.7-0.1,1.6,0.6,2.4,1c-0.5,0.6-0.9,1.7-1.4,1.8
		C161.3,218.9,160.4,218.3,159.1,217.9z"/>
	<polygon class="st13" points="172.9,224.6 173.3,224.5 173.2,224.9 	"/>
	<path class="st13" d="M238.6,167.4c0.7,0.5,1.4,1.1,2.1,1.6C238.7,170.2,239.2,168,238.6,167.4
		C238.6,167.5,238.6,167.4,238.6,167.4z"/>
	<path class="st13" d="M234.4,173.6C234.4,173.6,234.5,173.6,234.4,173.6C234.5,173.6,234.4,173.6,234.4,173.6z"/>
	<path class="st14" d="M229.9,161.8c0.1,1.8,0.2,3.7,0.3,5.5c-5.5,1.8-9.6,7.2-16.2,6.4l-0.1-0.1c0.2-3.9,0.4-7.7,0.6-11.6
		c1.2,0.5,2.4,0.9,3.6,1.4C223.1,171,225.8,161,229.9,161.8z"/>
	<path class="st14" d="M226.3,185.9c-2.5-0.1-4.9,2.5-7.9-0.2C221.3,183.2,223.7,181.2,226.3,185.9
		C226.3,185.9,226.3,185.9,226.3,185.9z"/>
	<path class="st14" d="M232.4,181.8c-0.7-0.5-1.4-1.1-2.1-1.6C232.3,179,231.8,181.2,232.4,181.8
		C232.4,181.8,232.4,181.8,232.4,181.8z"/>
	<path class="st14" d="M214,173.7c0,0-0.1-0.1-0.1-0.1C213.9,173.6,214,173.7,214,173.7z"/>
	<path class="st10" d="M229.9,161.8c-4.1-0.8-6.8,9.2-11.9,1.6c6.3-3.8,12.6-7.6,19.8-11.9C239.2,159.1,232.1,158.5,229.9,161.8z"/>
</g>
</svg>
