<?xml version="1.0" encoding="utf-8"?>
<!-- Generator: Adobe Illustrator 23.0.6, SVG Export Plug-In . SVG Version: 6.00 Build 0)  -->
<svg version="1.1" xmlns="http://www.w3.org/2000/svg" xmlns:xlink="http://www.w3.org/1999/xlink" x="0px" y="0px"
	 viewBox="0 0 512 512" style="enable-background:new 0 0 512 512;" xml:space="preserve">
<style type="text/css">
	.st0{display:none;}
	.st1{display:inline;}
	.st2{fill:#B16D44;}
	.st3{fill:#FDF5DF;}
	.st4{fill:#CB8B66;}
	.st5{fill:#FEE901;}
	.st6{fill:#FEEFCB;}
	.st7{fill:#828CB2;}
	.st8{fill:#FEC9B8;}
	.st9{fill:#F9BAA6;}
	.st10{fill:#BF7951;}
	.st11{fill:#FED801;}
	.st12{fill:#CB8C68;}
	.st13{fill:#AF6A41;}
	.st14{fill:#717EB2;}
	.st15{fill:#848DB3;}
	.st16{fill:#FDF7E9;}
</style>
<g id="Layer_1" class="st0">
	<path class="st1" d="M376.6,352.7c0-34,0-67.7,0-101.5c4,0,7.7,0,11.9,0c0,1.3,0,2.7,0,4c0,38,0,76,0,114
		c0,12.5-7.3,19.8-19.8,19.8c-37.7,0-75.5,0-113.2,0c-1.5,0-3,0-4.7,0c0,4,0,7.8,0,12c7.9,0,15.7,0,23.5,0c2.2,0,4.5-0.1,6.7,0
		c6.2,0.3,11.1,5.1,11.4,11.3c0.2,4.2,0.2,8.5,0,12.7c-0.2,7.1-5.3,11.9-12.7,11.9c-24.6,0-49.2,0-73.9,0c-6.9,0-13.8,0-20.6,0
		c-7.7-0.1-12.6-5-12.7-12.7c0-3.6-0.1-7.3,0-10.9c0.1-7.4,5.1-12.4,12.6-12.4c9.6-0.1,19.2,0,29.1,0c0-3.9,0-7.7,0-12
		c-1.4,0-2.9,0-4.3,0c-37.7,0-75.5,0-113.2,0c-13,0-20.1-7.2-20.1-20.2c0-62.5,0-125,0-187.5c0-13.2,7.1-20.3,20.4-20.3
		c15,0,30,0,45.4,0c0-11.9,0-23.7,0-35.8c4.2,0,8,0,12.1,0c0,11.8,0,23.5,0,35.6c48.1,0,95.9,0,143.9,0c0,4.2,0,8,0,12.1
		c-1.6,0-3,0-4.5,0c-65.4,0-130.7,0-196.1,0c-7.6,0-9.1,1.5-9.1,9.2c0,55.4,0,110.7,0,166.1c0,1.4,0,2.7,0,4.4
		C184.5,352.7,280.3,352.7,376.6,352.7z M376.5,365.2c-96.2,0-192,0-287.7,0c-0.9,10.2,0.5,11.8,10.3,11.8c89.2,0,178.4,0,267.6,0
		c1.2,0,2.5,0.1,3.7,0c3.6-0.2,5.8-2.4,6-5.9C376.6,369.2,376.5,367.3,376.5,365.2z M184.6,424.8c32.1,0,63.9,0,95.6,0
		c0-4,0-7.8,0-11.8c-11.5,0-22.8,0-34,0c-5.7,0-7.7-2-7.7-7.7c0-5.3,0-10.7,0-16.1c-4.2,0-8,0-12,0c0,5.6,0,10.9,0,16.3
		c0,5.3-2.1,7.4-7.5,7.4c-10.1,0-20.2,0-30.4,0c-1.3,0-2.6,0-4,0C184.6,417.2,184.6,420.8,184.6,424.8z"/>
	<path class="st1" d="M278.7,252.8c-2,1-3.5,1.8-5.1,2.5c-3.9,1.8-6.6,1-8.9-2.7c-3.8-6.2-7.5-12.4-11.1-18.6
		c-2.6-4.5-2.1-7.1,2.3-10.1c19-13.4,37.9-26.9,56.9-40.2c2.9-2,4.8-4.3,6.1-7.6c6.3-15.9,12.9-31.6,19.4-47.5
		c1.2-2.8,2.6-5.2,5.9-5.5c3.4-0.3,5.1,2,6.6,4.6c17.8,29.8,35.5,59.6,53.4,89.4c1.6,2.6,2.6,5.2,0.7,8c-1.9,2.8-4.7,2.8-7.7,2.5
		c-17.6-1.9-35.3-3.8-52.9-5.7c-1.3-0.1-2.9-0.2-4,0.4c-9.6,4.7-19.2,9.5-29.2,14.4c4.1,6.8,8,13.4,11.9,20
		c4.1,6.8,3.6,8.9-3.1,12.9c-5.5,3.3-10.9,6.5-16.4,9.8c-4.9,2.8-7.5,2.1-10.5-2.8C288.2,268.8,283.6,261,278.7,252.8z M294.1,231.6
		c14.1-7,27.8-13.9,41.6-20.5c2.1-1,4.8-1.5,7.1-1.4c9,0.7,17.9,1.8,26.8,2.7c6.1,0.6,12.2,1.2,19,1.9c-14.5-24.3-28.6-47.9-43-72
		c-6,14.7-11.6,28.6-17.4,42.3c-1,2.3-2.8,4.5-4.7,6c-11.7,8.5-23.6,16.8-35.4,25.1c-0.8,0.5-1.5,1.2-2.3,1.9
		C288.5,222.3,291.2,226.8,294.1,231.6z M289.5,247.4c3.9,6.5,7.7,12.8,11.6,19.3c3.5-2.1,6.8-4,10.3-6.1
		c-3.8-6.3-7.4-12.3-11.1-18.5C296.5,243.9,293.1,245.6,289.5,247.4z M272.5,242.4c3.8-1.9,7.1-3.6,10.7-5.4
		c-2.6-4.3-5-8.3-7.5-12.6c-3.4,2.4-6.5,4.6-9.8,6.9C268.2,235.1,270.3,238.6,272.5,242.4z"/>
	<path class="st1" d="M214.4,328.8c-4.1,0-7.8,0-11.9,0c0-1.5,0-2.9,0-4.2c0-16.1,0-32.2,0-48.4c0-8.4-4.9-13.2-13.3-13.3
		c-15.1,0-30.2,0-45.4,0c-8.6,0-13.4,4.8-13.4,13.5c0,16,0,32,0,48c0,1.3,0,2.7,0,4.3c-4,0-7.7,0-12,0c0-1.2,0-2.5,0-3.8
		c0-16,0-32,0-48c0-16,9.9-25.9,25.9-26c1.1,0,2.1,0,3.5,0c-14.6-16.9-15.1-33.9-1.6-46.3c11.9-10.9,30.3-10.4,41.6,1.2
		c12.3,12.5,11.3,30-2.7,44.8c3.4,0.3,6.8,0.2,10,0.9c10.4,2,18.7,10.3,19,20.8C214.8,291.1,214.4,309.8,214.4,328.8z M166.4,209
		c-9.8,0-17.8,8.1-17.9,17.9c0,10,8.1,18.1,18.1,18.1c9.8,0,17.9-8.1,17.9-17.9C184.5,217.1,176.4,209,166.4,209z"/>
	<path class="st1" d="M136.8,275.2c3.9,0,7.6,0,11.5,0c0,17.8,0,35.5,0,53.5c-3.7,0-7.5,0-11.5,0C136.8,311,136.8,293.3,136.8,275.2
		z"/>
	<path class="st1" d="M196.2,328.8c-3.9,0-7.6,0-11.5,0c0-17.8,0-35.5,0-53.5c3.7,0,7.5,0,11.5,0C196.2,293,196.2,310.7,196.2,328.8
		z"/>
	<path class="st1" d="M103,78.5c3.3,2.1,6.5,4.1,9.7,6.2c-8.3,14.9-8.4,29.6,0,44.7c-3.3,2.1-6.5,4.1-9.7,6.1
		C91.9,122.4,91.8,93.4,103,78.5z"/>
	<path class="st1" d="M184.2,84.7c3.5-2.2,6.7-4.2,9.8-6.1c11.1,14,11.2,41.7,0.1,56.9c-3.1-1.9-6.2-3.9-9.8-6.1
		C192.4,114.6,192.7,99.8,184.2,84.7z"/>
	<path class="st1" d="M380.2,109.1c3.8,1.4,7.3,2.7,11.2,4.2c-3.5,9.4-7,18.6-10.5,28.1c-3.8-1.4-7.3-2.7-11.2-4.2
		C373.2,127.9,376.6,118.7,380.2,109.1z"/>
	<path class="st1" d="M389.8,158c8.7-5.2,17-10.1,25.8-15.4c2,3.3,4,6.6,6.2,10.3c-8.5,5.1-16.9,10.1-25.7,15.4
		C394,164.9,392,161.6,389.8,158z"/>
	<path class="st1" d="M436,187.7c-0.6,4.2-1.1,7.8-1.7,11.9c-10-1.4-19.5-2.7-29.6-4.1c0.5-4,1-7.8,1.6-11.9
		C416.2,185,425.8,186.3,436,187.7z"/>
	<path class="st1" d="M123.3,91.2c3.3,2.1,6.4,4.1,9.8,6.2c-3.3,6.4-3.6,12.6,0.1,19.1c-3.4,2.1-6.6,4.2-9.8,6.2
		C117,114.4,116.9,100.7,123.3,91.2z"/>
	<path class="st1" d="M173.6,122.7c-3.1-2-6.3-3.9-9.7-6.1c3.3-6.3,3.6-12.5,0-19.1c3.3-2.1,6.5-4.1,9.8-6.2
		C180.1,99.4,180.1,114.5,173.6,122.7z"/>
	<path class="st1" d="M148.6,101c3.3,0,5.9,2.8,5.9,6c0,3.2-2.8,6-6,5.9c-3.3,0-5.9-2.8-5.9-6C142.6,103.7,145.3,101,148.6,101z"/>
</g>
<g id="Layer_2">
	<path class="st2" d="M356.7,338.6c12.6,0.1,25.3,0.1,37.9,0.2c1.4,0,2.8-0.1,4.3,0c4.7,0.3,7.8,3.1,8,7.1c0.1,4.1-3.1,7.4-8,7.6
		c-4.1,0.2-8.2,0-12.3,0.1c-4.9,0-9.8,0.1-14.7,0.2c-13,0-26,0-39,0c-94.9,0-189.9,0-284.8,0c-8-0.1-16-0.3-24-0.2
		c-4.5,0.1-8.3-0.8-11.1-4.6c0-1.9,0-3.8,0-5.7c2.6-3.7,6.2-4.6,10.6-4.6c30,0.1,59.9,0.1,89.9,0.1c1.9,0,3.8-0.2,5.7-0.2
		c27.9,0,55.8,0,83.7,0.1c4.8,0,9.5,0,14.3,0c20.6,0,41.3,0,61.9,0C304.9,338.6,330.8,338.6,356.7,338.6z"/>
	<path class="st3" d="M425,204.7c-28.4,0-56.9,0.1-85.3,0c-3.6,0-5.8,0.9-7.6,4.2c-4,7.5-8.5,14.7-12.8,22.1c-1.6,2.7-2.8,3.4-4.6,0
		c-4.4-8-9.2-15.8-13.7-23.7c-0.9-1.5-1.8-2.6-3.6-2.5c-10.4,0.5-20.7-0.1-30.9-2.9c0-6.1,0-12.1,0-18.2
		c11.3-15.1,14.7-32.2,11.7-50.4c-3.8-23-17-39.5-37.4-50.4c0.6-9.9-0.2-19.8,0.9-29.8c2-17.7,15.9-33.1,33.6-36.3
		c3.8-0.7,7.5-0.9,11.3-0.9c45.9,0,91.7,0,137.6,0.1c1,1.4,2.6,1.1,3.9,1.4c17.3,3.1,32.7,22.5,32.3,41.9
		c-0.7,34.7-0.2,69.5-0.2,104.2c0,18.1-13.2,35.1-30.8,39.5C427.8,203.3,426.1,203.5,425,204.7z M311.8,74.2
		c-0.4,1.2-0.7,2.4-1.2,3.5c-3.7,9.8-7.7,19.4-10.9,29.3c-2.8,8.7-0.4,16.7,5.9,23.2c6.5,6.7,14.6,8.8,23.5,6.5
		c13.6-3.6,21-17.4,16.5-30.8c-3.2-9.6-7-18.9-10.7-28.4c-1-2.7-1.1-4,2.5-3.9c7.1,0.2,14.2,0.2,21.3,0c3.2-0.1,4,1.1,4,4.1
		c-0.1,25.5-0.1,50.9,0,76.4c0,3.4-1.2,4.2-4.4,4.2c-9.2-0.2-18.3-0.2-27.5,0c-4.4,0.1-7.2,3.1-7.3,7.1c-0.1,4,2.8,7.1,7.2,7.1
		c26.3,0.1,52.5,0.1,78.8,0c5.2,0,8.3-4,7-8.9c-1-3.9-4-5.5-7.9-5.5c-9,0-18-0.1-27,0c-3,0.1-4.1-0.7-4.1-3.9
		c0.1-25.6,0.1-51.2,0-76.9c0-3.2,1.1-4,4.1-3.9c6.8,0.2,13.6,0.2,20.4,0c3.9-0.1,4.6,0.9,3.2,4.5c-3.7,9.4-7.6,18.8-10.6,28.4
		c-3,9.7-0.6,18.6,7.4,25.2c7.7,6.5,16.5,7.6,25.7,3.4c11-5,16.5-17.4,12.6-29c-3.2-9.4-6.9-18.7-10.5-27.9c-1.3-3.3-1.2-5,3-4.6
		c3.3,0.3,6.6,0.1,10,0c5.2-0.1,8.7-3.2,8.7-7.5c0-3.9-3.5-7-8.4-7.4c-1.3-0.1-2.5,0-3.8,0c-18,0-36.1,0-54.1,0
		c-7.5,0-7.5,0-7.7-7.4c-0.1-5.6-2.5-8.7-7-9c-4.7-0.3-7.5,2.8-7.9,8.7c-0.1,0.8-0.1,1.6,0,2.4c0.8,4.6-1.4,5.4-5.6,5.4
		c-16.9-0.2-33.8,0.2-50.8-0.2c-14.6-0.3-16.8,1.5-17.1,7.4c-0.3,6.1,3.1,7.5,16.8,7.6C307.8,73.7,309.7,73.3,311.8,74.2z"/>
	<path class="st4" d="M48.1,353.8c94.9,0,189.9,0,284.8,0c-3.5,20-7.2,40-10.6,60c-1.4,8.3-3.5,16.1-13.1,18.6
		c-7.9,0.1-15.8,0.2-23.8,0.3c-26.6,0-53.1-0.1-79.7-0.1c-36.7,0-73.4,0.1-110.1,0.1c-6.6,0-13.2,0-19.9-0.1
		c-8.5-0.1-14.2-4.4-15.8-12.7C55.8,397.8,52,375.8,48.1,353.8z"/>
	<path class="st5" d="M95.7,432.7c36.7,0,73.4-0.1,110.1-0.1c26.6,0,53.1,0.1,79.7,0.1c0,21.7,0,43.4,0,65.2
		c-21.5,0-43,0.1-64.5,0.1c-40.2,0-80.4,0-120.5,0.1c-3.6,0-4.8-0.8-4.8-4.7C95.8,473.1,95.7,452.9,95.7,432.7z"/>
	<path class="st6" d="M425,204.7c1.1-1.2,2.8-1.4,4.3-1.8c17.6-4.5,30.8-21.4,30.8-39.5c0-34.8-0.5-69.5,0.2-104.2
		c0.4-19.4-15.1-38.8-32.3-41.9c-1.3-0.2-2.9,0-3.9-1.4c11.4,0,22.8-0.1,34.1,0C479.7,16,499,35.4,499,57c0,35.6,0,71.1,0,106.7
		c0,18.9-15.2,37.1-33.8,40.1C451.8,205.9,438.4,204.3,425,204.7z"/>
	<path class="st7" d="M202.8,338.6c-27.9,0-55.8,0-83.7-0.1c0-11.4,0.3-22.8,0-34.1c-1-30.5,19.5-57.5,46.9-66.6
		c3.7,1.1,5.2,4.7,8,6.8c0.4,0.3,0.9,0.6,1.3,1c0,0-0.1,0-0.1,0c-0.4,2.1,1.1,3.5,2,5.1c9.5,16.4,18.9,32.8,28.4,49.2
		c-3,3.6-2.9,7.9-2.9,12.3C202.9,321,202.8,329.8,202.8,338.6z"/>
	<path class="st8" d="M174,244.6c-2.8-2.1-4.4-5.7-8-6.8c0-3.2-2.6-4.9-4-7.3c-5.9-9.6-8.3-20.1-8.5-31.3c-0.1-5.4,1.1-11-0.9-16.3
		c2.2-3.2,0.8-6.7,0.9-10c0.3-10.5,6-17.5,16.3-18.6c15.1-1.7,30.2-0.5,45.3-0.6c0.1,1.1,0.8,1.6,1.7,2c8.2,3.6,10.7,10.5,10.6,18.8
		c-0.1,8.8,0.2,17.7-0.1,26.5c-0.5,15.3-5.8,28.7-16.6,39.9c-5.6,5.8-12.7,9.1-19.4,13.1c-6-1.7-10.9-5.6-16.2-8.4c0,0,0.1,0,0.1,0
		C174.9,245.3,174.4,245,174,244.6z"/>
	<path class="st7" d="M279,338.6c-20.6,0-41.3,0-61.9,0c0-9.3-0.1-18.6,0.1-27.8c0.1-3.9-0.6-7.4-3.1-10.5
		c6.4-11.2,12.9-22.3,19.2-33.6c3.9-7,8.9-13.3,11.4-21l-0.1,0c0.4-0.3,0.8-0.6,1.2-1c2.5-2.3,5-4.6,7.5-6.9
		c21.3,7.1,35.6,21.4,43.6,42.2c0.7,1.8,1.4,3.5,2.1,5.2c0,10.8-0.1,21.6-0.1,32.4c-5.3,0-10.6,0.3-15.9,0c-3.2-0.1-4,1.1-3.9,4
		C279.1,327.3,279,332.9,279,338.6z"/>
	<path class="st4" d="M215.1,153.7c-15.1,0.2-30.3-1-45.3,0.6c-10.3,1.1-16,8.1-16.3,18.6c-0.1,3.3,1.2,6.9-0.9,10
		c-26.7-40.1-5.8-92.5,39-104.4c0.5,0.3,1,0.7,1.6,0.9c18.3,6.6,31.9,18.5,40.7,36.1c6,12.1,6.5,24.8,6.1,37.9
		C231.6,153.5,223.4,153.6,215.1,153.7z"/>
	<path class="st9" d="M215.1,153.7c8.2-0.1,16.5-0.2,24.7-0.3c2.5,0,5,0.1,7.6,0.1c11,0.2,18.7,7.9,18.9,18.8
		c0.1,3.8,0,7.6,0.1,11.4c0,6.1,0,12.1,0,18.2c-0.6,12.1-4,23.3-11.5,33c-0.7,0.9-1.1,1.9-1.7,2.8c-2.5,2.3-5,4.6-7.5,6.9
		c-0.4,0.3-0.8,0.6-1.2,1c0,0,0.1,0,0.1,0c-16.4,11.4-34,14.7-53.2,8.5c6.7-4.1,13.8-7.4,19.4-13.1c10.8-11.2,16.1-24.6,16.6-39.9
		c0.3-8.8,0-17.7,0.1-26.5c0-8.3-2.4-15.2-10.6-18.8C216,155.3,215.3,154.7,215.1,153.7z"/>
	<path class="st10" d="M266.5,183.7c0-3.8,0-7.6-0.1-11.4c-0.2-10.9-8-18.6-18.9-18.8c-2.5-0.1-5-0.1-7.6-0.1
		c0.4-13-0.1-25.8-6.1-37.9C225,98,211.4,86.1,193.1,79.5c-0.6-0.2-1.1-0.6-1.6-0.9c15.3-4.8,30.2-3.3,44.8,2.5
		c1.5,0.6,2.9,1.2,4.4,1.8c20.4,10.9,33.6,27.4,37.4,50.4C281.2,151.5,277.8,168.6,266.5,183.7z"/>
	<path class="st10" d="M309.2,432.4c9.6-2.5,11.7-10.3,13.1-18.6c3.5-20,7.1-40,10.6-60c13,0,26,0,39,0
		c-3.6,20.3-7.3,40.6-10.9,60.9c-0.4,2.2-0.8,4.3-1.4,6.5c-2,7.3-7.3,11.3-14.9,11.4c-6.8,0.1-13.6,0.1-20.4,0.1
		C319.3,432.6,314.2,432.5,309.2,432.4z"/>
	<path class="st11" d="M309.2,432.4c5,0.1,10.1,0.2,15.1,0.3c0,20.3-0.1,40.7,0.1,61c0,3.5-0.9,4.6-4.5,4.5
		c-11.5-0.3-23-0.2-34.5-0.3c0-21.7,0-43.4,0-65.2C293.3,432.6,301.2,432.5,309.2,432.4z"/>
	<path class="st12" d="M298.7,317.6c0-10.8,0.1-21.6,0.1-32.4c0.1-7.9,0.3-15.8,0.1-23.7c-0.1-3.4,0.7-4.7,4.4-4.6
		c9.8,0.3,19.6,0.2,29.4,0c3.1-0.1,4.1,0.9,4,4c-0.2,6.3-0.1,12.6-0.1,19c0,5,0,10,0,15c0,7.6,0,15.1,0,22.7
		C324,317.6,311.4,317.6,298.7,317.6z"/>
	<path class="st5" d="M298.7,317.6c12.6,0,25.3,0,37.9-0.1c5.5,0,11,0.2,16.5,0.1c2.6-0.1,3.6,0.7,3.5,3.4
		c-0.2,5.8-0.1,11.7-0.1,17.5c-25.9,0-51.8,0-77.7,0c0-5.6,0.1-11.3-0.1-16.9c-0.1-3,0.6-4.2,3.9-4
		C288.1,317.9,293.4,317.6,298.7,317.6z"/>
	<path class="st13" d="M336.7,294.8c0-5,0-10,0-15c19.6,0,39.2,0.1,58.8,0.1c7.5,0,11.2,2.3,11.4,7.1c0.2,5-3.6,7.6-11.3,7.6
		C375.9,294.8,356.3,294.8,336.7,294.8z"/>
	<path class="st14" d="M214.1,300.2c2.5,3.1,3.1,6.6,3.1,10.5c-0.2,9.3-0.1,18.5-0.1,27.8c-4.8,0-9.5,0-14.3,0
		c0-8.8,0.1-17.6,0-26.3c-0.1-4.4-0.2-8.7,2.9-12.3C208.5,299.5,211.3,299.6,214.1,300.2z"/>
	<path class="st15" d="M311.8,74.2c-2-0.9-3.9-0.5-5.8-0.5c-13.8,0-17.2-1.5-16.8-7.6c0.3-5.9,2.6-7.7,17.1-7.4
		c16.9,0.3,33.8,0,50.8,0.2c4.1,0.1,6.4-0.8,5.6-5.4c-0.1-0.8-0.1-1.6,0-2.4c0.4-5.8,3.2-8.9,7.9-8.7c4.5,0.2,6.9,3.4,7,9
		c0.1,7.4,0.1,7.4,7.7,7.4c18,0,36.1,0,54.1,0c1.3,0,2.5-0.1,3.8,0c4.9,0.4,8.4,3.4,8.4,7.4c0,4.3-3.5,7.3-8.7,7.5
		c-3.3,0.1-6.7,0.2-10,0c-4.3-0.4-4.3,1.3-3,4.6c3.6,9.3,7.4,18.5,10.5,27.9c3.9,11.6-1.6,23.9-12.6,29c-9.2,4.2-18,3.1-25.7-3.4
		c-8-6.7-10.4-15.5-7.4-25.2c3-9.6,6.9-19,10.6-28.4c1.5-3.6,0.7-4.7-3.2-4.5c-6.8,0.3-13.6,0.2-20.4,0c-3-0.1-4.1,0.7-4.1,3.9
		c0.1,25.6,0.1,51.2,0,76.9c0,3.2,1.1,4,4.1,3.9c9-0.2,18-0.1,27,0c3.9,0,6.9,1.5,7.9,5.5c1.2,4.9-1.8,8.8-7,8.9
		c-26.3,0.1-52.5,0.1-78.8,0c-4.4,0-7.3-3.2-7.2-7.1c0.1-4,3-7.1,7.3-7.1c9.2-0.2,18.3-0.2,27.5,0c3.2,0.1,4.4-0.7,4.4-4.2
		c-0.1-25.5-0.1-50.9,0-76.4c0-3-0.8-4.2-4-4.1c-7.1,0.2-14.2,0.2-21.3,0c-3.5-0.1-3.5,1.2-2.5,3.9c3.7,9.4,7.5,18.8,10.7,28.4
		c4.5,13.5-2.9,27.3-16.5,30.8c-8.9,2.3-17,0.2-23.5-6.5c-6.3-6.5-8.7-14.5-5.9-23.2c3.2-9.9,7.2-19.5,10.9-29.3
		C311,76.6,311.4,75.4,311.8,74.2z M322.8,86.8c-3.1,8.2-5.9,15.5-8.7,22.8c-1.8,4.6-0.6,8.4,3.1,11.4c3.4,2.7,7.2,2.7,11,0.3
		c4.3-2.8,4.9-7.1,3.5-11.3C329.1,102.4,326,95.1,322.8,86.8z M418,88.3c-0.4,0-0.8-0.1-1.3-0.1c-2.9,7.8-6,15.5-8.6,23.4
		c-1.3,3.9,0.5,7.5,4,9.8c3.5,2.3,7.1,2.4,10.6-0.2c3.5-2.6,5.2-6.1,3.7-10.4C423.7,103.2,420.8,95.8,418,88.3z"/>
	<path class="st16" d="M214.1,300.2c-2.8-0.6-5.6-0.8-8.4-0.3c-9.5-16.4-19-32.8-28.4-49.2c-0.9-1.6-2.4-3-2-5.1
		c5.4,2.9,10.2,6.8,16.2,8.4c19.2,6.3,36.8,2.9,53.2-8.5c-2.5,7.7-7.5,14-11.4,21C227,277.9,220.5,289,214.1,300.2z"/>
	<path class="st16" d="M174,244.6c0.4,0.3,0.9,0.7,1.3,1C174.9,245.3,174.4,245,174,244.6z"/>
	<path class="st16" d="M244.6,245.6c0.4-0.3,0.8-0.6,1.2-1C245.4,245,245,245.3,244.6,245.6z"/>
	<path class="st3" d="M322.8,86.8c3.2,8.3,6.4,15.6,8.8,23.2c1.4,4.2,0.8,8.5-3.5,11.3c-3.7,2.4-7.5,2.5-11-0.3
		c-3.7-2.9-4.9-6.8-3.1-11.4C316.9,102.3,319.6,95,322.8,86.8z"/>
	<path class="st3" d="M418,88.3c2.8,7.5,5.7,15,8.4,22.5c1.5,4.3-0.2,7.7-3.7,10.4c-3.4,2.6-7.1,2.5-10.6,0.2
		c-3.5-2.3-5.3-5.9-4-9.8c2.5-7.9,5.7-15.6,8.6-23.4C417.1,88.2,417.6,88.2,418,88.3z"/>
</g>
</svg>
