<?xml version="1.0" encoding="utf-8"?>
<!-- Generator: Adobe Illustrator 23.0.6, SVG Export Plug-In . SVG Version: 6.00 Build 0)  -->
<svg version="1.1" id="Layer_1" xmlns="http://www.w3.org/2000/svg" xmlns:xlink="http://www.w3.org/1999/xlink" x="0px" y="0px"
	 viewBox="0 0 512 512" style="enable-background:new 0 0 512 512;" xml:space="preserve">
<style type="text/css">
	.st0{fill:#040404;}
	.st1{fill:#020202;}
	.st2{fill:#060606;}
	.st3{fill:#050505;}
</style>
<path d="M224.5,381.6c63.3,0,126.6,0,190,0.1c4.2,0,5.3-0.9,5.3-5.2c-0.2-42.8,0-85.6-0.2-128.3c0-4.1,0.8-5.4,5.2-5.3
	c11.2,0.3,11.2,0.1,11.2,11.3c0,49.6,0,99.1,0,148.7c0,17.9-9.7,27.6-27.7,27.6c-51.6,0-103.2,0-154.8-0.1c-3.8,0-5.1,0.8-5,4.9
	c0.3,11.5,0.1,11.5,11.5,11.5c9.5,0,19-0.1,28.5,0c10.1,0.1,16.9,6.8,17.1,16.9c0.1,5.3,0.1,10.5,0,15.8c-0.2,9.2-7,16.2-16.2,16.2
	c-43.5,0.1-86.9,0.1-130.4,0c-9.4,0-16.2-7.1-16.4-16.5c-0.1-5.1-0.1-10.2,0-15.3c0.1-10.1,6.8-16.9,16.9-17
	c12.1-0.1,24.1-0.1,36.2,0c2.9,0,4.1-0.4,4.1-3.8c0-12.6,0.2-12.6-12.5-12.6c-49.2,0-98.5,0-147.7,0c-17.6,0-27.4-9.7-27.4-27.4
	c0-85,0-170.1,0-255.1c0-17.3,9.8-27.2,27.1-27.2c19.4,0,38.7-0.1,58.1,0.1c3.5,0,22,0,26,0c61.6-0.1,123.2,0,184.9-0.2
	c4.8,0,5.7,1.4,5.6,5.8c-0.3,10.6-0.1,10.6-10.9,10.6c-87.4,0-174.9,0-262.3,0c-10,0-12.2,2.1-12.2,12.3c0,75.7,0,151.4-0.1,227.1
	c0,4.2,1,5.2,5.2,5.2C97.2,381.5,160.9,381.6,224.5,381.6z M224.3,397.9c-63.3,0-126.6,0-189.9,0c-1.2,0-2.4,0.1-3.6,0
	c-1.6-0.1-2.3,0.2-2.5,2.1c-1.3,10.3,2,14.2,12.3,14.2c95.9,0,191.7,0,287.6,0c26.6,0,53.3,0,79.9,0c1.9,0,3.8,0.1,5.5-0.4
	c4.8-1.4,6.9-6.1,5.8-13.6c-0.7-4.6-4.6-2.1-6.9-2.1C349.9,397.9,287.1,397.9,224.3,397.9z M223.6,479.4c17.8,0,35.7,0,53.5,0
	c12.3,0,12.2,0,12.3-12.3c0-3.5-1-4.1-4.2-4.1c-14.4,0.2-28.9,0.1-43.3,0.1c-6.6,0-9.5-3-9.6-9.7c0-3.4,0-6.8,0-10.2
	c0-13.4,0-13.3-13.3-12.8c-2.5,0.1-3.1,0.8-3.1,3.2c0.1,6.6,0.1,13.2,0,19.9c-0.1,6.6-3,9.6-9.7,9.6c-11.7,0.1-23.4,0-35.1,0
	c-12.3,0-12.2,0-12.3,12.3c0,3.4,1,4.1,4.2,4.1C183.2,479.3,203.4,479.4,223.6,479.4z"/>
<path class="st0" d="M373.9,203.3c-1.7-0.5-3.5,0.6-5.4,1.5c-11.2,5.6-22.3,11.3-33.6,16.7c-3.4,1.6-4.2,2.7-2,6.1
	c5.4,8.4,10.4,17.1,15.4,25.7c3.6,6,2.6,10-3.4,13.6c-8.4,5.1-16.8,10.1-25.3,15.1c-5.8,3.4-9.6,2.3-13.2-3.5
	c-5.9-9.7-11.8-19.4-17.4-29.3c-1.7-2.9-3-3.6-6.2-2c-9.4,4.9-11.6,4.1-17.1-5c-4.3-7.3-8.7-14.5-13-21.8c-3.9-6.7-3.2-10,3.2-14.5
	c26.4-18.7,52.9-37.4,79.4-56c2.3-1.6,3.8-3.6,4.9-6.2c9-22.3,18.2-44.4,27.3-66.7c1.6-4,3.6-7.5,8.3-7.8c4.6-0.3,6.8,2.9,8.9,6.4
	c24,40.3,48,80.6,72.1,120.9c2.2,3.7,3.9,7.3,1.2,11.3c-2.7,4.1-6.8,3.8-11,3.3C422.9,208.5,398.6,205.9,373.9,203.3z M436.1,193.4
	c-19.7-33-38.9-65.1-58.5-97.9c-8.1,19.8-15.9,38.6-23.5,57.5c-1.4,3.4-3.4,6-6.5,8.2c-16.1,11.3-32.1,22.7-48.3,33.9
	c-2.7,1.9-3,3.2-1.2,5.9c2.8,4.1,5.2,8.3,7.5,12.7c1.4,2.8,2.7,2.9,5.5,1.5c17.8-9,35.7-17.9,53.5-26.8c2.3-1.2,4.6-2,7.3-1.7
	c6.2,0.7,12.5,1.3,18.7,1.9C405.5,190.2,420.4,191.7,436.1,193.4z M301.6,238.5c4.7,7.9,9.5,15.9,14.2,23.9c1,1.8,1.9,1.7,3.5,0.8
	c12.3-6.1,12.4-6.1,5.3-17.9c-0.4-0.7-0.8-1.5-1.3-2.2c-2.6-3.9-4-10.6-7.7-11.2c-4-0.6-8.7,3.6-13.1,5.8
	C302.3,237.9,302,238.1,301.6,238.5z M282.3,207.4c-0.3,0.2-0.6,0.3-0.9,0.5c-3.6,2.5-7.2,5.1-10.8,7.6c-1.1,0.8-0.8,1.7-0.2,2.6
	c2.8,4.2,4.1,10.3,8.3,12.3c3,1.4,7.3-3.1,11.2-4.8c0.2-0.1,0.3-0.1,0.5-0.2c2-0.8,2.4-1.9,1.1-3.8c-2.6-4.1-5-8.4-7.6-12.6
	C283.6,208.3,283.3,207.5,282.3,207.4z"/>
<path class="st1" d="M159.1,242.8c5.4,0.7,10.1,0,14.8,1.1c14.7,3.4,25.4,15.8,25.5,30.9c0.2,23.6,0,47.2,0.2,70.8
	c0,2.9-0.8,3.6-3.6,3.6c-12.7,0.1-12.7,0.2-12.7-12.3c0-19.7,0-39.4,0-59.1c0-11.8-6.5-18.3-18.2-18.3c-20.5,0-41.1,0-61.6,0
	c-11.5,0-18,6.5-18,18c0,22.2-0.2,44.5,0.1,66.7c0.1,4.4-1.3,5.2-5.3,5.1c-11.1-0.3-11.1-0.1-11.1-11.4c0-19.7,0-39.4,0-59.1
	c0-22.1,13.3-35.5,35.4-35.6c1.5,0,2.9,0,5.4,0c-11.3-9.6-16.8-20.9-16.2-34.8c0.5-11.2,5.1-20.6,13.4-28.2
	c16.7-15.3,42.7-13.8,57.9,3.3C180.4,200.7,178.1,225.9,159.1,242.8z M134.3,186c-13.3,0.1-24.2,11-24.3,24.3
	c-0.1,13.5,11,24.6,24.5,24.6c13.3,0,24.3-11,24.3-24.3C158.8,197,147.8,186,134.3,186z"/>
<path d="M109.9,312.8c0,10.9-0.1,21.7,0.1,32.6c0,2.9-0.8,3.6-3.6,3.6c-12.7,0.1-12.7,0.2-12.7-12.3c0-19,0.1-38-0.1-57
	c0-3.3,0.8-4.2,4.2-4.2c12.2,0.1,12.2-0.1,12.2,12.3C109.9,296.2,109.9,304.5,109.9,312.8z"/>
<path d="M175.1,312.8c0,10.9-0.1,21.7,0.1,32.6c0,2.9-0.8,3.6-3.6,3.7c-12.7,0.1-12.7,0.2-12.7-12.3c0-19,0.1-38-0.1-57
	c0-3.3,0.8-4.2,4.2-4.2c12.2,0.1,12.2-0.1,12.2,12.3C175.1,296.2,175.1,304.5,175.1,312.8z"/>
<path class="st2" d="M495.6,172.9c-12-1.7-23.5-3.3-35.1-4.9c-0.2,0-0.4,0-0.5-0.1c-4.5-4.4,0.3-9.1-0.4-13.7
	c-0.3-2.1,1.1-2.6,3.3-2.3c11.4,1.7,22.8,3.1,34.2,4.7c0.5,0.1,1.2-0.1,1.5,0.2c3.8,4.3-0.4,8.8,0.1,13.2
	C498.8,172,497.8,173.7,495.6,172.9z"/>
<path class="st2" d="M425.8,50.7c4.4,1.7,8.7,3.3,12.9,5c1.9,0.8,0.5,2.1,0.2,2.9c-4,11.1-8.2,22.1-12.3,33.2
	c-0.8,2.2-1.9,2.1-3.8,1.5c-12.8-4.1-12.9-4.1-8.1-16.8c2.9-7.7,5.8-15.5,8.7-23.2C424,52.1,424,50.4,425.8,50.7z"/>
<path class="st3" d="M480.6,109c0.1,1.4-1.1,1.6-1.9,2.1c-10,6-20.1,11.9-30,18c-2.2,1.3-3,0.8-4.3-1.1c-7.3-11-7.3-11,3.7-17.6
	c7.2-4.3,14.6-8.6,21.7-13.1c2.3-1.5,3.4-1.2,4.7,1.2C476.3,102.2,478.6,105.6,480.6,109z"/>
</svg>
