<?xml version="1.0" encoding="utf-8"?>
<!-- Generator: Adobe Illustrator 23.0.6, SVG Export Plug-In . SVG Version: 6.00 Build 0)  -->
<svg version="1.1" xmlns="http://www.w3.org/2000/svg" xmlns:xlink="http://www.w3.org/1999/xlink" x="0px" y="0px"
	 viewBox="0 0 512 512" style="enable-background:new 0 0 512 512;" xml:space="preserve">
<style type="text/css">
	.st0{display:none;}
	.st1{display:inline;}
	.st2{display:inline;fill:#B16D44;}
	.st3{display:inline;fill:#FDF5DF;}
	.st4{display:inline;fill:#CB8B66;}
	.st5{display:inline;fill:#FEE901;}
	.st6{display:inline;fill:#FEEFCB;}
	.st7{display:inline;fill:#828CB2;}
	.st8{display:inline;fill:#FEC9B8;}
	.st9{display:inline;fill:#F9BAA6;}
	.st10{display:inline;fill:#BF7951;}
	.st11{display:inline;fill:#FED801;}
	.st12{display:inline;fill:#CB8C68;}
	.st13{display:inline;fill:#AF6A41;}
	.st14{display:inline;fill:#717EB2;}
	.st15{display:inline;fill:#848DB3;}
	.st16{display:inline;fill:#FDF7E9;}
	.st17{display:inline;fill:#030303;}
	.st18{display:inline;fill:#F5F2F5;}
	.st19{display:inline;fill:#EBE8EB;}
	.st20{display:inline;fill:#040404;}
	.st21{display:inline;fill:#EAC581;}
	.st22{display:inline;fill:#B8DA91;}
	.st23{display:inline;fill:#E6C17F;}
	.st24{display:inline;fill:#8F858F;}
	.st25{display:inline;fill:#030304;}
	.st26{display:inline;fill:#070707;}
	.st27{display:inline;fill:#B18989;}
	.st28{display:inline;fill:#97C0F3;}
	.st29{display:inline;fill:#99C2F6;}
	.st30{fill:#030403;}
	.st31{fill:#040404;}
	.st32{fill:#FB6946;}
	.st33{fill:#3F3F3F;}
	.st34{fill:#B4E4F8;}
	.st35{fill:#FDEE8E;}
	.st36{fill:#69BDC5;}
	.st37{fill:#B5EDBA;}
	.st38{fill:#16A3AD;}
	.st39{fill:#87D2F0;}
	.st40{fill:#87E093;}
	.st41{fill:#E6D460;}
	.st42{fill:#FD9C86;}
	.st43{fill:#606060;}
	.st44{fill:#FAE0BE;}
	.st45{fill:#FDFDFD;}
</style>
<g id="Layer_1" class="st0">
	<path class="st1" d="M376.6,352.7c0-34,0-67.7,0-101.5c4,0,7.7,0,11.9,0c0,1.3,0,2.7,0,4c0,38,0,76,0,114
		c0,12.5-7.3,19.8-19.8,19.8c-37.7,0-75.5,0-113.2,0c-1.5,0-3,0-4.7,0c0,4,0,7.8,0,12c7.9,0,15.7,0,23.5,0c2.2,0,4.5-0.1,6.7,0
		c6.2,0.3,11.1,5.1,11.4,11.3c0.2,4.2,0.2,8.5,0,12.7c-0.2,7.1-5.3,11.9-12.7,11.9c-24.6,0-49.2,0-73.9,0c-6.9,0-13.8,0-20.6,0
		c-7.7-0.1-12.6-5-12.7-12.7c0-3.6-0.1-7.3,0-10.9c0.1-7.4,5.1-12.4,12.6-12.4c9.6-0.1,19.2,0,29.1,0c0-3.9,0-7.7,0-12
		c-1.4,0-2.9,0-4.3,0c-37.7,0-75.5,0-113.2,0c-13,0-20.1-7.2-20.1-20.2c0-62.5,0-125,0-187.5c0-13.2,7.1-20.3,20.4-20.3
		c15,0,30,0,45.4,0c0-11.9,0-23.7,0-35.8c4.2,0,8,0,12.1,0c0,11.8,0,23.5,0,35.6c48.1,0,95.9,0,143.9,0c0,4.2,0,8,0,12.1
		c-1.6,0-3,0-4.5,0c-65.4,0-130.7,0-196.1,0c-7.6,0-9.1,1.5-9.1,9.2c0,55.4,0,110.7,0,166.1c0,1.4,0,2.7,0,4.4
		C184.5,352.7,280.3,352.7,376.6,352.7z M376.5,365.2c-96.2,0-192,0-287.7,0c-0.9,10.2,0.5,11.8,10.3,11.8c89.2,0,178.4,0,267.6,0
		c1.2,0,2.5,0.1,3.7,0c3.6-0.2,5.8-2.4,6-5.9C376.6,369.2,376.5,367.3,376.5,365.2z M184.6,424.8c32.1,0,63.9,0,95.6,0
		c0-4,0-7.8,0-11.8c-11.5,0-22.8,0-34,0c-5.7,0-7.7-2-7.7-7.7c0-5.3,0-10.7,0-16.1c-4.2,0-8,0-12,0c0,5.6,0,10.9,0,16.3
		c0,5.3-2.1,7.4-7.5,7.4c-10.1,0-20.2,0-30.4,0c-1.3,0-2.6,0-4,0C184.6,417.2,184.6,420.8,184.6,424.8z"/>
	<path class="st1" d="M278.7,252.8c-2,1-3.5,1.8-5.1,2.5c-3.9,1.8-6.6,1-8.9-2.7c-3.8-6.2-7.5-12.4-11.1-18.6
		c-2.6-4.5-2.1-7.1,2.3-10.1c19-13.4,37.9-26.9,56.9-40.2c2.9-2,4.8-4.3,6.1-7.6c6.3-15.9,12.9-31.6,19.4-47.5
		c1.2-2.8,2.6-5.2,5.9-5.5c3.4-0.3,5.1,2,6.6,4.6c17.8,29.8,35.5,59.6,53.4,89.4c1.6,2.6,2.6,5.2,0.7,8c-1.9,2.8-4.7,2.8-7.7,2.5
		c-17.6-1.9-35.3-3.8-52.9-5.7c-1.3-0.1-2.9-0.2-4,0.4c-9.6,4.7-19.2,9.5-29.2,14.4c4.1,6.8,8,13.4,11.9,20
		c4.1,6.8,3.6,8.9-3.1,12.9c-5.5,3.3-10.9,6.5-16.4,9.8c-4.9,2.8-7.5,2.1-10.5-2.8C288.2,268.8,283.6,261,278.7,252.8z M294.1,231.6
		c14.1-7,27.8-13.9,41.6-20.5c2.1-1,4.8-1.5,7.1-1.4c9,0.7,17.9,1.8,26.8,2.7c6.1,0.6,12.2,1.2,19,1.9c-14.5-24.3-28.6-47.9-43-72
		c-6,14.7-11.6,28.6-17.4,42.3c-1,2.3-2.8,4.5-4.7,6c-11.7,8.5-23.6,16.8-35.4,25.1c-0.8,0.5-1.5,1.2-2.3,1.9
		C288.5,222.3,291.2,226.8,294.1,231.6z M289.5,247.4c3.9,6.5,7.7,12.8,11.6,19.3c3.5-2.1,6.8-4,10.3-6.1
		c-3.8-6.3-7.4-12.3-11.1-18.5C296.5,243.9,293.1,245.6,289.5,247.4z M272.5,242.4c3.8-1.9,7.1-3.6,10.7-5.4
		c-2.6-4.3-5-8.3-7.5-12.6c-3.4,2.4-6.5,4.6-9.8,6.9C268.2,235.1,270.3,238.6,272.5,242.4z"/>
	<path class="st1" d="M214.4,328.8c-4.1,0-7.8,0-11.9,0c0-1.5,0-2.9,0-4.2c0-16.1,0-32.2,0-48.4c0-8.4-4.9-13.2-13.3-13.3
		c-15.1,0-30.2,0-45.4,0c-8.6,0-13.4,4.8-13.4,13.5c0,16,0,32,0,48c0,1.3,0,2.7,0,4.3c-4,0-7.7,0-12,0c0-1.2,0-2.5,0-3.8
		c0-16,0-32,0-48c0-16,9.9-25.9,25.9-26c1.1,0,2.1,0,3.5,0c-14.6-16.9-15.1-33.9-1.6-46.3c11.9-10.9,30.3-10.4,41.6,1.2
		c12.3,12.5,11.3,30-2.7,44.8c3.4,0.3,6.8,0.2,10,0.9c10.4,2,18.7,10.3,19,20.8C214.8,291.1,214.4,309.8,214.4,328.8z M166.4,209
		c-9.8,0-17.8,8.1-17.9,17.9c0,10,8.1,18.1,18.1,18.1c9.8,0,17.9-8.1,17.9-17.9C184.5,217.1,176.4,209,166.4,209z"/>
	<path class="st1" d="M136.8,275.2c3.9,0,7.6,0,11.5,0c0,17.8,0,35.5,0,53.5c-3.7,0-7.5,0-11.5,0C136.8,311,136.8,293.3,136.8,275.2
		z"/>
	<path class="st1" d="M196.2,328.8c-3.9,0-7.6,0-11.5,0c0-17.8,0-35.5,0-53.5c3.7,0,7.5,0,11.5,0C196.2,293,196.2,310.7,196.2,328.8
		z"/>
	<path class="st1" d="M103,78.5c3.3,2.1,6.5,4.1,9.7,6.2c-8.3,14.9-8.4,29.6,0,44.7c-3.3,2.1-6.5,4.1-9.7,6.1
		C91.9,122.4,91.8,93.4,103,78.5z"/>
	<path class="st1" d="M184.2,84.7c3.5-2.2,6.7-4.2,9.8-6.1c11.1,14,11.2,41.7,0.1,56.9c-3.1-1.9-6.2-3.9-9.8-6.1
		C192.4,114.6,192.7,99.8,184.2,84.7z"/>
	<path class="st1" d="M380.2,109.1c3.8,1.4,7.3,2.7,11.2,4.2c-3.5,9.4-7,18.6-10.5,28.1c-3.8-1.4-7.3-2.7-11.2-4.2
		C373.2,127.9,376.6,118.7,380.2,109.1z"/>
	<path class="st1" d="M389.8,158c8.7-5.2,17-10.1,25.8-15.4c2,3.3,4,6.6,6.2,10.3c-8.5,5.1-16.9,10.1-25.7,15.4
		C394,164.9,392,161.6,389.8,158z"/>
	<path class="st1" d="M436,187.7c-0.6,4.2-1.1,7.8-1.7,11.9c-10-1.4-19.5-2.7-29.6-4.1c0.5-4,1-7.8,1.6-11.9
		C416.2,185,425.8,186.3,436,187.7z"/>
	<path class="st1" d="M123.3,91.2c3.3,2.1,6.4,4.1,9.8,6.2c-3.3,6.4-3.6,12.6,0.1,19.1c-3.4,2.1-6.6,4.2-9.8,6.2
		C117,114.4,116.9,100.7,123.3,91.2z"/>
	<path class="st1" d="M173.6,122.7c-3.1-2-6.3-3.9-9.7-6.1c3.3-6.3,3.6-12.5,0-19.1c3.3-2.1,6.5-4.1,9.8-6.2
		C180.1,99.4,180.1,114.5,173.6,122.7z"/>
	<path class="st1" d="M148.6,101c3.3,0,5.9,2.8,5.9,6c0,3.2-2.8,6-6,5.9c-3.3,0-5.9-2.8-5.9-6C142.6,103.7,145.3,101,148.6,101z"/>
</g>
<g id="Layer_2" class="st0">
	<path class="st2" d="M356.7,338.6c12.6,0.1,25.3,0.1,37.9,0.2c1.4,0,2.8-0.1,4.3,0c4.7,0.3,7.8,3.1,8,7.1c0.1,4.1-3.1,7.4-8,7.6
		c-4.1,0.2-8.2,0-12.3,0.1c-4.9,0-9.8,0.1-14.7,0.2c-13,0-26,0-39,0c-94.9,0-189.9,0-284.8,0c-8-0.1-16-0.3-24-0.2
		c-4.5,0.1-8.3-0.8-11.1-4.6c0-1.9,0-3.8,0-5.7c2.6-3.7,6.2-4.6,10.6-4.6c30,0.1,59.9,0.1,89.9,0.1c1.9,0,3.8-0.2,5.7-0.2
		c27.9,0,55.8,0,83.7,0.1c4.8,0,9.5,0,14.3,0c20.6,0,41.3,0,61.9,0C304.9,338.6,330.8,338.6,356.7,338.6z"/>
	<path class="st3" d="M425,204.7c-28.4,0-56.9,0.1-85.3,0c-3.6,0-5.8,0.9-7.6,4.2c-4,7.5-8.5,14.7-12.8,22.1c-1.6,2.7-2.8,3.4-4.6,0
		c-4.4-8-9.2-15.8-13.7-23.7c-0.9-1.5-1.8-2.6-3.6-2.5c-10.4,0.5-20.7-0.1-30.9-2.9c0-6.1,0-12.1,0-18.2
		c11.3-15.1,14.7-32.2,11.7-50.4c-3.8-23-17-39.5-37.4-50.4c0.6-9.9-0.2-19.8,0.9-29.8c2-17.7,15.9-33.1,33.6-36.3
		c3.8-0.7,7.5-0.9,11.3-0.9c45.9,0,91.7,0,137.6,0.1c1,1.4,2.6,1.1,3.9,1.4c17.3,3.1,32.7,22.5,32.3,41.9
		c-0.7,34.7-0.2,69.5-0.2,104.2c0,18.1-13.2,35.1-30.8,39.5C427.8,203.3,426.1,203.5,425,204.7z M311.8,74.2
		c-0.4,1.2-0.7,2.4-1.2,3.5c-3.7,9.8-7.7,19.4-10.9,29.3c-2.8,8.7-0.4,16.7,5.9,23.2c6.5,6.7,14.6,8.8,23.5,6.5
		c13.6-3.6,21-17.4,16.5-30.8c-3.2-9.6-7-18.9-10.7-28.4c-1-2.7-1.1-4,2.5-3.9c7.1,0.2,14.2,0.2,21.3,0c3.2-0.1,4,1.1,4,4.1
		c-0.1,25.5-0.1,50.9,0,76.4c0,3.4-1.2,4.2-4.4,4.2c-9.2-0.2-18.3-0.2-27.5,0c-4.4,0.1-7.2,3.1-7.3,7.1c-0.1,4,2.8,7.1,7.2,7.1
		c26.3,0.1,52.5,0.1,78.8,0c5.2,0,8.3-4,7-8.9c-1-3.9-4-5.5-7.9-5.5c-9,0-18-0.1-27,0c-3,0.1-4.1-0.7-4.1-3.9
		c0.1-25.6,0.1-51.2,0-76.9c0-3.2,1.1-4,4.1-3.9c6.8,0.2,13.6,0.2,20.4,0c3.9-0.1,4.6,0.9,3.2,4.5c-3.7,9.4-7.6,18.8-10.6,28.4
		c-3,9.7-0.6,18.6,7.4,25.2c7.7,6.5,16.5,7.6,25.7,3.4c11-5,16.5-17.4,12.6-29c-3.2-9.4-6.9-18.7-10.5-27.9c-1.3-3.3-1.2-5,3-4.6
		c3.3,0.3,6.6,0.1,10,0c5.2-0.1,8.7-3.2,8.7-7.5c0-3.9-3.5-7-8.4-7.4c-1.3-0.1-2.5,0-3.8,0c-18,0-36.1,0-54.1,0
		c-7.5,0-7.5,0-7.7-7.4c-0.1-5.6-2.5-8.7-7-9c-4.7-0.3-7.5,2.8-7.9,8.7c-0.1,0.8-0.1,1.6,0,2.4c0.8,4.6-1.4,5.4-5.6,5.4
		c-16.9-0.2-33.8,0.2-50.8-0.2c-14.6-0.3-16.8,1.5-17.1,7.4c-0.3,6.1,3.1,7.5,16.8,7.6C307.8,73.7,309.7,73.3,311.8,74.2z"/>
	<path class="st4" d="M48.1,353.8c94.9,0,189.9,0,284.8,0c-3.5,20-7.2,40-10.6,60c-1.4,8.3-3.5,16.1-13.1,18.6
		c-7.9,0.1-15.8,0.2-23.8,0.3c-26.6,0-53.1-0.1-79.7-0.1c-36.7,0-73.4,0.1-110.1,0.1c-6.6,0-13.2,0-19.9-0.1
		c-8.5-0.1-14.2-4.4-15.8-12.7C55.8,397.8,52,375.8,48.1,353.8z"/>
	<path class="st5" d="M95.7,432.7c36.7,0,73.4-0.1,110.1-0.1c26.6,0,53.1,0.1,79.7,0.1c0,21.7,0,43.4,0,65.2
		c-21.5,0-43,0.1-64.5,0.1c-40.2,0-80.4,0-120.5,0.1c-3.6,0-4.8-0.8-4.8-4.7C95.8,473.1,95.7,452.9,95.7,432.7z"/>
	<path class="st6" d="M425,204.7c1.1-1.2,2.8-1.4,4.3-1.8c17.6-4.5,30.8-21.4,30.8-39.5c0-34.8-0.5-69.5,0.2-104.2
		c0.4-19.4-15.1-38.8-32.3-41.9c-1.3-0.2-2.9,0-3.9-1.4c11.4,0,22.8-0.1,34.1,0C479.7,16,499,35.4,499,57c0,35.6,0,71.1,0,106.7
		c0,18.9-15.2,37.1-33.8,40.1C451.8,205.9,438.4,204.3,425,204.7z"/>
	<path class="st7" d="M202.8,338.6c-27.9,0-55.8,0-83.7-0.1c0-11.4,0.3-22.8,0-34.1c-1-30.5,19.5-57.5,46.9-66.6
		c3.7,1.1,5.2,4.7,8,6.8c0.4,0.3,0.9,0.6,1.3,1c0,0-0.1,0-0.1,0c-0.4,2.1,1.1,3.5,2,5.1c9.5,16.4,18.9,32.8,28.4,49.2
		c-3,3.6-2.9,7.9-2.9,12.3C202.9,321,202.8,329.8,202.8,338.6z"/>
	<path class="st8" d="M174,244.6c-2.8-2.1-4.4-5.7-8-6.8c0-3.2-2.6-4.9-4-7.3c-5.9-9.6-8.3-20.1-8.5-31.3c-0.1-5.4,1.1-11-0.9-16.3
		c2.2-3.2,0.8-6.7,0.9-10c0.3-10.5,6-17.5,16.3-18.6c15.1-1.7,30.2-0.5,45.3-0.6c0.1,1.1,0.8,1.6,1.7,2c8.2,3.6,10.7,10.5,10.6,18.8
		c-0.1,8.8,0.2,17.7-0.1,26.5c-0.5,15.3-5.8,28.7-16.6,39.9c-5.6,5.8-12.7,9.1-19.4,13.1c-6-1.7-10.9-5.6-16.2-8.4c0,0,0.1,0,0.1,0
		C174.9,245.3,174.4,245,174,244.6z"/>
	<path class="st7" d="M279,338.6c-20.6,0-41.3,0-61.9,0c0-9.3-0.1-18.6,0.1-27.8c0.1-3.9-0.6-7.4-3.1-10.5
		c6.4-11.2,12.9-22.3,19.2-33.6c3.9-7,8.9-13.3,11.4-21l-0.1,0c0.4-0.3,0.8-0.6,1.2-1c2.5-2.3,5-4.6,7.5-6.9
		c21.3,7.1,35.6,21.4,43.6,42.2c0.7,1.8,1.4,3.5,2.1,5.2c0,10.8-0.1,21.6-0.1,32.4c-5.3,0-10.6,0.3-15.9,0c-3.2-0.1-4,1.1-3.9,4
		C279.1,327.3,279,332.9,279,338.6z"/>
	<path class="st4" d="M215.1,153.7c-15.1,0.2-30.3-1-45.3,0.6c-10.3,1.1-16,8.1-16.3,18.6c-0.1,3.3,1.2,6.9-0.9,10
		c-26.7-40.1-5.8-92.5,39-104.4c0.5,0.3,1,0.7,1.6,0.9c18.3,6.6,31.9,18.5,40.7,36.1c6,12.1,6.5,24.8,6.1,37.9
		C231.6,153.5,223.4,153.6,215.1,153.7z"/>
	<path class="st9" d="M215.1,153.7c8.2-0.1,16.5-0.2,24.7-0.3c2.5,0,5,0.1,7.6,0.1c11,0.2,18.7,7.9,18.9,18.8
		c0.1,3.8,0,7.6,0.1,11.4c0,6.1,0,12.1,0,18.2c-0.6,12.1-4,23.3-11.5,33c-0.7,0.9-1.1,1.9-1.7,2.8c-2.5,2.3-5,4.6-7.5,6.9
		c-0.4,0.3-0.8,0.6-1.2,1c0,0,0.1,0,0.1,0c-16.4,11.4-34,14.7-53.2,8.5c6.7-4.1,13.8-7.4,19.4-13.1c10.8-11.2,16.1-24.6,16.6-39.9
		c0.3-8.8,0-17.7,0.1-26.5c0-8.3-2.4-15.2-10.6-18.8C216,155.3,215.3,154.7,215.1,153.7z"/>
	<path class="st10" d="M266.5,183.7c0-3.8,0-7.6-0.1-11.4c-0.2-10.9-8-18.6-18.9-18.8c-2.5-0.1-5-0.1-7.6-0.1
		c0.4-13-0.1-25.8-6.1-37.9C225,98,211.4,86.1,193.1,79.5c-0.6-0.2-1.1-0.6-1.6-0.9c15.3-4.8,30.2-3.3,44.8,2.5
		c1.5,0.6,2.9,1.2,4.4,1.8c20.4,10.9,33.6,27.4,37.4,50.4C281.2,151.5,277.8,168.6,266.5,183.7z"/>
	<path class="st10" d="M309.2,432.4c9.6-2.5,11.7-10.3,13.1-18.6c3.5-20,7.1-40,10.6-60c13,0,26,0,39,0
		c-3.6,20.3-7.3,40.6-10.9,60.9c-0.4,2.2-0.8,4.3-1.4,6.5c-2,7.3-7.3,11.3-14.9,11.4c-6.8,0.1-13.6,0.1-20.4,0.1
		C319.3,432.6,314.2,432.5,309.2,432.4z"/>
	<path class="st11" d="M309.2,432.4c5,0.1,10.1,0.2,15.1,0.3c0,20.3-0.1,40.7,0.1,61c0,3.5-0.9,4.6-4.5,4.5
		c-11.5-0.3-23-0.2-34.5-0.3c0-21.7,0-43.4,0-65.2C293.3,432.6,301.2,432.5,309.2,432.4z"/>
	<path class="st12" d="M298.7,317.6c0-10.8,0.1-21.6,0.1-32.4c0.1-7.9,0.3-15.8,0.1-23.7c-0.1-3.4,0.7-4.7,4.4-4.6
		c9.8,0.3,19.6,0.2,29.4,0c3.1-0.1,4.1,0.9,4,4c-0.2,6.3-0.1,12.6-0.1,19c0,5,0,10,0,15c0,7.6,0,15.1,0,22.7
		C324,317.6,311.4,317.6,298.7,317.6z"/>
	<path class="st5" d="M298.7,317.6c12.6,0,25.3,0,37.9-0.1c5.5,0,11,0.2,16.5,0.1c2.6-0.1,3.6,0.7,3.5,3.4
		c-0.2,5.8-0.1,11.7-0.1,17.5c-25.9,0-51.8,0-77.7,0c0-5.6,0.1-11.3-0.1-16.9c-0.1-3,0.6-4.2,3.9-4
		C288.1,317.9,293.4,317.6,298.7,317.6z"/>
	<path class="st13" d="M336.7,294.8c0-5,0-10,0-15c19.6,0,39.2,0.1,58.8,0.1c7.5,0,11.2,2.3,11.4,7.1c0.2,5-3.6,7.6-11.3,7.6
		C375.9,294.8,356.3,294.8,336.7,294.8z"/>
	<path class="st14" d="M214.1,300.2c2.5,3.1,3.1,6.6,3.1,10.5c-0.2,9.3-0.1,18.5-0.1,27.8c-4.8,0-9.5,0-14.3,0
		c0-8.8,0.1-17.6,0-26.3c-0.1-4.4-0.2-8.7,2.9-12.3C208.5,299.5,211.3,299.6,214.1,300.2z"/>
	<path class="st15" d="M311.8,74.2c-2-0.9-3.9-0.5-5.8-0.5c-13.8,0-17.2-1.5-16.8-7.6c0.3-5.9,2.6-7.7,17.1-7.4
		c16.9,0.3,33.8,0,50.8,0.2c4.1,0.1,6.4-0.8,5.6-5.4c-0.1-0.8-0.1-1.6,0-2.4c0.4-5.8,3.2-8.9,7.9-8.7c4.5,0.2,6.9,3.4,7,9
		c0.1,7.4,0.1,7.4,7.7,7.4c18,0,36.1,0,54.1,0c1.3,0,2.5-0.1,3.8,0c4.9,0.4,8.4,3.4,8.4,7.4c0,4.3-3.5,7.3-8.7,7.5
		c-3.3,0.1-6.7,0.2-10,0c-4.3-0.4-4.3,1.3-3,4.6c3.6,9.3,7.4,18.5,10.5,27.9c3.9,11.6-1.6,23.9-12.6,29c-9.2,4.2-18,3.1-25.7-3.4
		c-8-6.7-10.4-15.5-7.4-25.2c3-9.6,6.9-19,10.6-28.4c1.5-3.6,0.7-4.7-3.2-4.5c-6.8,0.3-13.6,0.2-20.4,0c-3-0.1-4.1,0.7-4.1,3.9
		c0.1,25.6,0.1,51.2,0,76.9c0,3.2,1.1,4,4.1,3.9c9-0.2,18-0.1,27,0c3.9,0,6.9,1.5,7.9,5.5c1.2,4.9-1.8,8.8-7,8.9
		c-26.3,0.1-52.5,0.1-78.8,0c-4.4,0-7.3-3.2-7.2-7.1c0.1-4,3-7.1,7.3-7.1c9.2-0.2,18.3-0.2,27.5,0c3.2,0.1,4.4-0.7,4.4-4.2
		c-0.1-25.5-0.1-50.9,0-76.4c0-3-0.8-4.2-4-4.1c-7.1,0.2-14.2,0.2-21.3,0c-3.5-0.1-3.5,1.2-2.5,3.9c3.7,9.4,7.5,18.8,10.7,28.4
		c4.5,13.5-2.9,27.3-16.5,30.8c-8.9,2.3-17,0.2-23.5-6.5c-6.3-6.5-8.7-14.5-5.9-23.2c3.2-9.9,7.2-19.5,10.9-29.3
		C311,76.6,311.4,75.4,311.8,74.2z M322.8,86.8c-3.1,8.2-5.9,15.5-8.7,22.8c-1.8,4.6-0.6,8.4,3.1,11.4c3.4,2.7,7.2,2.7,11,0.3
		c4.3-2.8,4.9-7.1,3.5-11.3C329.1,102.4,326,95.1,322.8,86.8z M418,88.3c-0.4,0-0.8-0.1-1.3-0.1c-2.9,7.8-6,15.5-8.6,23.4
		c-1.3,3.9,0.5,7.5,4,9.8c3.5,2.3,7.1,2.4,10.6-0.2c3.5-2.6,5.2-6.1,3.7-10.4C423.7,103.2,420.8,95.8,418,88.3z"/>
	<path class="st16" d="M214.1,300.2c-2.8-0.6-5.6-0.8-8.4-0.3c-9.5-16.4-19-32.8-28.4-49.2c-0.9-1.6-2.4-3-2-5.1
		c5.4,2.9,10.2,6.8,16.2,8.4c19.2,6.3,36.8,2.9,53.2-8.5c-2.5,7.7-7.5,14-11.4,21C227,277.9,220.5,289,214.1,300.2z"/>
	<path class="st16" d="M174,244.6c0.4,0.3,0.9,0.7,1.3,1C174.9,245.3,174.4,245,174,244.6z"/>
	<path class="st16" d="M244.6,245.6c0.4-0.3,0.8-0.6,1.2-1C245.4,245,245,245.3,244.6,245.6z"/>
	<path class="st3" d="M322.8,86.8c3.2,8.3,6.4,15.6,8.8,23.2c1.4,4.2,0.8,8.5-3.5,11.3c-3.7,2.4-7.5,2.5-11-0.3
		c-3.7-2.9-4.9-6.8-3.1-11.4C316.9,102.3,319.6,95,322.8,86.8z"/>
	<path class="st3" d="M418,88.3c2.8,7.5,5.7,15,8.4,22.5c1.5,4.3-0.2,7.7-3.7,10.4c-3.4,2.6-7.1,2.5-10.6,0.2
		c-3.5-2.3-5.3-5.9-4-9.8c2.5-7.9,5.7-15.6,8.6-23.4C417.1,88.2,417.6,88.2,418,88.3z"/>
</g>
<g id="Layer_3" class="st0">
	<path class="st17" d="M395,432.1c4.7,1.1,6.5,4.3,6.5,8.8c0,11.2,0.2,22.5-0.1,33.7c-0.3,14.1-8.5,23.7-22.4,26.6
		c-0.2,0-0.3,0.5-0.5,0.7c-104.3,0-208.6,0-313,0c-0.4-1.4-1.8-1.1-2.8-1.5c-11.4-4.5-17.2-12.9-18.2-24.9c-0.1-1,0-1.9,0-2.9
		c0-130.3,0-260.7,0-391c0-14.6,8-25.3,21.3-28.3c1.9-0.4,3.8-0.6,5.7-0.6c14.2,0,28.3,0.1,42.5-0.1c5-0.1,7.9,2,8.9,6.9
		c-1.3,5.9-3.3,7.6-9.2,7.7c-6.4,0.1-12.9,0.3-19.3-0.1c-4.1-0.2-5,1-5,5c0.1,120.6,0.1,241.1,0.1,361.7c0,7.4,0,7.4,7.2,7.4
		c55.5,0,111.1,0,166.6,0c0.8,0,1.6-0.1,2.4,0c1.6,0.1,2.6-0.2,2.8-2.2c0.8-7.5,4.6-14,7.9-20.5c9.3-18.5,18.5-37,27.7-55.5
		c0.3-0.4,0.7-0.7,0.9-1.1c16.7-33,33.4-66.1,50.2-99.1c1-2,1.1-3.9,1.1-6c0-18.3,0-36.7,0-55c0-43.4,0-86.8,0.1-130.3
		c0-3.4-0.8-4.4-4.2-4.2c-6.6,0.3-13.2,0.1-19.8,0.1c-6.3,0-8.1-1.6-9.7-7.7c1.2-5,4.3-6.9,9.5-6.9c13.5,0.2,27,0.1,40.6,0.1
		c17.1,0,28.5,11.2,28.5,28.4c0.1,27.7,0,55.4,0,83.1c0,1.7,0,3.4,0,5.1c0.3,0.1,0.6,0.1,0.9,0.2c1.8-3.5,3.5-7,5.3-10.5
		c2.2-4.2,5.4-7.5,10.1-8.2c3.1-0.5,4.3-2.2,5.4-4.6c1.7-3.6,3.5-7.2,5.5-10.7c3.7-6.6,10.9-9.1,17.8-6.2c4.1,1.7,8.2,3.8,12,6
		c6.4,3.7,8.7,11.1,5.8,18c-1,2.4-2.3,4.6-3.5,6.9c-2.4,4.3-4.7,8.3-1.9,13.7c1.9,3.6,0.1,7.5-1.7,11c-3.5,6.9-6.8,13.8-10.5,20.6
		c-1.3,2.5-0.9,3.6,1.6,4.6c2.8,1.2,5.5,2.6,8.1,4.2c11,6.6,14.7,21.1,6.6,30.9c-15.8,19-27.1,40.5-38,62.4c-2.5,5-6.6,6.6-10.5,4.4
		c-3.7-2-4.7-6.1-2.3-10.8c10.8-22.1,21.8-44.1,38.1-62.9c4.1-4.7,2.9-9.2-2.6-12.3c-8.7-4.9-8.7-4.9-13.3,4.2
		c-10.4,20.5-20.7,41-31.1,61.4c-1.3,2.5-1.8,5-1.8,7.8c0.1,34.4,0,68.9,0.1,103.3c0,5-1.4,8.8-6.7,10c-6.4-1.1-7.8-2.8-7.8-9.3
		c0-24.5,0-48.9,0-73.4c0-1.3,0-2.6,0-4c-5.4,8.5-9.7,17.3-14.2,25.9c-1.3,2.5-1.9,5-1.9,7.8c0.1,25.6,0.1,51.2,0,76.8
		c0,11.7-7.3,19-18.9,19.1c-9.5,0.1-19,0-28.5,0c-1.5,0-3.1-0.4-4.4,1.2c-8.3,10.1-18.1,18.7-27,28.2c-0.6,0.6-1.8,1.1-0.9,2.4
		c26.8,0,53.7,0,80.6,0c10.6,0,15.2-4.7,15.2-15.4c0-10.3,0-20.6,0-30.9C387,434.8,388.8,433,395,432.1z M59.1,277.4
		c0,27.8,0,55.7,0,83.5c0,37.2,0,74.4,0,111.5c0,9.9,4.8,15.1,14.1,15.1c61.3,0,122.6,0,184,0.1c3.1,0,4.1-1,4.5-3.9
		c1.1-7.6,2.2-15.3,3.7-22.8c0.9-4.3-0.3-5.3-4.6-5.3c-54.9,0.2-109.8,0.1-164.6,0.1c-2.4,0-4.9,0-7.2-0.5
		c-9-2.1-13.8-9.1-13.8-19.9c0-120.9,0-241.7,0-362.6c0-5.7-1.2-6.6-6.8-5c-6.2,1.8-9.2,6.7-9.2,15.1
		C59.1,147.7,59.1,212.5,59.1,277.4z M418.4,229.6c0.1-1.9-1.5-1.9-2.5-2.5c-5.6-2.9-11.3-5.5-16.7-8.6c-3.3-1.9-4.7-1.5-6.4,2
		c-12.1,24.4-24.5,48.8-36.9,73.1c-21.7,43-43.4,86-65.3,128.9c-1.7,3.3-1.5,4.8,2.1,6.3c5.4,2.4,10.7,5.1,15.9,8.1
		c3.1,1.8,4.5,1.3,6.1-1.9c34-67.5,68.2-135,102.3-202.5C417.4,231.6,417.9,230.6,418.4,229.6z M370.9,229.6
		c0.3,0.1,0.6,0.2,0.9,0.3c4.4-8.7,8.8-17.4,13.3-26c1.4-2.7,1.9-5.3,1.9-8.3c-0.1-37.3,0-74.6-0.1-112c0-2.2-0.1-4.5-0.5-6.7
		c-1.2-5.7-5.9-9.3-11.7-9.7c-2.9-0.2-3.9,0.5-3.9,3.6C371,123.8,370.9,176.7,370.9,229.6z M356.4,386.2c-0.3,0-0.6-0.1-0.9-0.1
		c-9.2,18.2-18.4,36.4-27.8,55.1c8.7,0,16.5,0,24.4,0c2.7,0,4.3-1.2,4.3-4C356.5,420.2,356.4,403.2,356.4,386.2z M277.1,478.2
		c8.9-8.5,17.6-16.9,26.2-25.2c1.4-1.3,0.9-2.1-0.5-2.8c-5.7-2.9-11.5-5.8-17.2-8.7c-1.8-0.9-2.5-0.5-2.8,1.6
		C280.9,454.8,279,466.5,277.1,478.2z M424.3,215.2c1.7,0.1,1.9-1.1,2.3-1.9c1.7-3.1,3.1-6.3,4.8-9.4c1.1-2,0.7-3-1.3-4
		c-6.3-3.1-12.6-6.3-18.8-9.5c-0.6-0.3-1.1-0.6-1.8-0.7c-1.6-0.3-1.7,1.1-2.1,2c-1.7,4-4.8,7.4-5.3,12
		C409.7,207.6,417.2,211.5,424.3,215.2z M422.1,164.8c-0.4,0.3-1.2,0.5-1.4,0.9c-1.8,3.4-4.3,6.7-4.8,10.3c-0.2,1.7,4.3,2.6,6.7,3.9
		c2.6,1.5,5.4,2.8,8.1,4.1c9.1,4.5,9,4.5,13.2-4.7c1-2.2,0.9-3.4-1.4-4.5c-5.1-2.4-10-5-15-7.5C425.7,166.6,424,165.7,422.1,164.8z
		 M450.7,148.3c-0.4-0.5-0.7-1-1.1-1.4c-4.8-4.7-8.6-4.1-11.7,2c-0.5,1-1.1,2-1.5,3c-0.5,1.2-2.1,2.7-0.1,3.7c2.8,1.4,6.1,5,8.3,3.2
		C447.6,156.5,448.7,152.1,450.7,148.3z"/>
	<path class="st18" d="M304.3,362.9c-9.2,18.5-18.5,37-27.7,55.5c-3.3,6.6-7.1,13-7.9,20.5c-0.2,2-1.2,2.3-2.8,2.2
		c-0.8-0.1-1.6,0-2.4,0c-55.5,0-111.1,0-166.6,0c-7.2,0-7.2,0-7.2-7.4c0-120.6,0-241.1-0.1-361.7c0-4,0.9-5.2,5-5
		c6.4,0.4,12.9,0.1,19.3,0.1c5.9-0.1,7.9-1.8,9.2-7.7c6.4,0,12.8,0,19.2,0c0.4,3.3,0.5,6.8,1.3,10c4.3,17.9,19.1,29.2,38.6,29.3
		c26.5,0.1,53.1-0.1,79.6,0.1c19.3,0.2,32.9-8,40.3-26c2,1.4,1.2,3.5,1.2,5.3c0.1,18.8,0,37.6,0,56.4c-26,0.1-52.1,0.1-78.1,0.2
		c-1.4,0-2.9-0.1-4.3,0.1c-4,0.5-6.4,2.8-6.6,6.9c-0.2,4,2.5,7,6.6,7.4c1.4,0.2,2.9,0.1,4.3,0.1c26,0.1,52.1,0.1,78.1,0.2
		c0,32.5,0,65,0,97.5c-1.8,0.1-3.5,0.3-5.3,0.3c-24.3,0-48.6,0-72.8,0c-2.1,0-4.2,0-6.2,0.6c-3.3,1-4.9,3.5-4.8,7
		c0.1,3.5,1.9,5.8,5.2,6.6c1.7,0.4,3.5,0.4,5.3,0.4c18.2,0,36.3,0,54.5,0c8,0,16.1,0.2,24.1,0.3c0,31.9,0,63.8,0,95.7
		C303.3,359.7,302.6,361.6,304.3,362.9z M105.9,270.6c0,8.5-0.1,17.1,0,25.6c0.1,11.5,7.6,19,19.1,19.1c16.9,0.1,33.8,0.1,50.7,0
		c11.7-0.1,19.2-7.8,19.3-19.5c0.1-16.7,0.1-33.5,0-50.2c0-11.7-7.6-19.5-19.2-19.5c-16.9-0.1-33.8-0.1-50.7,0
		c-11.5,0.1-19,7.5-19.2,19C105.8,253.5,105.9,262.1,105.9,270.6z M150.2,204.7c8.5,0,17.1,0.1,25.6,0c11.8-0.1,19.2-7.6,19.2-19.4
		c0.1-16.7,0.1-33.5,0-50.2c0-11.8-7.6-19.4-19.2-19.5c-16.9-0.1-33.8-0.1-50.7,0c-11.5,0-19.1,7.5-19.1,19
		c-0.1,17.1-0.1,34.1,0,51.2c0.1,11.6,7.5,18.8,19.1,18.9C133.5,204.8,141.8,204.7,150.2,204.7z M105.9,381.1c0,8.5-0.1,17.1,0,25.6
		c0.2,11.5,7.7,18.9,19.2,18.9c16.9,0.1,33.8,0.1,50.7,0c11.4-0.1,19.1-7.7,19.1-19.1c0.1-16.9,0.1-33.8,0-50.7
		c0-11.7-7.5-19.2-19.3-19.3c-16.9-0.1-33.8-0.1-50.7,0c-11.7,0.1-18.9,7.4-19.1,19C105.8,364.1,105.9,372.6,105.9,381.1z
		 M247.9,183.5c8.2,0,16.4,0,24.6,0c5.9,0,9.4-2.8,9.3-7.4c-0.1-4.4-3.5-7.1-9.1-7.1c-16.6,0-33.1,0-49.7,0c-5.7,0-8.9,2.6-8.9,7.2
		c0,4.7,2.9,7.2,8.7,7.3C231.2,183.5,239.6,183.5,247.9,183.5z M248.2,281.6c-8.5,0-17,0-25.6,0c-5.5,0-8.4,2.5-8.5,7
		c-0.1,4.5,3,7.4,8.2,7.5c17,0.1,34.1,0.1,51.1,0c5.1,0,8.4-3.1,8.4-7.4c0-4.3-3.3-7.1-8.5-7.1C264.9,281.6,256.5,281.6,248.2,281.6
		z M248.1,360c-8.4,0-16.7,0-25.1,0c-5.7,0-8.9,2.5-8.9,7.1c0,4.6,3.1,7.3,8.7,7.3c16.7,0,33.4,0,50.1,0c5.5,0,8.9-3,8.8-7.4
		c-0.1-4.3-3.4-7-8.6-7C264.8,360,256.5,360,248.1,360z M237.4,408.5c5.1,0,10.3,0.1,15.4,0c4.5-0.1,7.5-3.1,7.5-7.1
		c0-3.7-2.8-7.1-7-7.2c-10.8-0.2-21.6-0.3-32.3,0c-4.5,0.1-7.1,3.5-6.9,7.7c0.2,4,2.9,6.5,7.3,6.7
		C226.8,408.6,232.1,408.5,237.4,408.5z"/>
	<path class="st19" d="M303.2,247.1c0-32.5,0-65,0-97.5c6.9-0.1,13.8-0.1,20.7-0.2c5.2-0.1,8.4-2.9,8.4-7.2c0-4.4-3.1-7.1-8.4-7.2
		c-6.9-0.1-13.8-0.1-20.7-0.2c0-18.8,0-37.6,0-56.4c0-1.8,0.8-3.9-1.2-5.3c0.6-4.5,1.3-8.9,1.9-13.4c6.3,0,12.7-0.1,19-0.1
		c1.5,6.1,3.4,7.7,9.7,7.7c6.6,0,13.2,0.2,19.8-0.1c3.4-0.2,4.2,0.8,4.2,4.2c-0.1,43.4-0.1,86.8-0.1,130.3c0,18.3,0,36.7,0,55
		c0,2.1-0.1,4.1-1.1,6c-16.8,33-33.5,66.1-50.2,99.1c-0.2,0.4-0.6,0.7-0.9,1.1c-1.7-1.4-1-3.3-1-4.9c0-31.9,0-63.8,0-95.7
		c6.4-0.1,12.8-0.2,19.2-0.3c1.9-0.1,4,0,5.7-0.7c3.3-1.5,4.7-4.3,4-7.9c-0.8-3.8-3.5-5.7-7.3-5.8
		C317.7,247.2,310.4,247.2,303.2,247.1z"/>
	<path class="st20" d="M303.9,59.7c-0.6,4.5-1.3,8.9-1.9,13.4c-7.4,18-21,26.2-40.3,26c-26.5-0.2-53.1,0-79.6-0.1
		c-19.5-0.1-34.2-11.4-38.6-29.3c-0.8-3.3-0.9-6.7-1.3-10c3.2-12.1,8.8-16.3,21.3-16.3c9.2,0,18.3-0.1,27.5,0.1
		c3,0.1,3.9-0.8,3.7-3.7c-0.4-6.7,0.6-13.1,4.3-18.9c6.8-10.5,19.2-15.4,31.4-12.3c11.7,3.1,20.2,13.5,20.9,25.9c0.5,9,0.5,9,9.6,9
		c7.4,0,14.8,0,22.2,0C295.2,43.3,301,47.9,303.9,59.7z M223.6,57.8c-20.1,0-40.2,0-60.3,0c-5.8,0-6.7,1.1-6,6.9
		c1.4,10.8,10.7,19.5,22.8,19.7c28.6,0.4,57.3,0.3,85.9,0c11.9-0.1,21.2-8.5,22.8-19.1c1-6.3,0-7.5-6.3-7.5
		C262.8,57.8,243.2,57.8,223.6,57.8z M223.1,43.2c2.4,0,4.8,0.1,7.2,0c7-0.2,6.4,1.6,6.5-6.7c0-0.8,0-1.6-0.1-2.4
		c-0.7-5.2-3.6-8.9-8.3-10.9c-5-2.1-9.7-1.3-14,2c-4.9,3.8-5.2,9.2-5.1,14.8c0,2.5,0.7,3.4,3.3,3.3C216,43.1,219.6,43.2,223.1,43.2z
		"/>
	<path class="st21" d="M395,432.1c-6.3,0.9-8,2.7-8,9.1c-0.1,10.3,0,20.6,0,30.9c0,10.7-4.7,15.4-15.2,15.4c-26.9,0-53.8,0-80.6,0
		c-0.9-1.3,0.4-1.8,0.9-2.4c8.9-9.5,18.7-18.2,27-28.2c1.3-1.6,2.9-1.2,4.4-1.2c9.5,0,19,0,28.5,0c11.6-0.1,18.9-7.4,18.9-19.1
		c0.1-25.6,0-51.2,0-76.8c0-2.8,0.5-5.3,1.9-7.8c4.5-8.6,8.8-17.4,14.2-25.9c0,1.3,0,2.6,0,4c0,24.5,0,48.9,0,73.4
		c0,6.6,1.4,8.2,7.8,9.3C394.9,419.2,395,425.7,395,432.1z"/>
	<path class="st21" d="M59.1,277.4c0-64.9,0-129.7,0-194.6c0-8.4,3-13.4,9.2-15.1c5.6-1.6,6.8-0.7,6.8,5c0,120.9,0,241.7,0,362.6
		c0,10.9,4.7,17.8,13.8,19.9c2.3,0.5,4.8,0.5,7.2,0.5c54.9,0,109.8,0.1,164.6-0.1c4.4,0,5.5,0.9,4.6,5.3c-1.5,7.6-2.6,15.2-3.7,22.8
		c-0.4,2.9-1.4,3.9-4.5,3.9c-61.3-0.1-122.6-0.1-184-0.1c-9.3,0-14.1-5.1-14.1-15.1c0-37.2,0-74.4,0-111.5
		C59.1,333.1,59.1,305.2,59.1,277.4z"/>
	<path class="st22" d="M418.4,229.6c-0.5,1-0.9,2-1.4,3c-34.1,67.5-68.3,135-102.3,202.5c-1.6,3.3-3,3.7-6.1,1.9
		c-5.2-2.9-10.4-5.7-15.9-8.1c-3.6-1.5-3.7-3.1-2.1-6.3c21.8-42.9,43.5-86,65.3-128.9c12.3-24.4,24.7-48.7,36.9-73.1
		c1.7-3.5,3.1-3.9,6.4-2c5.4,3.1,11.2,5.7,16.7,8.6C416.9,227.6,418.5,227.7,418.4,229.6z"/>
	<path class="st23" d="M370.9,229.6c0-52.9,0-105.8-0.1-158.8c0-3.1,1-3.8,3.9-3.6c5.8,0.4,10.5,4,11.7,9.7c0.5,2.2,0.5,4.5,0.5,6.7
		c0,37.3,0,74.6,0.1,112c0,3-0.5,5.6-1.9,8.3c-4.5,8.6-8.9,17.4-13.3,26C371.6,229.8,371.2,229.7,370.9,229.6z"/>
	<path class="st19" d="M356.4,386.2c0,17,0,34,0,51c0,2.8-1.6,4-4.3,4c-7.9,0-15.7,0-24.4,0c9.4-18.7,18.6-36.9,27.8-55.1
		C355.9,386.1,356.2,386.2,356.4,386.2z"/>
	<path class="st24" d="M277.1,478.2c1.9-11.7,3.9-23.4,5.7-35.2c0.3-2,1-2.4,2.8-1.6c5.7,2.9,11.5,5.8,17.2,8.7
		c1.5,0.7,1.9,1.5,0.5,2.8C294.6,461.4,286,469.7,277.1,478.2z"/>
	<path class="st19" d="M424.3,215.2c-7.2-3.7-14.7-7.6-22.2-11.4c0.5-4.6,3.6-7.9,5.3-12c0.4-0.9,0.6-2.3,2.1-2
		c0.6,0.1,1.2,0.5,1.8,0.7c6.3,3.2,12.5,6.4,18.8,9.5c2.1,1,2.5,2,1.3,4c-1.7,3.1-3.2,6.3-4.8,9.4
		C426.3,214.1,426.1,215.2,424.3,215.2z"/>
	<path class="st22" d="M422.1,164.8c1.9,1,3.6,1.8,5.4,2.7c5,2.5,9.9,5.1,15,7.5c2.3,1.1,2.4,2.3,1.4,4.5c-4.2,9.2-4.1,9.2-13.2,4.7
		c-2.7-1.4-5.5-2.6-8.1-4.1c-2.3-1.3-6.9-2.2-6.7-3.9c0.5-3.6,3-6.9,4.8-10.3C420.9,165.2,421.6,165,422.1,164.8z"/>
	<path class="st24" d="M450.7,148.3c-2,3.8-3.2,8.2-6,10.5c-2.3,1.8-5.6-1.8-8.3-3.2c-2-1-0.4-2.5,0.1-3.7c0.4-1,1-2,1.5-3
		c3-6,6.9-6.7,11.7-2C450,147.3,450.3,147.8,450.7,148.3z"/>
	<path class="st20" d="M105.9,270.6c0-8.5-0.1-17.1,0-25.6c0.2-11.5,7.7-18.9,19.2-19c16.9-0.1,33.8-0.1,50.7,0
		c11.6,0.1,19.2,7.8,19.2,19.5c0.1,16.7,0.1,33.5,0,50.2c0,11.7-7.6,19.4-19.3,19.5c-16.9,0.1-33.8,0.1-50.7,0
		c-11.6-0.1-19-7.5-19.1-19.1C105.8,287.6,105.9,279.1,105.9,270.6z M180.5,270.2c0-7.9-0.1-15.7,0.1-23.6c0.1-4.3-1.5-6.2-5.9-6.1
		c-16.2,0.1-32.5,0.1-48.7,0c-4.1,0-5.7,1.7-5.7,5.8c0.1,16.2,0.1,32.5,0,48.7c0,4,1.4,5.9,5.6,5.9c16.4-0.1,32.8-0.1,49.2,0
		c3.9,0,5.5-1.7,5.5-5.6C180.5,286.9,180.5,278.5,180.5,270.2z"/>
	<path class="st25" d="M150.2,204.7c-8.4,0-16.7,0.1-25.1,0c-11.7-0.1-19.1-7.3-19.1-18.9c-0.1-17.1-0.1-34.1,0-51.2
		c0.1-11.5,7.6-18.9,19.1-19c16.9-0.1,33.8-0.1,50.7,0c11.6,0,19.2,7.7,19.2,19.5c0.1,16.7,0.1,33.5,0,50.2
		c0,11.8-7.4,19.3-19.2,19.4C167.3,204.8,158.7,204.7,150.2,204.7z M150.5,130.1c-8.2,0-16.4,0.1-24.6,0c-3.9-0.1-5.6,1.5-5.5,5.4
		c0.1,16.4,0.1,32.8,0,49.2c0,3.8,1.4,5.6,5.4,5.5c16.4-0.1,32.8-0.1,49.2,0c3.8,0,5.6-1.4,5.6-5.4c-0.1-16.4-0.1-32.8,0-49.2
		c0-4.2-1.9-5.7-5.9-5.6C166.6,130.2,158.6,130.1,150.5,130.1z"/>
	<path class="st25" d="M105.9,381.1c0-8.5-0.1-17.1,0-25.6c0.1-11.6,7.4-18.9,19.1-19c16.9-0.1,33.8-0.1,50.7,0
		c11.8,0.1,19.3,7.6,19.3,19.3c0.1,16.9,0.1,33.8,0,50.7c-0.1,11.4-7.8,19-19.1,19.1c-16.9,0.1-33.8,0.1-50.7,0
		c-11.5,0-19.1-7.5-19.2-18.9C105.8,398.2,105.9,389.7,105.9,381.1z M150.6,351c-8,0-16.1,0.1-24.1-0.1c-4.2-0.1-6.2,1.2-6.1,5.8
		c0.2,16.3,0.1,32.5,0,48.8c0,4.1,1.7,5.7,5.8,5.7c16.3-0.1,32.5-0.1,48.8,0c4.2,0,5.7-1.8,5.7-5.8c-0.1-16.3-0.1-32.5,0-48.8
		c0-4.2-1.8-5.7-5.8-5.6C166.7,351.1,158.7,351,150.6,351z"/>
	<path class="st26" d="M303.2,247.1c7.2,0.1,14.4,0.1,21.6,0.4c3.8,0.1,6.5,2,7.3,5.8c0.7,3.6-0.7,6.5-4,7.9
		c-1.7,0.7-3.8,0.7-5.7,0.7c-6.4,0.2-12.8,0.2-19.2,0.3c-8-0.1-16-0.3-24.1-0.3c-18.2,0-36.3,0-54.5,0c-1.8,0-3.6,0-5.3-0.4
		c-3.4-0.8-5.1-3.2-5.2-6.6c-0.1-3.5,1.5-6,4.8-7c2-0.6,4.1-0.6,6.2-0.6c24.3,0,48.6,0,72.8,0C299.7,247.4,301.5,247.2,303.2,247.1z
		"/>
	<path class="st1" d="M303.2,134.8c6.9,0.1,13.8,0.1,20.7,0.2c5.2,0.1,8.4,2.8,8.4,7.2c0,4.4-3.1,7.2-8.4,7.2
		c-6.9,0.1-13.8,0.1-20.7,0.2c-26-0.1-52.1-0.1-78.1-0.2c-1.4,0-2.9,0.1-4.3-0.1c-4.1-0.4-6.8-3.5-6.6-7.4c0.2-4.2,2.6-6.4,6.6-6.9
		c1.4-0.2,2.9-0.1,4.3-0.1C251.2,134.9,277.2,134.8,303.2,134.8z"/>
	<path class="st26" d="M247.9,183.5c-8.4,0-16.7,0-25.1,0c-5.8,0-8.8-2.6-8.7-7.3c0-4.6,3.2-7.2,8.9-7.2c16.6,0,33.1,0,49.7,0
		c5.6,0,9,2.8,9.1,7.1c0.1,4.5-3.3,7.3-9.3,7.4C264.3,183.5,256.1,183.5,247.9,183.5z"/>
	<path class="st20" d="M248.2,281.6c8.4,0,16.7,0,25.1,0c5.2,0,8.5,2.8,8.5,7.1c0,4.2-3.3,7.3-8.4,7.4c-17,0.1-34.1,0.1-51.1,0
		c-5.2,0-8.2-3-8.2-7.5c0.1-4.5,3-7,8.5-7C231.2,281.6,239.7,281.6,248.2,281.6z"/>
	<path class="st1" d="M248.1,360c8.4,0,16.7,0,25.1,0c5.2,0,8.5,2.8,8.6,7c0.1,4.4-3.3,7.4-8.8,7.4c-16.7,0-33.4,0-50.1,0
		c-5.6,0-8.8-2.7-8.7-7.3c0-4.6,3.1-7.1,8.9-7.1C231.4,360,239.8,360,248.1,360z"/>
	<path class="st20" d="M237.4,408.5c-5.3,0-10.6,0.1-15.9,0c-4.5-0.1-7.1-2.7-7.3-6.7c-0.2-4.2,2.4-7.6,6.9-7.7
		c10.8-0.2,21.6-0.2,32.3,0c4.2,0.1,7,3.5,7,7.2c0,4-3,7-7.5,7.1C247.7,408.6,242.6,408.5,237.4,408.5z"/>
	<path class="st27" d="M223.6,57.8c19.6,0,39.2,0,58.9,0c6.4,0,7.3,1.1,6.3,7.5c-1.6,10.6-10.9,19-22.8,19.1
		c-28.6,0.3-57.3,0.3-85.9,0c-12.1-0.2-21.4-8.8-22.8-19.7c-0.7-5.8,0.2-6.9,6-6.9C183.4,57.8,203.5,57.8,223.6,57.8z"/>
	<path class="st27" d="M223.1,43.2c-3.5,0-7.1-0.1-10.6,0c-2.6,0.1-3.3-0.9-3.3-3.3c-0.1-5.6,0.2-11,5.1-14.8c4.3-3.3,9-4.2,14-2
		c4.8,2,7.6,5.7,8.3,10.9c0.1,0.8,0.1,1.6,0.1,2.4c0,8.3,0.5,6.6-6.5,6.7C227.9,43.3,225.5,43.2,223.1,43.2z"/>
	<path class="st28" d="M180.5,270.2c0,8.4-0.1,16.7,0,25.1c0.1,3.9-1.6,5.6-5.5,5.6c-16.4-0.1-32.8-0.1-49.2,0
		c-4.2,0-5.6-1.8-5.6-5.9c0.1-16.2,0.1-32.5,0-48.7c0-4.1,1.5-5.8,5.7-5.8c16.2,0.1,32.5,0.1,48.7,0c4.4,0,6,1.8,5.9,6.1
		C180.4,254.4,180.5,262.3,180.5,270.2z M136.6,263.4c-2.1,0-4.3,1.4-5.6,4.1c-1.4,2.9-1.1,5.7,1.2,8c3.3,3.3,6.6,6.6,10.2,9.6
		c3.6,3.1,8,2.5,10.9-1.4c4.8-6.4,9.4-13,14-19.6c2.8-4.1,2-8.1-1.6-10.5c-3.3-2.2-7.4-1.5-10.1,2.2c-2.7,3.6-5.3,7.3-7.8,11
		c-1.2,1.8-2.2,1.9-3.7,0.3C142.3,265.1,140.4,263.4,136.6,263.4z"/>
	<path class="st29" d="M150.5,130.1c8,0,16.1,0.1,24.1,0c4-0.1,5.9,1.4,5.9,5.6c-0.1,16.4-0.1,32.8,0,49.2c0,4-1.8,5.4-5.6,5.4
		c-16.4-0.1-32.8-0.1-49.2,0c-4,0-5.4-1.7-5.4-5.5c0.1-16.4,0.1-32.8,0-49.2c0-3.9,1.7-5.5,5.5-5.4
		C134.1,130.2,142.3,130.1,150.5,130.1z M147.3,176.5c2.5,0.1,4.4-1,5.8-2.9c4.9-6.8,9.9-13.5,14.5-20.4c2.4-3.5,1.5-7.5-1.6-9.9
		c-3.3-2.5-7.4-1.9-10.2,1.6c-2.4,3-4.7,6.1-6.7,9.4c-1.9,3.3-3.4,4.3-6.5,1c-3.1-3.3-7.5-3-10.3-0.2c-3,3-2.8,7.3,0.6,10.7
		c3,2.9,6.1,5.7,9.2,8.6C143.5,175.8,145.2,176.7,147.3,176.5z"/>
	<path class="st29" d="M150.6,351c8,0,16.1,0.1,24.1,0c4-0.1,5.9,1.4,5.8,5.6c-0.1,16.3-0.1,32.5,0,48.8c0,4.1-1.5,5.9-5.7,5.8
		c-16.3-0.1-32.5-0.1-48.8,0c-4.1,0-5.8-1.6-5.8-5.7c0.1-16.3,0.1-32.5,0-48.8c0-4.5,1.9-5.9,6.1-5.8
		C134.5,351.1,142.6,351,150.6,351z M169,369.6c-0.2-3-1.7-5.3-4.4-6.4c-3.1-1.2-6.1-0.7-8.3,2c-2.6,3.3-5.2,6.6-7.3,10.2
		c-2,3.3-3.4,3.5-6.3,0.7c-3.5-3.5-7.8-3.2-10.6,0.1c-2.8,3.1-2.4,7.2,1.1,10.7c2.6,2.6,5.3,5.1,8.1,7.6c4.7,4.3,8.8,4,12.6-1.1
		c4.5-6.1,8.8-12.3,13.2-18.4C168.1,373.4,169.1,371.7,169,369.6z"/>
	<path class="st20" d="M136.6,263.4c3.8,0,5.7,1.7,7.5,3.6c1.5,1.6,2.5,1.5,3.7-0.3c2.5-3.7,5.1-7.4,7.8-11
		c2.8-3.6,6.8-4.4,10.1-2.2c3.6,2.4,4.3,6.5,1.6,10.5c-4.5,6.6-9.2,13.2-14,19.6c-2.9,3.9-7.3,4.5-10.9,1.4c-3.6-3-6.9-6.3-10.2-9.6
		c-2.3-2.3-2.6-5.1-1.2-8C132.3,264.8,134.5,263.5,136.6,263.4z"/>
	<path class="st25" d="M147.3,176.5c-2.1,0.1-3.7-0.8-5.2-2.1c-3.1-2.8-6.2-5.6-9.2-8.6c-3.4-3.4-3.6-7.7-0.6-10.7
		c2.8-2.9,7.2-3.1,10.3,0.2c3.1,3.3,4.6,2.3,6.5-1c2-3.3,4.3-6.4,6.7-9.4c2.8-3.6,6.9-4.1,10.2-1.6c3.1,2.3,4,6.3,1.6,9.9
		c-4.7,6.9-9.6,13.7-14.5,20.4C151.7,175.5,149.7,176.6,147.3,176.5z"/>
	<path class="st20" d="M169,369.6c0.1,2.1-0.8,3.7-2,5.3c-4.4,6.2-8.7,12.3-13.2,18.4c-3.8,5.1-7.8,5.4-12.6,1.1
		c-2.7-2.5-5.4-5-8.1-7.6c-3.5-3.4-3.9-7.6-1.1-10.7c2.9-3.2,7.1-3.6,10.6-0.1c2.8,2.8,4.3,2.5,6.3-0.7c2.2-3.6,4.7-6.9,7.3-10.2
		c2.2-2.7,5.2-3.2,8.3-2C167.3,364.4,168.7,366.6,169,369.6z"/>
</g>
<g id="Layer_4">
	<path class="st30" d="M13.1,109.5c0-1,0-1.9,0-2.9c1.3-0.3,0.9-1.5,1.1-2.3c2.1-8.9,6.2-16.9,12-24C38.4,65.2,54.4,55,71.6,46.8
		c40.1-19.2,82.9-27.8,126.7-32.4c34.6-3.6,69.3-3.9,104-1.1c36.3,2.8,71.9,8.8,106.5,20.2c23.4,7.7,45.8,17.6,65,33.4
		c17.3,14.2,26.6,31.6,26.5,55.1c-0.6,93.5-0.4,187.1-0.2,280.6c0,17.2-5.9,31.4-17.4,43.8c-10,10.7-21.9,18.6-34.6,25.6
		c-2.5,1.4-4.8,3.4-8.1,3.8c0-2,0-3.7,0-5.5c0-37.1-0.1-74.2,0.1-111.3c0-3.6-1.1-5.5-4.3-6.7c-6.3-2.5-12.5-5.4-18.8-7.8
		c-26.8-10.1-54.5-16.2-82.8-20c-3.4-0.5-5.3-1.5-4.2-5.2c0.2-0.7,0.1-1.6,0.1-2.4c0.2-0.7,0.7-1.5,0.6-2.2
		c-0.3-4.3,1.4-5.6,5.6-4.5c2.4,0.6,5,0.7,7.5,1.1c2.3,0.4,3.1-0.4,3-2.7c-0.2-6.1-0.2-12.2-0.3-18.4c0.1-1.4,0.3-2.8,0.3-4.2
		c0-33.8,0.1-67.5-0.1-101.3c0-3.7,0.8-4.9,4.7-4.7c7.3,0.3,14.6-0.2,21.9,0.2c4.5,0.3,5.1-1.3,5.1-5.3c-0.2-31.5,0-63.1-0.2-94.6
		c0-3.8,0.7-5.1,4.8-5c24.4,0.2,48.8,0.1,73.2,0.1c1.3,0,2.8,0.6,4.2-0.7c-9.3-7.1-19.4-12.7-29.9-17.3
		c-44.5-19.7-91.7-27.4-139.8-30.4c-35.7-2.2-71.3-1-106.7,3.7c-33.4,4.4-66,11.7-97.1,25c-16.7,7.1-32.5,15.8-45.3,29
		c-18.5,19-18.4,39.7-0.1,58.6c7.8,8,16.8,14.5,26.7,19.6c4.1,2.1,5.4,4.7,5.2,9.2c-0.4,11.7-0.1,23.3-0.1,35.1
		c2.1,0,3.1-1.4,4.4-2.1c6.4-3.6,13.2-5.7,20.5-4.7c3.7,0.5,4.4-0.8,5.2-3.8c5.1-17.8,22.1-28.5,40.2-25.4
		c17.5,3,29.4,17.3,29.6,35.9c0.2,17.3-0.3,34.6,0.1,51.8c0.3,12.2-3.1,22.7-11.9,31.3c-2.5,1.6-4.8,4.2-7.5,4.7
		c-9.4,1.9-10.4,8.1-9.2,15.8c0.1,0.5,0.1,1,0,1.4c-0.3,2.8,0.7,3.5,3.5,3c8.3-1.6,16.8-2.9,25.1-4.4c8.1-1.4,8.1-1.4,9.9,6.2
		c0.3,6.8,0.3,6.8-6.5,7.8c-5.5,0.8-10.9,1.7-16.4,2.7c-28.4,5.2-56.1,12.6-82.4,24.7c-3.4,1.6-4.8,3.4-4.8,7.4
		c0.2,37.1,0.1,74.2,0.1,111.3c0,1.6,0.5,3.4-0.6,5.3c-14.8-7.8-29-16.2-40.7-28.3c-7.4-7.6-13.2-16.1-16.4-26.3
		c-0.8-2.5-0.5-5.3-2.3-7.4c0-1.3,0-2.5,0-3.8c1.8-1.5,0.9-3.6,0.9-5.3c0.1-97,0.1-194,0-291C14,112.4,14.8,110.7,13.1,109.5z
		 M73.4,316.9c-0.1,6.1-0.1,12.3-0.2,18.4c0,1.4-0.3,3.2,2.1,2.3c3.9-1.6,7.8-3.3,11.7-4.9c1.5-0.6,1.5-1.9,1.4-3.1
		c-0.1-5.8-0.2-11.6-0.3-17.4c0.4-1.8,0.6-3.3-1.9-3.9c-3.9-0.9-7.4-2.6-10.6-4.9c-1.8-1.3-2.5-0.7-2.4,1.3
		C73.3,308.8,73.3,312.9,73.4,316.9z M74.5,265.4c-0.6,4.6-0.6,9.1,0.4,13.6c3.5,15.1,22.7,21.3,34.4,11.4c1.6-1.4,2.7-2.4,0.7-4.5
		c-3.4-3.6-5.3-8.2-6.9-12.8c-0.9-4.3-1.3-8.7-1.3-13.2c0.1-13.7-0.1-27.5,0.1-41.2c0-2.9-1-3.8-3.6-4.2
		c-11.6-1.9-23.2,7.5-23.9,20.2C73.8,244.9,74.4,255.2,74.5,265.4z M116.4,255c-0.7,4.2-0.6,8.5,0.2,12.7
		c1.9,9.8,10.4,16.9,20.4,17.1c10.3,0.2,19.4-6.7,21.4-16.5c0.9-4.3,0.8-8.8,0.2-13.2c0.1-16.3,0.4-32.6,0.2-48.9
		c-0.1-11.9-9.1-20.8-20.5-21.3c-11.3-0.5-21.4,8-21.9,19.8C115.7,221.4,115.7,238.2,116.4,255z M392.7,158.9c-0.1,6-0.1,12-0.3,18
		c-0.1,2.5,0.8,3.2,3.3,3.2c13.7-0.1,27.5-0.1,41.2,0c2,0,3.7-0.4,3.1-2.8c-2-9.2,2.4-14.4,10.5-17.5c0.3-0.1,0.4-0.5,0.6-0.7
		c11.2-6.3,20.9-14.3,28-25c9.1-13.7,8.5-28.8-1.1-42.1c-1.1-1.5-2.1-2.5-4.2-2.5c-26.1,0.1-52.2,0.1-78.3,0c-2.2,0-3.1,0.5-3.1,2.9
		C392.6,114.6,392.6,136.7,392.7,158.9z M439.9,317c0.1-39.8,0.1-79.6,0.2-119.3c0-2.8-1-3.4-3.6-3.4c-23.9,0.1-47.9,0.1-71.8,0
		c-3.6,0-3.7,1.6-3.7,4.3c0.1,21.6,0,43.1,0,64.7c0,10,0.1,20,0.2,29.9c-0.1,6-0.1,12-0.3,18c-0.1,2.3,0.7,3.4,3,3.9
		c25,4.7,49.4,11.8,72.7,22.1c2.5,1.1,3.4,0.8,3.3-2.1C439.9,329.1,440,323,439.9,317z M27.7,402.6c-1.5,23.6,13.9,36.3,31,49.1
		c0-7.5,0-14,0-20.5c0.1-1.9,0.2-3.8,0.2-5.7c0-63.3,0-126.5,0-189.8c0-19.2,0-38.4,0-57.6c0-1.8,0.5-3.7-1.8-5
		C46.3,167,37,159,28.1,150.5c-0.1-0.2-0.2-0.4-0.2-0.7c0,0.2-0.1,0.4-0.1,0.6c-0.1,1.3-0.2,2.5-0.2,3.8c0,81.5,0,163,0,244.6
		C27.5,400,27.6,401.3,27.7,402.6z M485.2,150.5c-8.2,7.6-16.4,15.4-26.3,20.8c-3.5,1.9-4.7,4.1-4.7,8.2
		c0.1,82.1,0.1,164.3,0.1,246.4c0,1.7,0.1,3.5,0.2,5.2c0,6.5,0,13.1,0,20.4c10-6.9,18.8-14.2,25-24.1c4.7-7.6,7-15.8,6-24.8
		c0.1-0.9,0.2-1.9,0.2-2.8c0-82,0-164,0-246c0-1.1-0.1-2.2-0.2-3.3c0-0.2-0.1-0.4-0.1-0.6C485.3,150.1,485.3,150.3,485.2,150.5z
		 M130.4,308.6c0-1.7,0.2-3.5-0.1-5.2c-0.3-1.9,1.3-4.5-1.9-5.6c-3-1-5.5-1.8-7.8,1.4c-2,2.8-5,5.5-8.3,6.1
		c-9.9,1.7-10.6,8.3-9.5,16.1c0.1,0.8,0.1,1.6,0,2.4c-0.2,2.5,0.7,3,3.1,2.2c4.6-1.5,9.3-3,14.1-4.2
		C130.4,319.1,130.4,319.2,130.4,308.6z"/>
	<path class="st31" d="M130.1,498.7c0.1-19.3,0.2-38.6,0.3-57.9c0-7.7-0.8-15.6,1.1-23.2c4.8-19.8,17.6-31.6,37.4-35.8
		c15.6-3.3,31.2-6.6,46.9-9.8c3.1-0.6,4.5-1.7,4.3-5.2c-0.4-6.6-0.1-13.3-0.1-20c0-1.6,0.1-3.1-1.5-4.2
		c-9.9-7.1-16.6-16.7-21.7-27.6c-3.2-8.9-4.3-18.2-4.7-27.6c0.1-12,0.1-24.1,0.3-36.1c0.6-40.6,34.9-69.7,74.9-63.8
		c30.7,4.5,53.4,31.8,53.7,64.7c0.1,11.7,0.2,23.4,0.3,35.1c-0.4,9.4-1.5,18.7-4.7,27.6c-5.1,10.9-11.9,20.5-21.7,27.6
		c-1.6,1.1-1.5,2.6-1.5,4.2c0,6.5,0.3,13-0.1,19.5c-0.2,3.9,1.3,5.1,4.8,5.8c16.1,3.3,32.2,6.6,48.2,10.3
		c22.8,5.2,36.6,22.6,36.7,46.1c0.1,21.7,0,43.4,0,65.1c0,1.7,0.2,3.5,0.3,5.2c-4.8,0-9.5,0-14.3,0c-0.2-9.5-0.4-19.1-0.6-28.6
		c0.6-15.2,0.8-30.4,0-45.6c-0.8-13.9-9.9-24.7-22.9-27.6c-32.2-7.4-64.2-16-97.8-13c-1.1,0.1-2.2,0-3.3,0
		c-5.9,0.1-11.9-0.6-17.5,0.5c-19.7,3.8-39.3,8-58.9,12.5c-12.4,2.8-21.6,13.2-22.6,25.8c-1.3,15.8-0.7,31.6-0.3,47.4
		c-0.2,9.5-0.4,19.1-0.6,28.6C139.6,498.7,134.8,498.7,130.1,498.7z M207.3,258.8c0,1.9-0.3,3.8,0,5.7c6.1,36,46.4,53.9,76.8,33.7
		c13.8-9.2,21.8-22.2,21.8-39.4c4.7-33.7-23-62.4-57.6-57C224.2,205.7,203.3,228.1,207.3,258.8z M304.7,299.6
		c-13.4,14-29.4,21.4-48.6,21.4c-19.2-0.1-34.8-8.2-48.9-22.6c6.5,29.3,31.5,46.8,57.8,42C286,336.5,306.8,315.5,304.7,299.6z
		 M256.8,369.6c6.3,0,12.7-0.1,19,0c2.4,0.1,3.4-0.7,3.3-3.2c-0.2-3.9-0.1-7.9,0-11.9c0.1-2.3-0.6-3.1-3-2.3
		c-12.9,4.1-25.8,4.1-38.7,0c-2.9-0.9-3.2,0.3-3.2,2.6c0.1,3.8,0.2,7.6,0,11.4c-0.2,2.9,1.1,3.4,3.6,3.4
		C244.1,369.5,250.5,369.6,256.8,369.6z"/>
	<path class="st32" d="M320.4,498.7c-42.5,0-85,0-127.5,0c-1-9.5-0.5-19-0.2-28.5c42.7,0,85.3,0,128,0
		C320.9,479.7,321.4,489.2,320.4,498.7z"/>
	<path class="st32" d="M368.3,470.1c0.2,9.5,0.4,19.1,0.6,28.6c-11.1,0-22.2,0-33.3,0c-0.5-9.5-0.4-19-0.1-28.5
		C346.5,470.1,357.4,470.1,368.3,470.1z"/>
	<path class="st32" d="M144.4,498.7c0.2-9.5,0.4-19.1,0.6-28.6c10.9,0,21.8,0,32.8,0.1c0.4,9.5,0.5,19-0.1,28.5
		C166.6,498.7,155.5,498.7,144.4,498.7z"/>
	<path class="st31" d="M177.7,498.7c0.5-9.5,0.4-19,0.1-28.5c0.1-6,0.2-12,0.2-18c0-11,0-10.8,11-10.6c2.8,0.1,3.4,1,3.4,3.6
		c0,8.4,0.2,16.8,0.3,25.1c-0.3,9.5-0.8,19,0.2,28.5C187.8,498.7,182.7,498.7,177.7,498.7z"/>
	<path class="st31" d="M335.5,470.1c-0.4,9.5-0.5,19,0.1,28.5c-5.1,0-10.1,0-15.2,0c1-9.5,0.5-19,0.2-28.5
		c0.1-6.2,0.3-12.3,0.3-18.5c0.1-10.3,0-10.2,10.5-10.2c3.2,0,4,0.9,4,4C335.2,453.7,335.5,461.9,335.5,470.1z"/>
	<path class="st33" d="M13.1,109.5c1.7,1.1,0.9,2.9,0.9,4.4c0,97,0,194,0,291c0,1.8,0.9,3.8-0.9,5.3C13.1,310,13.1,209.7,13.1,109.5
		z"/>
	<path class="st34" d="M321.3,287.4c-0.1-11.7-0.2-23.4-0.3-35.1c-0.4-32.8-23-60.1-53.7-64.7c-40.1-5.9-74.3,23.2-74.9,63.8
		c-0.2,12-0.2,24.1-0.3,36.1c-7.2-0.2-14.1,1.8-21.1,2.3c-3.1,0.2-6.2,2.7-9.5,0.5c8.8-8.6,12.2-19.1,11.9-31.3
		c-0.4-17.3,0-34.6-0.1-51.8c-0.2-18.7-12.1-32.9-29.6-35.9c-18.1-3.1-35.1,7.5-40.2,25.4c-0.9,3-1.5,4.3-5.2,3.8
		c-7.2-1-14.1,1.1-20.5,4.7c-1.3,0.7-2.3,2.1-4.4,2.1c0-11.8-0.3-23.4,0.1-35.1c0.1-4.6-1.1-7.1-5.2-9.2
		c-9.9-5.1-18.9-11.6-26.7-19.6c-18.4-19-18.4-39.6,0.1-58.6c12.8-13.2,28.6-21.9,45.3-29c31.1-13.3,63.7-20.6,97.1-25
		c35.5-4.7,71.1-5.9,106.7-3.7c48.1,3,95.3,10.7,139.8,30.4c10.5,4.7,20.6,10.2,29.9,17.3c-1.4,1.3-2.9,0.7-4.2,0.7
		c-24.4,0-48.8,0.1-73.2-0.1c-4.1,0-4.8,1.2-4.8,5c0.2,31.5,0,63.1,0.2,94.6c0,4-0.6,5.6-5.1,5.3c-7.3-0.4-14.6,0.1-21.9-0.2
		c-3.8-0.2-4.7,1.1-4.7,4.7c0.1,33.8,0.1,67.5,0.1,101.3c0,1.4-0.2,2.8-0.3,4.2C338,289.8,329.8,287.3,321.3,287.4z M146.5,144.8
		c9.8,0,19.7,0,29.5,0c2.4,0,4.8,0,7.1-0.4c15-2.5,26.8-13.9,29.6-28.5c2.8-14.6-4-29.8-16.8-37.5c-13-7.8-29.2-6.5-41.2,3.4
		c-1.7,1.4-3.1,2.4-5.5,1.8c-5.7-1.5-11.4-0.7-16.8,1.4c-2.1,0.8-3.7,0.7-5.8,0c-12.8-4.4-24.2-1.9-33.4,7.9c-8.9,9.6-11,21-5.8,33
		c5.3,12.4,15.2,18.7,28.8,18.8C126.2,144.9,136.4,144.8,146.5,144.8z M299.5,132.4c17,0,30.8-13.7,30.9-30.7
		c0.2-17-13.9-31.2-31-31.1c-16.9,0-30.7,13.8-30.9,30.8C268.4,118.5,282.3,132.4,299.5,132.4z M247.3,94.3
		c-8.8,0.1-7.6-1.1-7.7,7.9c0,0.6,0.1,1.3,0,1.9c-0.5,3.6,1,4.7,4.6,4.5c12.5-0.5,10.3,2.4,10.6-10.8c0.1-2.7-1-3.8-3.6-3.5
		C249.8,94.4,248.5,94.3,247.3,94.3z M272.9,137.3c-2.4-2-5.2-3.6-7.2-5.9c-2.5-2.8-4.4-2.9-6.6,0.1c-0.6,0.8-1.3,1.3-2,2
		c-5.1,5.1-5.1,5.1-0.1,10.1c5.4,5.4,5.5,5.5,10.9-0.1C269.3,141.9,271.3,140.8,272.9,137.3z M346,138.5c-0.4-2.1-2.5-3.3-4-4.8
		c-5.4-5.5-5.4-5.5-10.9-0.1c-5,5-5,5,0.1,10.1c1.7,1.6,2.9,3.8,5.3,4.5C337.6,148.5,345.9,139.9,346,138.5z M271.8,64.2
		c-0.8-2.6-3.6-3.9-5.3-6.1c-2.5-3.3-4.6-3.2-7.5-0.1c-6.6,7-6.8,6.8,0.3,13.7c1,1,1.7,2.4,3.4,2.4C263.6,74,271.7,65.6,271.8,64.2z
		 M336.1,74.4c0.9-0.5,1.4-0.8,1.9-1.2c8.7-5.9,8.9-8.4,1.4-15.6c-0.2-0.2-0.5-0.4-0.7-0.7c-1.7-2-3.4-2.1-5.1-0.1
		c-0.9,1.1-2.1,1.9-3,3c-1.3,1.6-4.6,2.9-3.2,5.1C329.8,68.5,333.1,71.3,336.1,74.4z M359.3,101.7c-0.1-7.9,1-7.4-6.3-7.4
		c-8.7,0-8-1.1-8,6.6c0,8.3-1,7.6,6.5,7.6C360.2,108.5,359.3,109.6,359.3,101.7z M307,153.7c0-7.1,0-7.1-6.1-7.1
		c-8.9,0.1-8.2-1.1-8.1,6.5c0,8.6-1.1,7.8,6.8,7.8C307.9,160.9,306.9,161.9,307,153.7z M292.7,48.9c0.1,7.9-1,7.4,6.3,7.4
		c8.6,0,8,1.1,7.9-6.2c0-8.9,1.1-8.1-6.5-8.1C291.9,42,292.8,40.9,292.7,48.9z"/>
	<path class="st35" d="M454.5,431.1c-0.1-1.7-0.2-3.5-0.2-5.2c0-82.1,0-164.3-0.1-246.4c0-4,1.2-6.2,4.7-8.2
		c9.9-5.5,18-13.2,26.3-20.8c0,0,0.3,0,0.3,0c0.1,1.1,0.2,2.2,0.2,3.3c0,82,0,164,0,246c0,0.9-0.1,1.9-0.2,2.8
		C477.6,414.7,467.1,424,454.5,431.1z"/>
	<path class="st35" d="M28.1,150.5C37,159,46.3,167,57.1,173.1c2.2,1.3,1.8,3.1,1.8,5c0,19.2,0,38.4,0,57.6c0,63.3,0,126.5,0,189.8
		c0,1.9-0.1,3.8-0.2,5.7c-12.5-7.2-23.1-16.4-31-28.5c-0.1-1.3-0.2-2.5-0.2-3.8c0-81.5,0-163,0-244.6c0-1.3,0.1-2.5,0.2-3.8
		C27.7,150.5,28.1,150.5,28.1,150.5z"/>
	<path class="st36" d="M361.3,293.1c-0.1-10-0.2-20-0.2-29.9c0-21.6,0-43.1,0-64.7c0-2.7,0.2-4.3,3.7-4.3c23.9,0.2,47.9,0.1,71.8,0
		c2.6,0,3.6,0.6,3.6,3.4c-0.1,39.8-0.2,79.6-0.2,119.3c-7-1.9-13.3-5.4-20-7.9c-3.1-1.2-6.7-1.4-9.2-4c0.9-0.1,1.9-0.3,2.8-0.3
		c10.7-0.3,10.7-0.3,9.7-11.4c0-0.5,0.1-1-0.1-1.4c-0.3-0.5-0.7-1.3-1.1-1.3c-3.9-0.1-7.9-0.2-11.8,0c-1.7,0.1-1.2,1.9-1.2,3.1
		c-0.1,3.6-0.1,7.2-0.2,10.8c-4.9,0.2-9-3.5-14-2.8c0-2.7,0-5.3-0.1-8c0-1.1,0.4-2.7-0.8-2.9c-4-0.9-8.2-1-12.1-0.1
		c-2.7,0.7-0.7,4.2-1.5,6.2C373.9,295.7,367.6,294.4,361.3,293.1z M380.4,221.2c0.1,8.2-1.1,7.4,6.2,7.4c9.2,0,8,1.2,8.1-6.4
		c0.1-7.9,0-7.9-6.6-7.9C379.3,214.4,380.5,213.1,380.4,221.2z M416.2,214.3c-7.9,0.1-7.3-1-7.2,5.8c0,9.5-1.2,8.4,6.1,8.4
		c9.3,0,8.2,1.2,8.2-6.3C423.2,213,424.4,214.4,416.2,214.3z M387.9,252.3c-8.4,0.1-7.6-1-7.5,6c0,9.3-1.2,8.2,6.2,8.2
		c9.1,0,7.9,1.2,8-6.5C394.7,252.3,394.7,252.3,387.9,252.3z M416.4,252.3c-8.3,0.1-7.5-1-7.5,6.1c0,9.2-1.2,8.2,6.3,8.2
		c9.1,0,7.9,1.2,7.9-6.5C423.2,251.3,424.4,252.5,416.4,252.3z"/>
	<path class="st36" d="M392.7,158.9c-0.1-22.2-0.1-44.3-0.3-66.5c0-2.4,0.9-2.9,3.1-2.9c26.1,0.1,52.2,0.1,78.3,0
		c2.1,0,3.1,1,4.2,2.5c9.7,13.2,10.2,28.4,1.1,42.1c-7.1,10.7-16.8,18.8-28,25c-8.6,0-17.2,0-25.9,0c0-3.2-0.2-6.3-0.1-9.5
		c0-1.9-0.5-2.7-2.6-3c-11.3-1.2-11.6-1-11.7,10c0,0.8-0.1,1.6-0.1,2.4C404.7,159,398.7,158.9,392.7,158.9z M417.7,122.9
		c8.4-0.1,7.4,1,7.4-6.1c0-9.3,1.2-8.1-6.3-8.1c-9,0-7.8-1.1-7.9,6.1C410.8,122.9,410.8,122.9,417.7,122.9z M446.9,122.9
		c7.6-0.1,6.8,0.9,6.8-6.3c0-9.1,1.1-7.9-6.5-7.9c-8.8,0-7.6-1.2-7.7,6.8C439.3,122.9,439.4,122.9,446.9,122.9z"/>
	<path class="st37" d="M116.4,255c-0.7-16.8-0.8-33.6-0.1-50.3c0.5-11.8,10.7-20.3,21.9-19.8c11.5,0.5,20.4,9.5,20.5,21.3
		c0.2,16.3-0.1,32.6-0.2,48.9c-0.8,0.4-1.8,0.6-2.5,1.2c-7.2,5.8-15,8.4-24.4,6.6C125.7,261.7,121.4,257.8,116.4,255z"/>
	<path class="st38" d="M410.7,305.1c2.5,2.7,6.1,2.9,9.2,4c6.7,2.6,13,6.1,20,7.9c0.1,6,0.1,12,0.2,18c0.1,2.9-0.8,3.2-3.3,2.1
		c-23.3-10.3-47.7-17.4-72.7-22.1c-2.3-0.4-3.1-1.6-3-3.9c0.2-6,0.2-12,0.3-18c6.3,1.3,12.6,2.6,19,3.9c0.5,8.5,0.5,8.5,9.1,8.5
		c0.6,0,1.3,0,1.9,0c2.7,0.2,3.6-1.3,3.5-3.7c5-0.7,9.1,3.1,14,2.8C409.4,304.8,410.1,304.9,410.7,305.1z"/>
	<path class="st37" d="M74.5,265.4c-0.1-10.3-0.6-20.5-0.1-30.8c0.7-12.7,12.2-22,23.9-20.2c2.6,0.4,3.7,1.3,3.6,4.2
		c-0.2,13.7,0,27.5-0.1,41.2c0,4.4,0.4,8.8,1.3,13.2c-3.7,0.3-7.2,1.2-11.1,0.7C85.1,272.9,79.9,269,74.5,265.4z"/>
	<path class="st39" d="M161.4,290.3c3.3,2.2,6.3-0.3,9.5-0.5c7.1-0.5,14-2.5,21.1-2.3c0.4,9.4,1.5,18.7,4.7,27.6
		c-4.5,0.6-9,1.3-13.5,1.9c-1.8-7.5-1.8-7.5-9.9-6.2c-8.4,1.4-16.8,2.8-25.1,4.4c-2.8,0.5-3.8-0.2-3.5-3c0.1-0.5,0.1-1,0-1.4
		c-1.2-7.7-0.1-13.9,9.2-15.8C156.6,294.4,158.9,291.9,161.4,290.3z"/>
	<path class="st38" d="M392.7,158.9c6,0,12,0.1,18,0.1c0.2,0.9,0.3,1.9,1.6,1.9c3.8,0,7.6,0,11.3,0c1.3,0,1.4-0.9,1.6-1.9
		c8.6,0,17.2,0,25.9,0c-0.2,0.2-0.4,0.6-0.6,0.7c-8.1,3.1-12.5,8.3-10.5,17.5c0.5,2.4-1.1,2.8-3.1,2.8c-13.7,0-27.5-0.1-41.2,0
		c-2.4,0-3.4-0.7-3.3-3.2C392.6,170.9,392.6,164.9,392.7,158.9z"/>
	<path class="st40" d="M116.4,255c5,2.8,9.3,6.7,15.3,7.9c9.4,1.8,17.3-0.8,24.4-6.6c0.7-0.6,1.6-0.8,2.5-1.2
		c0.6,4.4,0.7,8.9-0.2,13.2c-2,9.8-11.1,16.7-21.4,16.5c-10-0.2-18.5-7.3-20.4-17.1C115.9,263.4,115.7,259.2,116.4,255z"/>
	<path class="st39" d="M321.3,287.4c8.5-0.1,16.7,2.4,25.1,2.8c0.1,6.1,0.2,12.3,0.3,18.4c0.1,2.3-0.7,3.1-3,2.7
		c-2.5-0.5-5-0.5-7.5-1.1c-4.1-1.1-5.9,0.2-5.6,4.5c0.1,0.7-0.4,1.5-0.6,2.2c-4.5-0.6-9-1.3-13.5-1.9
		C319.8,306.1,320.9,296.8,321.3,287.4z"/>
	<path class="st40" d="M74.5,265.4c5.5,3.6,10.6,7.5,17.5,8.4c3.9,0.5,7.4-0.4,11.1-0.7c1.7,4.6,3.5,9.2,6.9,12.8
		c2,2.1,0.9,3.1-0.7,4.5c-11.7,10-30.8,3.7-34.4-11.4C73.9,274.6,73.8,270,74.5,265.4z"/>
	<path class="st41" d="M27.7,402.6c8,12.1,18.5,21.4,31,28.5c0,6.5,0,13.1,0,20.5C41.6,438.9,26.2,426.2,27.7,402.6z"/>
	<path class="st41" d="M454.5,431.1c12.5-7.2,23.1-16.4,31-28.5c0.9,9-1.3,17.2-6,24.8c-6.2,10-15,17.2-25,24.1
		C454.5,444.2,454.5,437.7,454.5,431.1z"/>
	<path class="st39" d="M130.4,308.6c0,10.6,0,10.5-10.5,13.2c-4.7,1.2-9.4,2.6-14.1,4.2c-2.3,0.8-3.3,0.3-3.1-2.2
		c0.1-0.8,0.1-1.6,0-2.4c-1.1-7.9-0.3-14.4,9.5-16.1c3.3-0.6,6.3-3.2,8.3-6.1c2.3-3.2,4.8-2.5,7.8-1.4c3.3,1.1,1.7,3.6,1.9,5.6
		C130.6,305.1,130.4,306.9,130.4,308.6z"/>
	<path class="st39" d="M88.2,312.1c0.1,5.8,0.2,11.6,0.3,17.4c0,1.3,0.1,2.5-1.4,3.1c-3.9,1.6-7.8,3.4-11.7,4.9
		c-2.4,0.9-2.1-0.9-2.1-2.3c0-6.1,0.1-12.3,0.2-18.4c1.9,0.2,3.6-0.6,5.3-1.4C81.7,314,84.7,312.3,88.2,312.1z"/>
	<path class="st34" d="M88.2,312.1c-3.5,0.2-6.5,1.9-9.5,3.4c-1.7,0.8-3.3,1.6-5.3,1.4c-0.1-4.1-0.1-8.2-0.2-12.3
		c0-2.1,0.6-2.6,2.4-1.3c3.2,2.3,6.8,4.1,10.6,4.9C88.8,308.8,88.6,310.3,88.2,312.1z"/>
	<path class="st41" d="M485.5,150.4c0,0-0.3,0-0.3,0c0.1-0.2,0.1-0.4,0.2-0.6C485.4,150.1,485.5,150.3,485.5,150.4z"/>
	<path class="st41" d="M28.1,150.5c0,0-0.4,0-0.4,0c0-0.2,0.1-0.4,0.1-0.6C27.9,150,28,150.3,28.1,150.5z"/>
	<path class="st42" d="M335.5,470.1c-0.1-8.2-0.3-16.4-0.2-24.7c0-3.1-0.8-4-4-4c-10.4,0-10.4-0.1-10.5,10.2
		c0,6.2-0.2,12.3-0.3,18.5c-42.7,0-85.3,0-128,0c-0.1-8.4-0.3-16.8-0.3-25.1c0-2.6-0.6-3.5-3.4-3.6c-11-0.2-11-0.3-11,10.6
		c0,6-0.2,12-0.2,18c-10.9,0-21.8,0-32.8-0.1c-0.4-15.8-1.1-31.7,0.3-47.4c1.1-12.6,10.3-22.9,22.6-25.8
		c19.6-4.5,39.2-8.7,58.9-12.5c5.7-1.1,11.7-0.4,17.5-0.5c1.1,0,2.2,0.1,3.3,0c33.6-3,65.6,5.6,97.8,13c13,3,22.1,13.8,22.9,27.6
		c0.9,15.2,0.6,30.4,0,45.6C357.4,470.1,346.5,470.1,335.5,470.1z"/>
	<path class="st43" d="M207.3,258.8c-4-30.7,16.9-53.2,41.1-57c34.6-5.4,62.3,23.2,57.6,57c-2.1,0.4-2.8,2.5-3.9,3.9
		c-20.9,27.5-61.1,30.3-85.6,6.1C213.2,265.6,211.3,261.3,207.3,258.8z"/>
	<path class="st33" d="M207.3,258.8c4,2.4,5.9,6.8,9.2,10c24.5,24.2,64.7,21.4,85.6-6.1c1.1-1.4,1.8-3.4,3.9-3.9
		c0,17.1-8,30.2-21.8,39.4c-30.4,20.2-70.7,2.3-76.8-33.7C207,262.7,207.3,260.7,207.3,258.8z"/>
	<path class="st44" d="M304.7,299.6c2.1,15.9-18.7,36.9-39.8,40.8c-26.3,4.8-51.3-12.8-57.8-42c14.1,14.3,29.8,22.5,48.9,22.6
		C275.3,321,291.3,313.6,304.7,299.6z"/>
	<path class="st44" d="M256.8,369.6c-6.3,0-12.7-0.1-19,0c-2.6,0.1-3.8-0.5-3.6-3.4c0.2-3.8,0.1-7.6,0-11.4
		c-0.1-2.4,0.3-3.5,3.2-2.6c12.9,4.1,25.8,4.1,38.7,0c2.4-0.8,3.1,0,3,2.3c-0.1,4-0.2,7.9,0,11.9c0.1,2.5-0.9,3.3-3.3,3.2
		C269.5,369.5,263.1,369.6,256.8,369.6z"/>
	<path class="st30" d="M146.5,144.8c-10.1,0-20.3,0.1-30.4,0c-13.5-0.2-23.4-6.5-28.8-18.8c-5.2-12-3.1-23.5,5.8-33
		c9.2-9.9,20.7-12.3,33.4-7.9c2.1,0.7,3.7,0.8,5.8,0c5.4-2,11.1-2.9,16.8-1.4c2.3,0.6,3.8-0.4,5.5-1.8c12-9.9,28.2-11.2,41.2-3.4
		c12.8,7.7,19.6,22.8,16.8,37.5c-2.8,14.6-14.5,25.9-29.6,28.5c-2.3,0.4-4.7,0.4-7.1,0.4C166.2,144.8,156.4,144.8,146.5,144.8z
		 M147,130.5C147,130.5,147,130.5,147,130.5c10.6,0,21.2,0.2,31.8-0.1c13.9-0.4,23.5-14.5,19.1-27.7c-2.8-8.5-8.8-13.5-17.5-14.8
		c-8.7-1.2-16,2.2-20.8,9.6c-2.3,3.6-4.1,4.5-8,2.1c-6.3-3.9-12.8-3.3-18.6,1.2c-2.8,2.2-4.6,1.8-7.3-0.1c-6.8-4.9-14.1-4.7-20.2,0
		c-5.5,4.3-7.8,11.6-5.7,18.3c2.2,7,8.6,11.4,16.8,11.5C126.7,130.6,136.8,130.5,147,130.5z"/>
	<path class="st30" d="M299.5,132.4c-17.2,0-31.1-13.9-31-31.1c0.1-17,13.9-30.8,30.9-30.8c17.1,0,31.2,14.1,31,31.1
		C330.3,118.7,316.5,132.4,299.5,132.4z M299.5,118.1c9.2,0,16.7-7.4,16.7-16.6c0-9.1-7.5-16.7-16.6-16.7c-9.2,0-16.6,7.4-16.6,16.6
		C282.9,110.7,290.2,118.1,299.5,118.1z"/>
	<path class="st45" d="M247.3,94.3c1.3,0,2.5,0.1,3.8,0c2.6-0.2,3.7,0.8,3.6,3.5c-0.3,13.3,1.9,10.3-10.6,10.8
		c-3.5,0.1-5.1-0.9-4.6-4.5c0.1-0.6,0-1.3,0-1.9C239.7,93.1,238.4,94.4,247.3,94.3z"/>
	<path class="st45" d="M272.9,137.3c-1.6,3.5-3.6,4.7-5.1,6.2c-5.4,5.5-5.4,5.5-10.9,0.1c-5-5-5-5,0.1-10.1c0.7-0.7,1.4-1.3,2-2
		c2.2-3,4.1-2.9,6.6-0.1C267.7,133.6,270.5,135.3,272.9,137.3z"/>
	<path class="st45" d="M346,138.5c-0.1,1.5-8.4,10-9.4,9.7c-2.4-0.7-3.6-2.9-5.3-4.5c-5.2-5-5.1-5.1-0.1-10.1
		c5.4-5.4,5.5-5.5,10.9,0.1C343.5,135.2,345.5,136.3,346,138.5z"/>
	<path class="st45" d="M271.8,64.2c-0.1,1.3-8.2,9.7-9.1,9.8c-1.7,0.1-2.4-1.4-3.4-2.4c-7.1-6.9-6.9-6.7-0.3-13.7
		c2.9-3.1,5-3.1,7.5,0.1C268.2,60.3,271,61.6,271.8,64.2z"/>
	<path class="st45" d="M336.1,74.4c-3-3.1-6.4-5.9-8.7-9.4c-1.5-2.2,1.9-3.5,3.2-5.1c0.9-1.1,2-2,3-3c1.8-2,3.5-1.9,5.1,0.1
		c0.2,0.2,0.4,0.5,0.7,0.7c7.5,7.3,7.3,9.7-1.4,15.6C337.5,73.6,337,73.9,336.1,74.4z"/>
	<path class="st45" d="M359.3,101.7c-0.1,8,0.8,6.9-7.7,6.9c-7.6,0-6.5,0.7-6.5-7.6c0-7.8-0.8-6.6,8-6.6
		C360.3,94.3,359.3,93.8,359.3,101.7z"/>
	<path class="st45" d="M307,153.7c-0.1,8.2,0.9,7.2-7.4,7.2c-7.9,0-6.8,0.8-6.8-7.8c0-7.6-0.8-6.4,8.1-6.5
		C307,146.6,307,146.6,307,153.7z"/>
	<path class="st45" d="M292.7,48.9c0.1-7.9-0.8-6.9,7.7-6.9c7.6,0,6.5-0.8,6.5,8.1c0,7.3,0.6,6.1-7.9,6.2
		C291.7,56.3,292.8,56.7,292.7,48.9z"/>
	<path class="st45" d="M394.8,301.8c0.1,2.4-0.8,4-3.5,3.7c-0.6,0-1.3,0-1.9,0c-8.6,0-8.6,0-9.1-8.5c0.8-2.1-1.3-5.6,1.5-6.2
		c3.9-0.9,8.1-0.8,12.1,0.1c1.2,0.3,0.8,1.9,0.8,2.9C394.7,296.4,394.7,299.1,394.8,301.8z"/>
	<path class="st45" d="M380.4,221.2c0.1-8-1.1-6.8,7.6-6.9c6.7-0.1,6.7,0,6.6,7.9c-0.1,7.6,1.1,6.4-8.1,6.4
		C379.3,228.6,380.5,229.4,380.4,221.2z"/>
	<path class="st45" d="M416.2,214.3c8.2,0.2,7-1.2,7,8c0,7.4,1.1,6.3-8.2,6.3c-7.2,0-6,1.1-6.1-8.4
		C408.9,213.3,408.3,214.4,416.2,214.3z"/>
	<path class="st45" d="M387.9,252.3c6.7,0,6.8,0,6.7,7.8c-0.1,7.6,1.1,6.5-8,6.5c-7.4,0-6.2,1-6.2-8.2
		C380.4,251.3,379.5,252.5,387.9,252.3z"/>
	<path class="st45" d="M416.4,252.3c7.9,0.1,6.8-1.1,6.8,7.7c0,7.7,1.2,6.5-7.9,6.5c-7.5,0-6.3,1.1-6.3-8.2
		C408.9,251.3,408.1,252.4,416.4,252.3z"/>
	<path class="st45" d="M410.7,305.1c-0.6-0.1-1.3-0.3-1.9-0.4c0-3.6,0.1-7.2,0.2-10.8c0-1.2-0.4-3,1.2-3.1c3.9-0.2,7.8-0.1,11.8,0
		c0.4,0,0.9,0.8,1.1,1.3c0.2,0.4,0.1,0.9,0.1,1.4c1,11.1,1,11.1-9.7,11.4C412.6,304.8,411.7,304.9,410.7,305.1z"/>
	<path class="st45" d="M417.7,122.9c-6.8,0-6.9,0-6.8-8.2c0.1-7.2-1.1-6.1,7.9-6.1c7.5,0,6.3-1.2,6.3,8.1
		C425.1,123.9,426.1,122.8,417.7,122.9z"/>
	<path class="st45" d="M446.9,122.9c-7.5,0-7.6,0-7.5-7.5c0.1-8-1.1-6.8,7.7-6.8c7.7,0,6.5-1.2,6.5,7.9
		C453.7,123.8,454.5,122.8,446.9,122.9z"/>
	<path class="st45" d="M425.3,159.1c-0.2,0.9-0.3,1.9-1.6,1.9c-3.8,0-7.6,0-11.3,0c-1.3,0-1.4-1-1.6-1.9c0-0.8,0.1-1.6,0.1-2.4
		c0.1-11,0.4-11.3,11.7-10c2.1,0.2,2.6,1.1,2.6,3C425.1,152.8,425.2,155.9,425.3,159.1z"/>
	<path class="st45" d="M147,130.5c-10.1,0-20.3,0-30.4,0c-8.2,0-14.6-4.5-16.8-11.5c-2.1-6.7,0.2-14,5.7-18.3
		c6.1-4.7,13.4-4.8,20.2,0c2.7,1.9,4.5,2.3,7.3,0.1c5.8-4.5,12.3-5.1,18.6-1.2c3.9,2.4,5.7,1.5,8-2.1c4.8-7.4,12-10.8,20.8-9.6
		c8.7,1.2,14.7,6.3,17.5,14.8c4.3,13.2-5.3,27.3-19.1,27.7C168.2,130.7,157.6,130.5,147,130.5C147,130.5,147,130.5,147,130.5z"/>
	<path class="st42" d="M299.5,118.1c-9.2,0-16.6-7.4-16.5-16.6c0-9.2,7.5-16.7,16.6-16.6c9.1,0,16.6,7.6,16.6,16.7
		C316.1,110.7,308.7,118.1,299.5,118.1z"/>
</g>
</svg>
